<svg width="71" height="65" viewBox="0 0 71 65" fill="none" xmlns="http://www.w3.org/2000/svg">
<g id="Logo">
<g id="Group">
<g id="Group_2">
<g id="Group_3">
<path id="Vector" d="M0.586182 55.1158H1.67268V46.4675H0.586182V55.1158Z" fill="#191919"/>
</g>
</g>
</g>
<g id="Group_4">
<g id="Group_5">
<g id="Group_6">
<path id="Vector_2" d="M12.3343 46.4675V53.1391L7.49066 46.4675H6.50293V55.1158H7.56567V48.3705L12.4818 55.1158H13.3958V46.4675H12.3343Z" fill="#191919"/>
</g>
</g>
</g>
<g id="Group_7">
<g id="Group_8">
<g id="Group_9">
<path id="Vector_3" d="M24.0229 46.4675L21.2685 53.4979L18.4754 46.4675H17.2776L20.7734 55.1158H21.7749L25.2094 46.4675H24.0229Z" fill="#191919"/>
</g>
</g>
</g>
<g id="Group_10">
<g id="Group_11">
<g id="Group_12">
<path id="Vector_4" d="M29.1249 55.1158H30.2114V46.4675H29.1249V55.1158Z" fill="#191919"/>
</g>
</g>
</g>
<g id="Group_13">
<g id="Group_14">
<g id="Group_15">
<path id="Vector_5" d="M37.6247 55.2271C39.3413 55.2271 40.6766 54.3006 40.6766 52.669C40.6766 50.8661 39.1438 50.5072 37.7847 50.1734C36.6732 49.9146 35.673 49.667 35.673 48.7281C35.673 47.9004 36.4631 47.4065 37.5134 47.4065C38.5636 47.4065 39.3538 47.9629 39.3538 48.9256H40.4291C40.4291 47.3578 39.3301 46.3688 37.5384 46.3688C35.7467 46.3688 34.5977 47.2702 34.5977 48.7656C34.5977 50.4947 36.068 50.8536 37.4021 51.1624C38.5261 51.4337 39.5514 51.6687 39.5514 52.6815C39.5514 53.5967 38.6999 54.1643 37.6122 54.1643C36.4144 54.1643 35.5367 53.5342 35.5367 52.4602H34.4252C34.4252 54.1643 35.7217 55.2271 37.6247 55.2271Z" fill="#191919"/>
</g>
</g>
</g>
<g id="Group_16">
<g id="Group_17">
<g id="Group_18">
<path id="Vector_6" d="M44.8899 55.1158H45.9764V46.4675H44.8899V55.1158Z" fill="#191919"/>
</g>
</g>
</g>
<g id="Group_19">
<g id="Group_20">
<g id="Group_21">
<path id="Vector_7" d="M54.7488 55.2645C57.3681 55.2645 59.2698 53.349 59.2698 50.8035C59.2698 48.2466 57.3681 46.3312 54.7488 46.3312C52.1294 46.3312 50.214 48.2466 50.214 50.8035C50.214 53.349 52.1294 55.2645 54.7488 55.2645ZM54.7488 54.2017C52.7846 54.2017 51.3267 52.7314 51.3267 50.8035C51.3267 48.8643 52.7846 47.3939 54.7488 47.3939C56.713 47.3939 58.1708 48.8518 58.1708 50.8035C58.1708 52.7439 56.713 54.2017 54.7488 54.2017Z" fill="#191919"/>
</g>
</g>
</g>
<g id="Group_22">
<g id="Group_23">
<g id="Group_24">
<path id="Vector_8" d="M69.3516 46.4675V53.1391L64.508 46.4675H63.5203V55.1158H64.583V48.3705L69.4991 55.1158H70.4131V46.4675H69.3516Z" fill="#191919"/>
</g>
</g>
</g>
<g id="Group_25">
<g id="Group_26">
<g id="Group_27">
<path id="Vector_9" d="M17.369 64.6337C18.0466 64.6337 18.5743 64.2686 18.5743 63.6247C18.5743 62.912 17.9691 62.7707 17.4328 62.6382C16.9939 62.5357 16.5988 62.4381 16.5988 62.0681C16.5988 61.7417 16.9101 61.5454 17.3252 61.5454C17.7403 61.5454 18.0516 61.7655 18.0516 62.1456H18.4767C18.4767 61.5267 18.0416 61.1366 17.3352 61.1366C16.6276 61.1366 16.1737 61.4929 16.1737 62.0831C16.1737 62.7657 16.7539 62.907 17.2815 63.0295C17.7253 63.1358 18.1304 63.2283 18.1304 63.6284C18.1304 63.9898 17.7928 64.2148 17.364 64.2148C16.8914 64.2148 16.5451 63.966 16.5451 63.5409H16.1062C16.1062 64.2148 16.6176 64.6337 17.369 64.6337Z" fill="#191919"/>
</g>
</g>
</g>
<g id="Group_28">
<g id="Group_29">
<g id="Group_30">
<path id="Vector_10" d="M26.5695 64.9999L25.9056 64.2334C26.282 63.9121 26.5058 63.4382 26.5058 62.8869C26.5058 61.8779 25.7543 61.1215 24.7203 61.1215C23.6864 61.1215 22.9299 61.8779 22.9299 62.8869C22.9299 63.8921 23.6864 64.6485 24.7203 64.6485C25.0329 64.6485 25.3255 64.5798 25.5743 64.4535L26.0431 64.9999H26.5695ZM24.7203 64.2284C23.9452 64.2284 23.37 63.6483 23.37 62.8869C23.37 62.1217 23.9452 61.5416 24.7203 61.5416C25.4968 61.5416 26.0719 62.1167 26.0719 62.8869C26.0719 63.302 25.9006 63.6633 25.6231 63.9021L25.0079 63.1894H24.4865L25.2867 64.1172C25.1154 64.1897 24.9254 64.2284 24.7203 64.2284Z" fill="#191919"/>
</g>
</g>
</g>
<g id="Group_31">
<g id="Group_32">
<g id="Group_33">
<path id="Vector_11" d="M32.4109 64.6486C33.1773 64.6486 33.7475 64.0972 33.7475 63.322V61.1753H33.3186V63.287C33.3186 63.8534 32.9385 64.2285 32.4109 64.2285C31.8795 64.2285 31.5044 63.8534 31.5044 63.287V61.1753H31.0693V63.322C31.0693 64.0972 31.6407 64.6486 32.4109 64.6486Z" fill="#191919"/>
</g>
</g>
</g>
<g id="Group_34">
<g id="Group_35">
<g id="Group_36">
<path id="Vector_12" d="M40.929 64.5898H41.3928L39.9587 61.1753H39.5587L38.1633 64.5898H38.6172L38.9485 63.7746H40.5926L40.929 64.5898ZM39.7637 61.7654L40.4326 63.3796H39.1098L39.7637 61.7654Z" fill="#191919"/>
</g>
</g>
</g>
<g id="Group_37">
<g id="Group_38">
<g id="Group_39">
<path id="Vector_13" d="M47.8361 64.5898H48.32L47.4998 63.2045C47.9487 63.0782 48.2562 62.7019 48.2562 62.2193C48.2562 61.6141 47.7836 61.1753 47.1435 61.1753H45.8469V64.5898H46.2758V63.2583H47.051L47.8361 64.5898ZM46.2758 61.5854H47.1197C47.5386 61.5854 47.8174 61.8529 47.8174 62.2193C47.8174 62.5844 47.5386 62.8482 47.1197 62.8482H46.2758V61.5854Z" fill="#191919"/>
</g>
</g>
</g>
<g id="Group_40">
<g id="Group_41">
<g id="Group_42">
<path id="Vector_14" d="M53.3197 64.1797V63.0332H54.695V62.6381H53.3197V61.5854H54.8226V61.1753H52.8909V64.5898H54.8763V64.1797H53.3197Z" fill="#191919"/>
</g>
</g>
</g>
<path id="Vector_15" d="M19.9881 2.79688H28.1288L27.0585 3.83711H20.5083V10.3799L19.468 11.4576V2.79688H19.9881ZM31.0907 2.79688H39.9102L40.9505 3.83711H30.0505L31.0907 2.79688ZM42.9022 2.79688H51.5629V11.4576L50.4927 10.3874V3.83711H43.9499L42.9022 2.79688ZM51.5629 14.4208V23.2391L50.4927 24.2793V13.3806L51.5629 14.4208ZM51.5629 26.2323V34.893H42.9022L43.9424 33.8228H50.4852V27.28L51.5629 26.2323ZM39.9102 34.893H31.0907L30.0505 33.8228H40.9505L39.9102 34.893ZM28.1288 34.893H19.468V26.2323L20.5083 27.2725V33.8153H27.051L28.1288 34.893ZM19.468 23.2391V14.4208L20.5083 13.3806V24.2793L19.468 23.2391Z" fill="#191919"/>
<g id="Group_43">
<path id="Vector_16" d="M39.5175 0.166288L54.3597 15.0085V22.689L39.3525 37.6887H31.6782L16.671 22.6815C16.671 20.1109 16.671 17.5415 16.671 15.001C21.6534 9.99605 26.6658 4.98365 31.6782 0H39.36L39.5175 0.166288ZM53.2895 15.4298L38.8999 1.04024H32.1008L17.7113 15.4298V22.2289L32.0933 36.6109H38.8924L53.2745 22.2289V15.4298H53.2895Z" fill="#191919"/>
</g>
<path id="Vector_17" d="M35.8693 3.15946L39.6764 6.96533H38.1761L35.5155 4.26721L32.8173 6.96533H31.3545L35.5155 2.79688L35.8693 3.15946ZM41.7944 9.08332L45.2765 12.5666V14.0282L40.2941 9.08332H41.7944ZM47.3944 14.6771L51.5629 18.8443L47.3944 23.0128V21.5137L50.0638 18.8443L47.3944 16.1462V14.6771ZM45.2765 25.1233L41.7944 28.6066H40.2941L45.2765 23.6242V25.1233ZM39.6839 30.7246L35.5155 34.893L31.347 30.7246H32.8098L35.5155 33.3927L38.1836 30.7246H39.6839ZM29.2365 28.6066L25.7545 25.1233V23.6242L30.6994 28.6066H29.2365ZM23.6365 23.0128L19.468 18.8443L23.6365 14.6771V16.1387L20.9371 18.8443L23.6365 21.5137V23.0128ZM25.7545 12.5666L29.2365 9.08332H30.6994L25.7545 14.0282V12.5666Z" fill="#191919"/>
<path id="Vector_18" d="M46.8446 11.5864V26.2998L43.1287 30.0382L42.7374 30.1669H28.2566L27.9027 30.0382L24.1569 26.2923V11.3601L28.0303 7.48547H42.9699L46.8446 11.3601V11.5864ZM45.7968 25.8772V11.8127L42.5411 8.52571H28.4829L25.1971 11.8127V25.8697L28.4829 29.1267H42.5411L45.7968 25.8772Z" fill="#191919"/>
<path id="Vector_19" d="M35.8685 8.07313L39.8719 12.0765L35.5146 16.4701L31.1199 12.0765L35.5146 7.71179L35.8685 8.07313ZM38.4091 12.0765L35.5146 9.14337L32.5827 12.0765L35.5146 15.0085L38.4091 12.0765Z" fill="#191919"/>
<path id="Vector_20" d="M46.2855 19.1993L42.2533 23.2014L37.8885 18.8442L42.2533 14.4507L46.6468 18.8442L46.2855 19.1993ZM42.2533 21.7774L45.1852 18.8442L42.2533 15.9123L39.3514 18.8442L42.2533 21.7774Z" fill="#191919"/>
<path id="Vector_21" d="M35.1607 29.6169L31.1273 25.5835L35.5221 21.22L39.8868 25.5835L35.5146 29.9782L35.1607 29.6169ZM32.5827 25.5835L35.5146 28.5154L38.409 25.5835L35.5146 22.6816L32.5827 25.5835Z" fill="#191919"/>
<path id="Vector_22" d="M24.7441 18.4904L28.7462 14.4583L33.141 18.853L28.7462 23.2165L24.3815 18.8443L24.7441 18.4904ZM28.7462 15.9123L25.8143 18.8443L28.7462 21.7774L31.6782 18.8443L28.7462 15.9123Z" fill="#191919"/>
<path id="Vector_23" d="M35.8681 15.3324L39.3814 18.8445L35.5143 22.7191L31.6396 18.8445L35.5143 14.9711L35.8681 15.3324ZM37.9261 18.8445L35.5143 16.4327L33.1025 18.8445L35.5143 21.2575L37.9261 18.8445Z" fill="#191919"/>
</g>
</svg>
