<svg width="80" height="65" viewBox="0 0 80 65" fill="none" xmlns="http://www.w3.org/2000/svg">
<g id="Logo">
<g id="Group">
<g id="Group_2">
<g id="Group_3">
<path id="Vector" d="M4.25174 52.2195L0.653931 64.8232H1.89977L2.79494 61.6245H7.3535L8.24867 64.8232H9.49736L5.89955 52.2195H4.25174ZM5.06709 53.4853L7.05131 60.584H3.08288L5.06709 53.4853Z" fill="#191919"/>
</g>
</g>
</g>
<g id="Group_4">
<g id="Group_5">
<g id="Group_6">
<path id="Vector_2" d="M14.8539 52.0283H13.7335V62.4255L13.6394 64.8231H14.5659L14.7256 63.6713C15.1732 64.4068 15.9572 64.9998 17.2515 64.9998C19.5721 64.9998 20.4986 63.1268 20.4986 60.7777V60.3928C20.4986 58.0408 19.5721 56.1706 17.2515 56.1706C16.0684 56.1706 15.3015 56.6838 14.8539 57.3224V52.0283ZM14.8539 58.4884C15.1903 57.9296 15.846 57.177 16.9977 57.177C18.5971 57.177 19.3469 58.4257 19.3469 60.3928V60.7777C19.3469 62.7448 18.5971 63.9906 16.9977 63.9906C15.846 63.9906 15.1903 63.2408 14.8539 62.6792V58.4884Z" fill="#191919"/>
</g>
</g>
</g>
<g id="Group_7">
<g id="Group_8">
<g id="Group_9">
<path id="Vector_3" d="M28.1589 64.0562C26.4797 64.0562 26.015 63.161 26.015 62.2316H24.8975V62.2972C24.8975 63.5915 25.7613 64.9998 28.1589 64.9998C30.2543 64.9998 31.4231 63.9764 31.4231 62.5053V62.4255C31.4231 60.8718 30.5108 60.2645 28.3841 60.0878C26.5453 59.9452 26.129 59.4663 26.129 58.5853C26.129 57.6417 26.8788 57.1143 28.1589 57.1143C29.744 57.1143 30.2229 57.8669 30.2229 59.0814H31.3262V59.0187C31.3262 57.3538 30.4795 56.1707 28.1589 56.1707C26.1775 56.1707 25.0086 57.1143 25.0086 58.5853V58.6823C25.0086 59.9452 25.6643 60.7435 27.9508 60.9373C29.5986 61.0799 30.2714 61.3536 30.2714 62.5053C30.2714 63.449 29.5358 64.0562 28.1589 64.0562Z" fill="#191919"/>
</g>
</g>
</g>
<g id="Group_10">
<g id="Group_11">
<g id="Group_12">
<path id="Vector_4" d="M38.0109 56.3476V53.9471H36.8905V56.3476H35.5477V57.3539H36.8905V62.4713C36.8905 64.3101 37.9311 65 39.3708 65C40.0407 65 40.4256 64.8717 40.5539 64.8232V63.8482C40.4256 63.911 39.9922 63.9908 39.6416 63.9908C38.5697 63.9908 38.0109 63.6715 38.0109 62.3287V57.3539H40.7135V56.3476H38.0109Z" fill="#191919"/>
</g>
</g>
</g>
<g id="Group_13">
<g id="Group_14">
<g id="Group_15">
<path id="Vector_5" d="M48.5801 56.1707C47.4455 56.1707 46.6615 56.7636 46.2139 57.465L46.0542 56.3474H45.1277L45.2218 58.745V64.8231H46.3422V58.5369C46.6928 57.9781 47.3172 57.2568 48.5972 57.2568H48.8196V56.1878C48.8053 56.1878 48.6941 56.1707 48.5801 56.1707Z" fill="#191919"/>
</g>
</g>
</g>
<g id="Group_16">
<g id="Group_17">
<g id="Group_18">
<path id="Vector_6" d="M58.5476 64.8231H59.4742L59.3772 62.4255V59.3209C59.3772 57.4507 58.6588 56.1707 56.3068 56.1707C53.8123 56.1707 53.2535 57.7215 53.2535 59.0016V59.1441H54.3255C54.3255 58.0408 54.6932 57.1143 56.2926 57.1143C57.795 57.1143 58.2597 57.8669 58.2597 59.3209V59.5461L55.6996 59.9452C54.3255 60.1533 52.9314 60.6807 52.9314 62.5196V62.6792C52.9314 64.0391 53.8294 64.9998 55.3803 64.9998C56.8514 64.9998 57.8093 64.3755 58.3709 63.64L58.5476 64.8231ZM55.6682 64.0248C54.5307 64.0248 54.0518 63.3349 54.0518 62.5851V62.4397C54.0518 61.4818 54.7075 60.9516 55.7965 60.7606L58.2597 60.3614V62.6792C57.9546 63.1753 57.2362 64.0248 55.6682 64.0248Z" fill="#191919"/>
</g>
</g>
</g>
<g id="Group_19">
<g id="Group_20">
<g id="Group_21">
<path id="Vector_7" d="M65.0385 60.7777V60.3928C65.0385 58.4571 65.774 57.177 67.4532 57.177C68.9898 57.177 69.6141 58.1549 69.6141 59.4492H70.6861V59.1299C70.6861 57.7529 69.7738 56.1707 67.4389 56.1707C64.9586 56.1707 63.9038 58.0408 63.9038 60.3928V60.7777C63.9038 63.1268 64.9586 64.9998 67.4389 64.9998C69.7738 64.9998 70.6861 63.4803 70.6861 62.1375V61.881H69.6141C69.6141 62.9843 69.0382 63.9906 67.4532 63.9906C65.774 63.9906 65.0385 62.7106 65.0385 60.7777Z" fill="#191919"/>
</g>
</g>
</g>
<g id="Group_22">
<g id="Group_23">
<g id="Group_24">
<path id="Vector_8" d="M77.1437 56.3476V53.9471H76.0233V56.3476H74.6805V57.3539H76.0233V62.4713C76.0233 64.3101 77.0639 65 78.5036 65C79.1735 65 79.5584 64.8717 79.6867 64.8232V63.8482C79.5584 63.911 79.1251 63.9908 78.7744 63.9908C77.7025 63.9908 77.1437 63.6715 77.1437 62.3287V57.3539H79.8463V56.3476H77.1437Z" fill="#191919"/>
</g>
</g>
</g>
<g id="Group_25">
<path id="Vector_9" d="M57.7501 35.5734H58.8392V36.6595H57.7501V35.5734Z" fill="#191919"/>
</g>
<g id="Group_26">
<path id="Vector_10" d="M22.1794 1.10034H23.2799V35.5732H22.1794V1.10034Z" fill="#191919"/>
</g>
<g id="Group_27">
<path id="Vector_11" d="M22.1794 35.5734H23.2799V36.6595H22.1794V35.5734Z" fill="#191919"/>
</g>
<g id="Group_28">
<path id="Vector_12" d="M57.7501 1.10034H58.8392V35.5732H57.7501V1.10034Z" fill="#191919"/>
</g>
<g id="Group_29">
<path id="Vector_13" d="M23.2799 35.5734H57.7499V36.6595H23.2799V35.5734Z" fill="#191919"/>
</g>
<g id="Group_30">
<path id="Vector_14" d="M57.7501 0H58.8392V1.10044H57.7501V0Z" fill="#191919"/>
</g>
<g id="Group_31">
<path id="Vector_15" d="M22.1794 0H23.2799V1.10044H22.1794V0Z" fill="#191919"/>
</g>
<g id="Group_32">
<path id="Vector_16" d="M23.2799 0H57.7499V1.10044H23.2799V0Z" fill="#191919"/>
</g>
<g id="Group_33">
<path id="Vector_17" d="M27.0552 4.87805H53.7109V31.5309H27.0552V4.87805Z" fill="#191919"/>
</g>
<g id="Group_34">
<path id="Vector_18" d="M34.8633 16.9485H46.0473V19.4345H34.8633V16.9485Z" fill="#FDFBF5"/>
</g>
</g>
</svg>
