<svg width="76" height="65" viewBox="0 0 76 65" fill="none" xmlns="http://www.w3.org/2000/svg">
<g id="Logo">
<g id="Group">
<path id="Vector" d="M38.2124 0.96991C29.0409 0.96991 21.5792 8.43162 21.5792 17.6031C21.5792 26.7747 29.0409 34.2348 38.2124 34.2348C47.3839 34.2348 54.844 26.7747 54.844 17.6031C54.844 8.43162 47.3839 0.96991 38.2124 0.96991ZM38.2124 35.2063C28.5069 35.2063 20.6093 27.3087 20.6093 17.6031C20.6093 7.89761 28.5069 0 38.2124 0C47.9179 0 55.8155 7.89761 55.8155 17.6031C55.8155 27.3087 47.9179 35.2063 38.2124 35.2063Z" fill="#191919"/>
</g>
<path id="Vector_2" d="M38.212 3.1108C30.2211 3.1108 23.7196 9.61225 23.7196 17.6031C23.7196 25.594 30.2211 32.0955 38.212 32.0955C46.2029 32.0955 52.7043 25.594 52.7043 17.6031C52.7043 9.61225 46.2029 3.1108 38.212 3.1108ZM38.212 33.0654C29.6855 33.0654 22.7481 26.1297 22.7481 17.6031C22.7481 9.07663 29.6855 2.13928 38.212 2.13928C46.7385 2.13928 53.6742 9.07663 53.6742 17.6031C53.6742 26.1297 46.7385 33.0654 38.212 33.0654Z" fill="#191919"/>
<path id="Vector_3" d="M38.2129 5.25006C31.401 5.25006 25.8598 10.7913 25.8598 17.6031C25.8598 24.415 31.401 29.9562 38.2129 29.9562C45.0248 29.9562 50.566 24.415 50.566 17.6031C50.566 10.7913 45.0248 5.25006 38.2129 5.25006ZM38.2129 30.9261C30.867 30.9261 24.8899 24.949 24.8899 17.6031C24.8899 10.2572 30.867 4.28015 38.2129 4.28015C45.5588 4.28015 51.5359 10.2572 51.5359 17.6031C51.5359 24.949 45.5588 30.9261 38.2129 30.9261Z" fill="#191919"/>
<path id="Vector_4" d="M38.212 7.38934C32.5808 7.38934 27.9982 11.9719 27.9982 17.6032C27.9982 23.2344 32.5808 27.817 38.212 27.817C43.8433 27.817 48.4258 23.2344 48.4258 17.6032C48.4258 11.9719 43.8433 7.38934 38.212 7.38934ZM38.212 28.7869C32.0452 28.7869 27.0283 23.77 27.0283 17.6032C27.0283 11.4363 32.0452 6.41943 38.212 6.41943C44.3789 6.41943 49.3958 11.4363 49.3958 17.6032C49.3958 23.77 44.3789 28.7869 38.212 28.7869Z" fill="#191919"/>
<path id="Vector_5" d="M38.2136 9.53023C33.7613 9.53023 30.1406 13.1509 30.1406 17.6032C30.1406 22.0554 33.7613 25.6761 38.2136 25.6761C42.6658 25.6761 46.2865 22.0554 46.2865 17.6032C46.2865 13.1509 42.6658 9.53023 38.2136 9.53023ZM38.2136 26.6476C33.2273 26.6476 29.1691 22.5894 29.1691 17.6032C29.1691 12.6153 33.2273 8.55872 38.2136 8.55872C43.1998 8.55872 47.258 12.6153 47.258 17.6032C47.258 22.5894 43.1998 26.6476 38.2136 26.6476Z" fill="#191919"/>
<path id="Vector_6" d="M38.2125 11.6695C34.9409 11.6695 32.2789 14.3315 32.2789 17.6032C32.2789 20.8748 34.9409 23.5368 38.2125 23.5368C41.4842 23.5368 44.1462 20.8748 44.1462 17.6032C44.1462 14.3315 41.4842 11.6695 38.2125 11.6695ZM38.2125 24.5067C34.4053 24.5067 31.309 21.4104 31.309 17.6032C31.309 13.7959 34.4053 10.698 38.2125 10.698C42.0198 10.698 45.1161 13.7959 45.1161 17.6032C45.1161 21.4104 42.0198 24.5067 38.2125 24.5067Z" fill="#191919"/>
<path id="Vector_7" d="M38.2136 13.8087C36.121 13.8087 34.4193 15.5104 34.4193 17.603C34.4193 19.6941 36.121 21.3974 38.2136 21.3974C40.3063 21.3974 42.008 19.6941 42.008 17.603C42.008 15.5104 40.3063 13.8087 38.2136 13.8087ZM38.2136 22.3673C35.587 22.3673 33.4493 20.2297 33.4493 17.603C33.4493 14.9764 35.587 12.8387 38.2136 12.8387C40.8403 12.8387 42.9779 14.9764 42.9779 17.603C42.9779 20.2297 40.8403 22.3673 38.2136 22.3673Z" fill="#191919"/>
<path id="Vector_8" d="M38.2132 15.9479C37.3012 15.9479 36.5581 16.6911 36.5581 17.6031C36.5581 18.5151 37.3012 19.2566 38.2132 19.2566C39.1252 19.2566 39.8683 18.5151 39.8683 17.6031C39.8683 16.6911 39.1252 15.9479 38.2132 15.9479ZM38.2132 20.2281C36.7656 20.2281 35.5882 19.0507 35.5882 17.6031C35.5882 16.1554 36.7656 14.978 38.2132 14.978C39.6609 14.978 40.8383 16.1554 40.8383 17.6031C40.8383 19.0507 39.6609 20.2281 38.2132 20.2281Z" fill="#191919"/>
<g id="Group_2">
<g id="Group_3">
<g id="Group_4">
<path id="Vector_9" d="M5.59023 53.2028C3.87882 53.2028 2.61938 52.8521 1.81354 52.1476C1.09616 51.5268 0.739075 50.6775 0.739075 49.5998C0.739075 48.5237 1.09616 47.6729 1.81354 47.0456C2.61938 46.3475 3.87882 45.9968 5.59023 45.9968C6.59392 45.9968 7.42389 46.1126 8.08015 46.3443C8.73641 46.5727 9.24469 46.8847 9.60498 47.2836C9.9685 47.6825 10.2114 48.1393 10.332 48.654H7.27591C6.9703 48.1184 6.40895 47.8498 5.59023 47.8498C4.88572 47.8498 4.3694 48.0525 4.03966 48.4546C3.77748 48.7763 3.6472 49.1591 3.6472 49.5998C3.6472 50.0421 3.77748 50.4233 4.03966 50.745C4.3694 51.1488 4.88572 51.3498 5.59023 51.3498C6.40895 51.3498 6.9703 51.0796 7.27591 50.5392H10.332C10.2114 51.0587 9.9685 51.5171 9.60498 51.916C9.24469 52.3149 8.73641 52.6302 8.08015 52.8618C7.42389 53.0886 6.59392 53.2028 5.59023 53.2028Z" fill="#191919"/>
</g>
</g>
</g>
<g id="Group_5">
<g id="Group_6">
<g id="Group_7">
<path id="Vector_10" d="M20.9374 53.0548H18.1965C18.0678 52.8795 17.9778 52.6559 17.9263 52.3857C17.8829 52.1798 17.8169 51.9772 17.7268 51.7745C17.6368 51.5734 17.4791 51.4061 17.2572 51.2726C17.0384 51.1407 16.7119 51.0668 16.2792 51.0539H14.3941V53.0548H11.486V46.132H16.2084C17.3408 46.132 18.2512 46.2156 18.9428 46.3829C19.6377 46.5502 20.1428 46.8172 20.4612 47.1807C20.7781 47.541 20.9374 48.0139 20.9374 48.5961C20.9374 49.0819 20.828 49.4905 20.6092 49.825C20.3905 50.1564 20.043 50.4169 19.5669 50.6099C20.0253 50.7997 20.3229 51.0265 20.4612 51.2919C20.598 51.5589 20.6816 51.8501 20.7122 52.167C20.7459 52.45 20.8215 52.746 20.9374 53.0548ZM14.3941 49.3489L16.054 49.3425C16.5173 49.3425 16.8808 49.3232 17.1478 49.2846C17.4132 49.2427 17.6078 49.1848 17.7333 49.1109C17.862 49.0385 17.9424 48.9597 17.9778 48.8728C18.0164 48.7827 18.0357 48.691 18.0357 48.5961C18.0357 48.5028 18.0164 48.4096 17.9778 48.3195C17.9424 48.2294 17.862 48.149 17.7333 48.075C17.6078 48.0026 17.4132 47.9463 17.1478 47.9077C16.8808 47.8659 16.5173 47.8434 16.054 47.8434H14.3941V49.3489Z" fill="#191919"/>
</g>
</g>
</g>
<g id="Group_8">
<g id="Group_9">
<g id="Group_10">
<path id="Vector_11" d="M30.4298 53.0548H22.0915V46.132H30.0502V47.8434H24.9996V48.9307H29.2653V50.2625H24.9996V51.3434H30.4298V53.0548Z" fill="#191919"/>
</g>
</g>
</g>
<g id="Group_11">
<g id="Group_12">
<g id="Group_13">
<path id="Vector_12" d="M42.4437 53.0548H39.497L38.8472 51.9225H34.4786L33.8287 53.0548H30.882L35.315 46.132H38.0108L42.4437 53.0548ZM37.8692 50.2046L36.6661 48.1072L35.4565 50.2046H37.8692Z" fill="#191919"/>
</g>
</g>
</g>
<g id="Group_14">
<g id="Group_15">
<g id="Group_16">
<path id="Vector_13" d="M48.4135 53.0548H45.5119V47.8434H42.7968V46.132H51.1286V47.8434H48.4135V53.0548Z" fill="#191919"/>
</g>
</g>
</g>
<g id="Group_17">
<g id="Group_18">
<g id="Group_19">
<path id="Vector_14" d="M55.0905 53.0548H52.1824V46.132H55.0905V53.0548Z" fill="#191919"/>
</g>
</g>
</g>
<g id="Group_20">
<g id="Group_21">
<g id="Group_22">
<path id="Vector_15" d="M62.5099 53.0548H59.8076L55.928 46.132H58.8747L61.1587 51.0796L63.4428 46.132H66.3895L62.5099 53.0548Z" fill="#191919"/>
</g>
</g>
</g>
<g id="Group_23">
<g id="Group_24">
<g id="Group_25">
<path id="Vector_16" d="M75.5646 53.0548H67.2263V46.132H75.185V47.8434H70.1344V48.9307H74.4001V50.2625H70.1344V51.3434H75.5646V53.0548Z" fill="#191919"/>
</g>
</g>
</g>
<g id="Group_26">
<g id="Group_27">
<g id="Group_28">
<path id="Vector_17" d="M15.8271 65C14.891 65 14.1366 64.8987 13.5624 64.6976C12.9914 64.4965 12.5555 64.2199 12.2563 63.8676C11.9555 63.517 11.7545 63.1116 11.6515 62.6516H14.7398C14.9666 62.9781 15.3285 63.1406 15.8271 63.1406C16.3242 63.1406 16.6893 62.9781 16.9209 62.6516C16.937 62.6178 16.9466 62.5873 16.9466 62.5615C16.9466 62.4763 16.8308 62.412 16.5992 62.3685C16.3708 62.3267 16.0282 62.2945 15.5698 62.272C14.9939 62.2463 14.3892 62.1852 13.7554 62.0854C12.3432 61.8667 11.6387 61.2989 11.6387 60.3805C11.6387 60.3033 11.6419 60.2228 11.6515 60.136C11.7545 59.6776 11.9555 59.2722 12.2563 58.92C12.5555 58.5693 12.9914 58.2927 13.5624 58.09C14.1366 57.8889 14.891 57.7876 15.8271 57.7876C16.7617 57.7876 17.5144 57.8889 18.0854 58.09C18.6597 58.2927 19.0972 58.5693 19.398 58.92C19.6971 59.2722 19.8998 59.6776 20.0027 60.136H16.9209C16.6893 59.8111 16.3242 59.647 15.8271 59.647C15.3285 59.647 14.9666 59.8111 14.7398 60.136C14.7221 60.1617 14.7141 60.1858 14.7141 60.2067C14.7141 60.2839 14.8235 60.3419 15.0422 60.3805C15.2642 60.4191 15.5907 60.4512 16.0202 60.477C16.448 60.5027 16.9048 60.5461 17.3906 60.6056C17.8747 60.6619 18.3299 60.7601 18.7546 60.9016C19.1792 61.0431 19.5089 61.2555 19.7454 61.5386C19.9336 61.7541 20.0285 62.0259 20.0285 62.3557C20.0285 62.4506 20.0188 62.5487 20.0027 62.6516C19.8998 63.1116 19.6971 63.517 19.398 63.8676C19.0972 64.2199 18.6597 64.4965 18.0854 64.6976C17.5144 64.8987 16.7617 65 15.8271 65Z" fill="#191919"/>
</g>
</g>
</g>
<g id="Group_29">
<g id="Group_30">
<g id="Group_31">
<path id="Vector_18" d="M26.3143 64.8521H23.4126V59.6406H20.6975V57.9292H29.0294V59.6406H26.3143V64.8521Z" fill="#191919"/>
</g>
</g>
</g>
<g id="Group_32">
<g id="Group_33">
<g id="Group_34">
<path id="Vector_19" d="M34.1823 64.9999C32.4918 64.9999 31.3031 64.6509 30.6179 63.9512C30.0389 63.3593 29.7493 62.5084 29.7493 61.3969V57.9291H32.651V61.3969C32.651 61.8779 32.7314 62.2591 32.8955 62.5422C33.1303 62.9411 33.5598 63.1405 34.1823 63.1405C34.808 63.1405 35.2374 62.9411 35.4691 62.5422C35.6315 62.251 35.7136 61.8698 35.7136 61.3969V57.9291H38.6217V61.4356C38.6217 62.5213 38.3338 63.3593 37.7595 63.9512C37.0647 64.6509 35.8712 64.9999 34.1823 64.9999Z" fill="#191919"/>
</g>
</g>
</g>
<g id="Group_35">
<g id="Group_36">
<g id="Group_37">
<path id="Vector_20" d="M44.4527 64.8521H39.8203V57.9292H44.4527C46.3475 57.9292 47.7099 58.193 48.5382 58.7206C49.2074 59.15 49.5886 59.7339 49.6835 60.4706C49.7253 60.7891 49.7478 61.0947 49.7478 61.3906C49.7478 61.6834 49.7253 61.989 49.6835 62.3107C49.6449 62.6324 49.5371 62.9444 49.3618 63.2436C49.1897 63.5444 48.9146 63.8146 48.5382 64.0543C48.1603 64.2955 47.6407 64.4886 46.9812 64.6333C46.325 64.7797 45.4821 64.8521 44.4527 64.8521ZM44.1761 63.1407C45.6559 63.1407 46.4923 62.7675 46.6853 62.0212C46.7368 61.8121 46.7625 61.6013 46.7625 61.3906C46.7625 61.1815 46.7335 60.9724 46.6788 60.7665C46.6274 60.5574 46.5148 60.3676 46.3443 60.2004C46.1722 60.0299 45.9132 59.8948 45.5658 59.795C45.2216 59.6921 44.7583 59.6406 44.1761 59.6406H42.7284V63.1407H44.1761Z" fill="#191919"/>
</g>
</g>
</g>
<g id="Group_38">
<g id="Group_39">
<g id="Group_40">
<path id="Vector_21" d="M53.807 64.8521H50.8989V57.9292H53.807V64.8521Z" fill="#191919"/>
</g>
</g>
</g>
<g id="Group_41">
<g id="Group_42">
<g id="Group_43">
<path id="Vector_22" d="M59.8106 65C58.0992 65 56.8398 64.6493 56.0339 63.9448C55.3166 63.3191 54.9595 62.4683 54.9595 61.3906C54.9595 60.3193 55.3166 59.4701 56.0339 58.8428C56.8398 58.1399 58.0992 57.7876 59.8106 57.7876C61.522 57.7876 62.7799 58.1399 63.5873 58.8428C64.3031 59.4701 64.6618 60.3193 64.6618 61.3906C64.6618 62.4683 64.3031 63.3191 63.5873 63.9448C62.7799 64.6493 61.522 65 59.8106 65ZM59.8106 63.1406C60.5087 63.1406 61.0234 62.9411 61.3548 62.5422C61.6153 62.2173 61.7472 61.8329 61.7472 61.3906C61.7472 60.9499 61.6153 60.567 61.3548 60.2453C61.0234 59.8432 60.5087 59.6406 59.8106 59.6406C59.1061 59.6406 58.5898 59.8432 58.2601 60.2453C57.9979 60.567 57.8676 60.9499 57.8676 61.3906C57.8676 61.8329 57.9979 62.2173 58.2601 62.5422C58.5898 62.9411 59.1061 63.1406 59.8106 63.1406Z" fill="#191919"/>
</g>
</g>
</g>
</g>
</svg>
