<svg width="75" height="65" viewBox="0 0 75 65" fill="none" xmlns="http://www.w3.org/2000/svg">
<g id="Logo">
<g id="Group">
<g id="Group_2">
<g id="Group_3">
<path id="Vector" d="M2.30396 64.9156H0.479248V57.7471H2.30396V64.9156Z" fill="#191919"/>
</g>
</g>
</g>
<g id="Group_4">
<g id="Group_5">
<g id="Group_6">
<path id="Vector_2" d="M12.7065 64.9156H11.0964L7.79967 60.5071V64.9156H6.08997V57.7471H7.7L11.0044 62.1708V57.7471H12.7065V64.9156Z" fill="#191919"/>
</g>
</g>
</g>
<g id="Group_7">
<g id="Group_8">
<g id="Group_9">
<path id="Vector_3" d="M29.0926 64.9156H27.4826L27.4749 60.2618L25.7575 64.2025H24.5692L22.8518 60.2618V64.9156H21.2188V57.7394H23.2198L25.1595 62.0098L27.1069 57.7394H29.0926V64.9156Z" fill="#191919"/>
</g>
</g>
</g>
<g id="Group_10">
<g id="Group_11">
<g id="Group_12">
<path id="Vector_4" d="M36.2922 57.6857C37.4 57.6857 38.3239 58.0345 39.0599 58.7284C39.7998 59.4184 40.1716 60.2828 40.1716 61.3198C40.1716 62.3682 39.7998 63.2441 39.0599 63.9495C38.3181 64.651 37.3924 64.9998 36.2845 64.9998C35.1805 64.9998 34.2605 64.651 33.5244 63.9495C32.7884 63.2499 32.4204 62.3739 32.4204 61.3198C32.4204 60.2771 32.7884 59.4107 33.5244 58.7207C34.2605 58.0307 35.1824 57.6857 36.2922 57.6857ZM36.3075 59.2114C35.7497 59.2114 35.2725 59.4165 34.8738 59.8247C34.479 60.2291 34.2835 60.7332 34.2835 61.3351C34.2835 61.9331 34.4828 62.4391 34.8815 62.8531C35.2801 63.2671 35.7555 63.4741 36.3075 63.4741C36.8595 63.4741 37.3272 63.2671 37.7105 62.8531C38.0977 62.4391 38.2932 61.9331 38.2932 61.3351C38.2932 60.7332 38.0977 60.2291 37.7105 59.8247C37.3272 59.4165 36.8595 59.2114 36.3075 59.2114Z" fill="#191919"/>
</g>
</g>
</g>
<g id="Group_13">
<g id="Group_14">
<g id="Group_15">
<path id="Vector_5" d="M48.9658 59.2114H46.8037V64.9156H44.979V59.2114H42.84V57.7394H48.9658V59.2114Z" fill="#191919"/>
</g>
</g>
</g>
<g id="Group_16">
<g id="Group_17">
<g id="Group_18">
<path id="Vector_6" d="M53.9169 64.9156H52.0922V57.7471H53.9169V64.9156Z" fill="#191919"/>
</g>
</g>
</g>
<g id="Group_19">
<g id="Group_20">
<g id="Group_21">
<path id="Vector_7" d="M61.105 57.6858C62.2129 57.6858 63.1368 58.0346 63.8728 58.7285C64.6126 59.4185 64.9845 60.2829 64.9845 61.3199C64.9845 62.3683 64.6126 63.2443 63.8728 63.9496C63.131 64.6511 62.2052 65 61.0974 65C59.9933 65 59.0733 64.6511 58.3373 63.9496C57.6013 63.25 57.2333 62.3741 57.2333 61.3199C57.2333 60.2772 57.6013 59.4108 58.3373 58.7208C59.0733 58.0308 59.9953 57.6858 61.105 57.6858ZM61.1204 59.2115C60.5626 59.2115 60.0853 59.4166 59.6867 59.8248C59.2918 60.2293 59.0963 60.7334 59.0963 61.3352C59.0963 61.9332 59.2957 62.4392 59.6943 62.8532C60.093 63.2673 60.5684 63.4743 61.1204 63.4743C61.6724 63.4743 62.1401 63.2673 62.5234 62.8532C62.9106 62.4392 63.1061 61.9332 63.1061 61.3352C63.1061 60.7334 62.9106 60.2293 62.5234 59.8248C62.1401 59.4166 61.6724 59.2115 61.1204 59.2115Z" fill="#191919"/>
</g>
</g>
</g>
<g id="Group_22">
<g id="Group_23">
<g id="Group_24">
<path id="Vector_8" d="M74.914 64.9156H73.3039L70.0072 60.5071V64.9156H68.2975V57.7471H69.9075L73.2119 62.1708V57.7471H74.914V64.9156Z" fill="#191919"/>
</g>
</g>
</g>
<g id="Group_25">
<path id="Vector_9" d="M53.1017 45.5908H14.9399V7.39648H53.1017V45.5908ZM15.5495 44.9813H52.4922V8.006H15.5495V44.9813Z" fill="#191919"/>
</g>
<path id="Vector_10" d="M56.5503 41.7306H18.3905V3.53625H56.5503V41.7306ZM18.9981 41.1211H55.9408V4.14577H18.9981V41.1211Z" fill="#191919"/>
<g id="Group_26">
<path id="Vector_11" d="M60.2033 38.1962H22.0435V0H60.2033V38.1962ZM22.653 37.5867H59.5957V0.609515H22.653V37.5867Z" fill="#191919"/>
</g>
<g id="Group_27">
<path id="Vector_12" d="M27.1786 24.8732H35.6179V33.3144H27.1786V24.8732Z" fill="#191919"/>
</g>
</g>
</svg>
