<svg width="75" height="65" viewBox="0 0 75 65" fill="none" xmlns="http://www.w3.org/2000/svg">
<g id="Logo">
<g id="Group">
<g id="Group_2">
<g id="Group_3">
<path id="Vector" d="M2.12928 64.9156H0.304565V57.7471H2.12928V64.9156Z" fill="#191919"/>
</g>
</g>
</g>
<g id="Group_4">
<g id="Group_5">
<g id="Group_6">
<path id="Vector_2" d="M12.5318 64.9156H10.9217L7.62499 60.5071V64.9156H5.91528V57.7471H7.52532L10.8297 62.1708V57.7471H12.5318V64.9156Z" fill="#191919"/>
</g>
</g>
</g>
<g id="Group_7">
<g id="Group_8">
<g id="Group_9">
<path id="Vector_3" d="M28.9179 64.9156H27.3079L27.3002 60.2618L25.5828 64.2025H24.3945L22.6771 60.2618V64.9156H21.0441V57.7394H23.0451L24.9848 62.0098L26.9322 57.7394H28.9179V64.9156Z" fill="#191919"/>
</g>
</g>
</g>
<g id="Group_10">
<g id="Group_11">
<g id="Group_12">
<path id="Vector_4" d="M36.1174 57.6857C37.2253 57.6857 38.1491 58.0345 38.8852 58.7284C39.625 59.4184 39.9969 60.2828 39.9969 61.3198C39.9969 62.3682 39.625 63.2441 38.8852 63.9495C38.1434 64.651 37.2176 64.9998 36.1098 64.9998C35.0057 64.9998 34.0857 64.651 33.3497 63.9495C32.6137 63.2499 32.2457 62.3739 32.2457 61.3198C32.2457 60.2771 32.6137 59.4107 33.3497 58.7207C34.0857 58.0307 35.0076 57.6857 36.1174 57.6857ZM36.1328 59.2114C35.575 59.2114 35.0977 59.4165 34.6991 59.8247C34.3042 60.2291 34.1087 60.7332 34.1087 61.3351C34.1087 61.9331 34.308 62.4391 34.7067 62.8531C35.1054 63.2671 35.5807 63.4741 36.1328 63.4741C36.6848 63.4741 37.1525 63.2671 37.5358 62.8531C37.923 62.4391 38.1185 61.9331 38.1185 61.3351C38.1185 60.7332 37.923 60.2291 37.5358 59.8247C37.1525 59.4165 36.6848 59.2114 36.1328 59.2114Z" fill="#191919"/>
</g>
</g>
</g>
<g id="Group_13">
<g id="Group_14">
<g id="Group_15">
<path id="Vector_5" d="M48.7911 59.2114H46.629V64.9156H44.8043V59.2114H42.6653V57.7394H48.7911V59.2114Z" fill="#191919"/>
</g>
</g>
</g>
<g id="Group_16">
<g id="Group_17">
<g id="Group_18">
<path id="Vector_6" d="M53.7422 64.9156H51.9175V57.7471H53.7422V64.9156Z" fill="#191919"/>
</g>
</g>
</g>
<g id="Group_19">
<g id="Group_20">
<g id="Group_21">
<path id="Vector_7" d="M60.9304 57.6858C62.0382 57.6858 62.9621 58.0346 63.6981 58.7285C64.4379 59.4185 64.8098 60.2829 64.8098 61.3199C64.8098 62.3683 64.4379 63.2443 63.6981 63.9496C62.9563 64.6511 62.0305 65 60.9227 65C59.8187 65 58.8986 64.6511 58.1626 63.9496C57.4266 63.25 57.0586 62.3741 57.0586 61.3199C57.0586 60.2772 57.4266 59.4108 58.1626 58.7208C58.8986 58.0308 59.8206 57.6858 60.9304 57.6858ZM60.9457 59.2115C60.3879 59.2115 59.9107 59.4166 59.512 59.8248C59.1171 60.2293 58.9216 60.7334 58.9216 61.3352C58.9216 61.9332 59.121 62.4392 59.5197 62.8532C59.9183 63.2673 60.3937 63.4743 60.9457 63.4743C61.4977 63.4743 61.9654 63.2673 62.3487 62.8532C62.7359 62.4392 62.9314 61.9332 62.9314 61.3352C62.9314 60.7334 62.7359 60.2293 62.3487 59.8248C61.9654 59.4166 61.4977 59.2115 60.9457 59.2115Z" fill="#191919"/>
</g>
</g>
</g>
<g id="Group_22">
<g id="Group_23">
<g id="Group_24">
<path id="Vector_8" d="M74.7393 64.9156H73.1293L69.8325 60.5071V64.9156H68.1228V57.7471H69.7328L73.0373 62.1708V57.7471H74.7393V64.9156Z" fill="#191919"/>
</g>
</g>
</g>
<g id="Group_25">
<path id="Vector_9" d="M52.9271 45.5908H14.7653V7.39648H52.9271V45.5908ZM15.3748 44.9813H52.3176V8.006H15.3748V44.9813Z" fill="#191919"/>
</g>
<path id="Vector_10" d="M56.3757 41.7306H18.2159V3.53625H56.3757V41.7306ZM18.8235 41.1211H55.7662V4.14577H18.8235V41.1211Z" fill="#191919"/>
<g id="Group_26">
<path id="Vector_11" d="M60.0286 38.1962H21.8688V0H60.0286V38.1962ZM22.4783 37.5867H59.421V0.609515H22.4783V37.5867Z" fill="#191919"/>
</g>
<g id="Group_27">
<path id="Vector_12" d="M27.0039 24.8732H35.4432V33.3144H27.0039V24.8732Z" fill="#191919"/>
</g>
</g>
</svg>
