<svg width="65" height="65" viewBox="0 0 65 65" fill="none" xmlns="http://www.w3.org/2000/svg">
<g id="Logo">
<g id="Group">
<path id="Vector" d="M32.4996 65C23.8226 65 15.6522 61.6221 9.52143 55.4786C3.3771 49.3469 0 41.1765 0 32.4996C0 23.8226 3.3771 15.6522 9.52143 9.52143C15.6522 3.3771 23.8226 0 32.4996 0C41.1765 0 49.347 3.3771 55.4777 9.52143C61.6221 15.6649 64.9992 23.8226 64.9992 32.4996C64.9992 41.1765 61.6221 49.3469 55.4777 55.4786C49.347 61.6221 41.1765 65 32.4996 65ZM32.4996 1.94816C24.3419 1.94816 16.6653 5.13044 10.8979 10.8978C5.13044 16.6653 1.94816 24.3427 1.94816 32.4996C1.94816 40.6573 5.13044 48.3339 10.8979 54.1013C16.6653 59.8687 24.3419 63.051 32.4996 63.051C40.6573 63.051 48.3339 59.8687 54.1013 54.1013C59.8687 48.3339 63.051 40.6573 63.051 32.4996C63.051 24.3427 59.8687 16.6653 54.1013 10.8978C48.3339 5.13044 40.6573 1.94816 32.4996 1.94816Z" fill="#191919"/>
</g>
<path id="Vector_2" d="M39.1466 18.4153C39.0153 18.2933 38.8103 18.3009 38.6883 18.4322L36.0558 21.274L35.8754 21.108L38.5088 18.2662C38.6307 18.1349 38.6231 17.9299 38.4918 17.808C38.3605 17.686 38.1556 17.6936 38.0327 17.8249L35.4002 20.6675L35.2206 20.5007L37.854 17.6589C37.9751 17.5276 37.9675 17.3226 37.8362 17.2006C37.7058 17.0795 37.5 17.0871 37.378 17.2184L34.7454 20.0602L34.5659 19.8933L37.1984 17.0524C37.3204 16.9203 37.3128 16.7153 37.1815 16.5933C37.0502 16.4722 36.8452 16.4798 36.7232 16.6111L34.0907 19.4529L34.089 19.452L34.0068 19.5376C33.934 19.6172 33.8679 19.6968 33.8086 19.7781L33.8061 19.7807C33.5833 20.0831 33.4563 20.3982 33.4571 20.7658C33.458 21.1529 33.5935 21.5179 33.8408 21.8186C33.6748 21.9948 32.9336 22.7173 32.0409 23.5838C30.9736 22.4497 30.0309 21.4426 29.8411 21.2215C30.1173 20.9157 30.2799 20.5345 30.2994 20.1254C30.318 19.7349 30.1986 19.3953 29.9784 19.065H29.9792L29.975 19.0607C29.9165 18.9718 29.8505 18.8845 29.7776 18.7964L29.6946 18.7024L29.6929 18.7033L29.3702 18.3662C27.5914 16.8127 26.7071 16.678 26.1896 17.1219C25.5831 17.6411 25.3773 18.544 26.7376 20.6277L27.0366 21.0267L27.0375 21.0275L27.0697 21.0665C27.4339 21.5078 27.7846 21.7576 28.2894 21.8212C28.6731 21.8686 29.0526 21.7864 29.388 21.5908C29.5769 21.8203 30.4358 22.946 31.3954 24.2089C30.0758 25.4871 28.6494 26.8644 28.2792 27.232C28.0192 27.4802 27.876 27.6487 27.876 27.6487C27.6236 27.9206 27.6414 28.3475 27.9159 28.6016C28.1903 28.8566 28.6172 28.8413 28.8696 28.5694C28.8696 28.5694 29.0483 28.3806 29.205 28.1967L29.2059 28.1976C29.4363 27.9325 30.7221 26.39 31.9418 24.9281C33.0853 26.4358 34.2203 27.9342 34.4371 28.2069V28.2052C34.5947 28.4077 34.7742 28.6169 34.7742 28.6169C35.0283 28.9184 35.4798 28.9548 35.783 28.699C36.0863 28.4424 36.1261 27.9909 35.872 27.6911C35.872 27.6911 35.7288 27.5047 35.4654 27.2294C35.1164 26.8491 33.8374 25.493 32.583 24.1607C33.4004 23.1849 34.0856 22.37 34.2516 22.1871C34.5582 22.3861 34.9123 22.4802 35.2757 22.4514C35.7542 22.4141 36.0947 22.1947 36.4573 21.7949L36.4895 21.7585L36.4912 21.7576L39.1644 18.8727C39.2855 18.7414 39.2779 18.5364 39.1466 18.4153Z" fill="#191919"/>
<g id="Group_2">
<g id="Group_3">
<g id="Group_4">
<path id="Vector_3" d="M22.8371 32.8087C23.496 32.8087 24.0746 32.973 24.5718 33.3L24.1516 34.1741C23.9213 34.0386 23.6739 33.9285 23.4097 33.8421C23.1454 33.7565 22.9226 33.7133 22.7422 33.7133C22.4186 33.7133 22.2577 33.8209 22.2577 34.0352C22.2577 34.1733 22.3365 34.2842 22.4949 34.3672C22.655 34.4511 22.8489 34.5231 23.0776 34.5841C23.308 34.6451 23.5367 34.7188 23.7654 34.8043C23.9933 34.8907 24.1864 35.0305 24.3448 35.2244C24.5049 35.4167 24.5853 35.6598 24.5853 35.9529C24.5853 36.3755 24.4193 36.705 24.0873 36.9422C23.7569 37.1794 23.336 37.298 22.8235 37.298C22.4593 37.298 22.0993 37.2361 21.7427 37.1116C21.3853 36.9854 21.0761 36.8126 20.8144 36.5932L21.248 35.7327C21.4691 35.9249 21.73 36.0833 22.0307 36.207C22.3331 36.3315 22.6016 36.3933 22.8371 36.3933C23.0175 36.3933 23.1572 36.3611 23.2572 36.2951C23.3588 36.2299 23.4097 36.135 23.4097 36.0105C23.4097 35.8885 23.3521 35.7869 23.2369 35.7055C23.1217 35.6225 22.9777 35.5616 22.8066 35.5226C22.6346 35.4819 22.4483 35.4294 22.2475 35.3633C22.0459 35.2956 21.8587 35.2227 21.6851 35.1431C21.5132 35.0618 21.37 34.9348 21.2548 34.7603C21.1396 34.5866 21.082 34.3791 21.082 34.1369C21.082 33.7328 21.2421 33.411 21.5631 33.1712C21.8833 32.9298 22.3085 32.8087 22.8371 32.8087Z" fill="#191919"/>
</g>
</g>
</g>
<g id="Group_5">
<g id="Group_6">
<g id="Group_7">
<path id="Vector_4" d="M29.5955 32.8596V35.4109C29.5955 35.9936 29.4142 36.4569 29.0534 36.8C28.6942 37.1413 28.2064 37.3116 27.5897 37.3116C26.968 37.3116 26.475 37.1413 26.1091 36.8C25.7432 36.4569 25.5602 35.9936 25.5602 35.4109V32.8596H26.6783V35.4109C26.6783 35.7048 26.763 35.9386 26.9324 36.1122C27.1018 36.2867 27.3229 36.3731 27.5965 36.3731C27.865 36.3731 28.0793 36.2875 28.2402 36.1156C28.4029 35.9445 28.4842 35.709 28.4842 35.4109V32.8596H29.5955Z" fill="#191919"/>
</g>
</g>
</g>
<g id="Group_8">
<g id="Group_9">
<g id="Group_10">
<path id="Vector_5" d="M30.8407 32.8595H32.7584C33.3208 32.8595 33.7562 32.9933 34.0662 33.2593C34.3753 33.5261 34.5303 33.9047 34.5303 34.3943C34.5303 34.9093 34.3753 35.3091 34.0662 35.5937C33.7562 35.8783 33.3208 36.0206 32.7584 36.0206H31.9588V37.2606H30.8407V32.8595ZM31.9588 33.7404V35.1431H32.7008C32.9489 35.1431 33.1395 35.0821 33.2734 34.9601C33.4089 34.8382 33.4766 34.662 33.4766 34.4316C33.4766 34.2063 33.4089 34.0343 33.2734 33.9166C33.1395 33.7997 32.9489 33.7404 32.7008 33.7404H31.9588Z" fill="#191919"/>
</g>
</g>
</g>
<g id="Group_11">
<g id="Group_12">
<g id="Group_13">
<path id="Vector_6" d="M39.001 33.7405H36.6734V34.6147H38.774V35.4922H36.6734V36.3799H39.0688V37.2608H35.5553V32.8596H39.001V33.7405Z" fill="#191919"/>
</g>
</g>
</g>
<g id="Group_14">
<g id="Group_15">
<g id="Group_16">
<path id="Vector_7" d="M42.8871 37.2608L42.2332 36.0207H41.3523V37.2608H40.2342V32.8596H42.2027C42.7855 32.8596 43.2361 32.9934 43.5546 33.2594C43.8731 33.5262 44.0323 33.9049 44.0323 34.3944C44.0323 35.0721 43.7655 35.543 43.2327 35.8073L44.1577 37.2608H42.8871ZM41.3523 35.1432H42.2027C42.4441 35.1432 42.6313 35.0822 42.7651 34.9602C42.9007 34.8383 42.9684 34.6621 42.9684 34.4317C42.9684 34.2064 42.9007 34.0344 42.7651 33.9167C42.6313 33.7998 42.4441 33.7405 42.2027 33.7405H41.3523V35.1432Z" fill="#191919"/>
</g>
</g>
</g>
<g id="Group_17">
<g id="Group_18">
<g id="Group_19">
<path id="Vector_8" d="M26.1986 41.0586H24.0539V42.0751H26.0292V42.956H24.0539V44.5789H22.9359V40.1777H26.1986V41.0586Z" fill="#191919"/>
</g>
</g>
</g>
<g id="Group_20">
<g id="Group_21">
<g id="Group_22">
<path id="Vector_9" d="M29.2604 40.1406C29.9448 40.1406 30.5123 40.3532 30.9646 40.7776C31.4186 41.2028 31.6456 41.7347 31.6456 42.3734C31.6456 43.0154 31.4169 43.5516 30.9612 43.9827C30.5072 44.4147 29.9397 44.6299 29.2604 44.6299C28.5802 44.6299 28.0144 44.4156 27.5629 43.9861C27.1106 43.555 26.8853 43.0171 26.8853 42.3734C26.8853 41.7322 27.1106 41.2003 27.5629 40.7776C28.0144 40.3532 28.5802 40.1406 29.2604 40.1406ZM29.2739 41.0757C28.93 41.0757 28.637 41.2011 28.393 41.4518C28.1491 41.7008 28.0271 42.01 28.0271 42.3802C28.0271 42.7486 28.1491 43.0595 28.393 43.3119C28.6387 43.5652 28.9317 43.6914 29.2705 43.6914C29.611 43.6914 29.9007 43.5652 30.1379 43.3119C30.3751 43.0595 30.4936 42.7486 30.4936 42.3802C30.4936 42.01 30.3751 41.7008 30.1379 41.4518C29.9007 41.2011 29.6127 41.0757 29.2739 41.0757Z" fill="#191919"/>
</g>
</g>
</g>
<g id="Group_23">
<g id="Group_24">
<g id="Group_25">
<path id="Vector_10" d="M34.76 40.1405C35.4444 40.1405 36.0119 40.3531 36.4642 40.7775C36.9182 41.2027 37.1452 41.7346 37.1452 42.3733C37.1452 43.0153 36.9165 43.5515 36.4608 43.9826C36.0068 44.4146 35.4393 44.6297 34.76 44.6297C34.0798 44.6297 33.514 44.4154 33.0626 43.986C32.6103 43.5549 32.3849 43.017 32.3849 42.3733C32.3849 41.7321 32.6103 41.2001 33.0626 40.7775C33.514 40.3531 34.0798 40.1405 34.76 40.1405ZM34.7736 41.0756C34.4297 41.0756 34.1366 41.201 33.8927 41.4517C33.6487 41.7007 33.5267 42.0099 33.5267 42.38C33.5267 42.7485 33.6487 43.0594 33.8927 43.3118C34.1383 43.565 34.4314 43.6912 34.7702 43.6912C35.1107 43.6912 35.4004 43.565 35.6375 43.3118C35.8747 43.0594 35.9933 42.7485 35.9933 42.38C35.9933 42.0099 35.8747 41.7007 35.6375 41.4517C35.4004 41.201 35.1124 41.0756 34.7736 41.0756Z" fill="#191919"/>
</g>
</g>
</g>
<g id="Group_26">
<g id="Group_27">
<g id="Group_28">
<path id="Vector_11" d="M38.1747 40.1777H40.0687C40.7598 40.1777 41.3223 40.381 41.7559 40.7876C42.1896 41.1942 42.4065 41.7244 42.4065 42.3766C42.4065 43.0271 42.1862 43.5574 41.7458 43.9656C41.3053 44.3748 40.731 44.5789 40.0246 44.5789H38.1747V40.1777ZM39.2928 41.0688V43.6844H40.0924C40.4354 43.6844 40.7166 43.565 40.936 43.3253C41.1571 43.0839 41.2681 42.7713 41.2681 42.3868C41.2681 42.0005 41.1529 41.6846 40.9225 41.4381C40.6921 41.1925 40.3982 41.0688 40.0416 41.0688H39.2928Z" fill="#191919"/>
</g>
</g>
</g>
<g id="Group_29">
<g id="Group_30">
<g id="Group_31">
<path id="Vector_12" d="M26.6214 48.3447C26.8586 48.3447 27.0704 48.4074 27.2584 48.5311L27.133 48.8021C26.9475 48.6895 26.7688 48.6327 26.5977 48.6327C26.5071 48.6327 26.4351 48.6497 26.3809 48.6835C26.3284 48.7157 26.3029 48.7615 26.3029 48.8224C26.3029 48.8834 26.3267 48.936 26.3741 48.9783C26.4232 49.019 26.4842 49.0495 26.5571 49.0698C26.629 49.0901 26.7078 49.1164 26.7942 49.1477C26.8798 49.1774 26.9585 49.2087 27.0314 49.2426C27.1034 49.2765 27.1635 49.3298 27.211 49.4018C27.2584 49.4747 27.2821 49.5611 27.2821 49.6627C27.2821 49.8236 27.2177 49.9507 27.089 50.0456C26.9619 50.1404 26.7985 50.1879 26.5977 50.1879C26.4571 50.1879 26.3216 50.1624 26.1911 50.1099C26.0624 50.0583 25.9489 49.988 25.8523 49.8999L25.9845 49.6322C26.0768 49.7186 26.1776 49.7847 26.286 49.8321C26.3961 49.8778 26.5011 49.8999 26.6011 49.8999C26.7095 49.8999 26.7925 49.8812 26.8518 49.8423C26.9128 49.8016 26.9433 49.7474 26.9433 49.6796C26.9433 49.617 26.9179 49.5636 26.8688 49.5204C26.8213 49.478 26.7603 49.4476 26.6858 49.4289C26.613 49.4086 26.5342 49.384 26.4486 49.3544C26.3648 49.3256 26.286 49.2951 26.2115 49.2629C26.1386 49.2316 26.0776 49.1807 26.0285 49.1104C25.9811 49.0384 25.9574 48.9512 25.9574 48.8496C25.9574 48.6962 26.0183 48.5743 26.1403 48.4836C26.2623 48.3913 26.4224 48.3447 26.6214 48.3447Z" fill="#191919"/>
</g>
</g>
</g>
<g id="Group_32">
<g id="Group_33">
<g id="Group_34">
<path id="Vector_13" d="M29.1261 48.6326H28.13V49.1238H29.021V49.3983H28.13V49.9031H29.1566V50.1775H27.825V48.3547H29.1261V48.6326Z" fill="#191919"/>
</g>
</g>
</g>
<g id="Group_35">
<g id="Group_36">
<g id="Group_37">
<path id="Vector_14" d="M30.0179 50.1775H29.713V48.3547H30.0179V50.1775Z" fill="#191919"/>
</g>
</g>
</g>
<g id="Group_38">
<g id="Group_39">
<g id="Group_40">
<path id="Vector_15" d="M31.926 48.6326H31.3467V50.1775H31.0417V48.6326H30.4658V48.3547H31.926V48.6326Z" fill="#191919"/>
</g>
</g>
</g>
<g id="Group_41">
<g id="Group_42">
<g id="Group_43">
<path id="Vector_16" d="M33.6813 50.1775H33.373V48.6292H33.0172V48.3547H33.6813V50.1775Z" fill="#191919"/>
</g>
</g>
</g>
<g id="Group_44">
<g id="Group_45">
<g id="Group_46">
<path id="Vector_17" d="M34.8766 50.1912C34.6776 50.1912 34.4972 50.1455 34.3345 50.0523L34.4531 49.8219C34.57 49.899 34.7047 49.9371 34.8563 49.9371C35.0274 49.9371 35.1562 49.8787 35.2426 49.761C35.3281 49.6415 35.3688 49.4797 35.3645 49.2765C35.2671 49.4484 35.1011 49.534 34.8665 49.534C34.6835 49.534 34.5395 49.4823 34.4362 49.3781C34.332 49.2722 34.2803 49.1308 34.2803 48.9546C34.2803 48.7674 34.3379 48.6192 34.4531 48.5107C34.57 48.4006 34.7259 48.3447 34.9207 48.3447C35.1511 48.3447 35.3315 48.4227 35.4628 48.5785C35.5958 48.7344 35.6627 48.9512 35.6627 49.229C35.6627 49.5204 35.5915 49.7542 35.4492 49.9304C35.3069 50.1048 35.1155 50.1912 34.8766 50.1912ZM34.9241 49.2934C35.0435 49.2934 35.1384 49.2612 35.2087 49.1951C35.2807 49.1274 35.3154 49.0452 35.3137 48.9478C35.3154 48.8597 35.2841 48.7818 35.2188 48.714C35.1528 48.6446 35.0596 48.609 34.9376 48.609C34.8241 48.609 34.7343 48.6395 34.6666 48.7005C34.6005 48.7615 34.5683 48.8479 34.5683 48.958C34.5683 49.0622 34.5997 49.1443 34.6632 49.2053C34.7259 49.2646 34.8131 49.2934 34.9241 49.2934Z" fill="#191919"/>
</g>
</g>
</g>
<g id="Group_47">
<g id="Group_48">
<g id="Group_49">
<path id="Vector_18" d="M36.6599 50.1912C36.4609 50.1912 36.2804 50.1455 36.1178 50.0523L36.2364 49.8219C36.3533 49.899 36.488 49.9371 36.6396 49.9371C36.8107 49.9371 36.9394 49.8787 37.0258 49.761C37.1114 49.6415 37.152 49.4797 37.1478 49.2765C37.0504 49.4484 36.8844 49.534 36.6497 49.534C36.4668 49.534 36.3228 49.4823 36.2195 49.3781C36.1153 49.2722 36.0636 49.1308 36.0636 48.9546C36.0636 48.7674 36.1212 48.6192 36.2364 48.5107C36.3533 48.4006 36.5091 48.3447 36.704 48.3447C36.9343 48.3447 37.1148 48.4227 37.246 48.5785C37.379 48.7344 37.4459 48.9512 37.4459 49.229C37.4459 49.5204 37.3748 49.7542 37.2325 49.9304C37.0902 50.1048 36.8988 50.1912 36.6599 50.1912ZM36.7073 49.2934C36.8268 49.2934 36.9216 49.2612 36.9919 49.1951C37.0639 49.1274 37.0987 49.0452 37.097 48.9478C37.0987 48.8597 37.0673 48.7818 37.0021 48.714C36.936 48.6446 36.8429 48.609 36.7209 48.609C36.6074 48.609 36.5176 48.6395 36.4498 48.7005C36.3838 48.7615 36.3516 48.8479 36.3516 48.958C36.3516 49.0622 36.3829 49.1443 36.4465 49.2053C36.5091 49.2646 36.5964 49.2934 36.7073 49.2934Z" fill="#191919"/>
</g>
</g>
</g>
<g id="Group_50">
<g id="Group_51">
<g id="Group_52">
<path id="Vector_19" d="M38.4867 48.3447C38.6603 48.3447 38.8001 48.3871 38.9068 48.4701C39.0127 48.5514 39.066 48.6624 39.066 48.8021C39.066 48.9605 38.9551 49.1596 38.734 49.3984L38.2597 49.9033H39.1507V50.1777H37.8565V49.9541L38.5273 49.2324C38.6739 49.0816 38.7476 48.9529 38.7476 48.8462C38.7476 48.7742 38.7205 48.7174 38.6662 48.6768C38.612 48.6344 38.5375 48.6124 38.4426 48.6124C38.2775 48.6124 38.1114 48.6886 37.9446 48.8394L37.8226 48.6022C38.0369 48.4311 38.258 48.3447 38.4867 48.3447Z" fill="#191919"/>
</g>
</g>
</g>
</g>
</svg>
