<svg width="123" height="35" viewBox="0 0 123 35" fill="none" xmlns="http://www.w3.org/2000/svg">
<g id="Logo">
<g id="Group">
<path id="Vector (Stroke)" fill-rule="evenodd" clip-rule="evenodd" d="M0.15271 0H123V35H0.15271V0ZM1.81938 1.66667V33.3333H121.333V1.66667H1.81938Z" fill="#191919"/>
</g>
<g id="Group_2">
<path id="Vector" d="M4.26099 3.96912H61.5509V31.0525H4.26099V3.96912Z" fill="#191919"/>
</g>
<g id="Group_3">
<g id="Group_4">
<g id="Group_5">
<path id="Vector_2" d="M11.5154 22.085H12.5824L16.1975 12.983H14.9877L13.4668 16.8188L12.0489 20.4338L10.6185 16.8188L9.11021 12.983H7.8877L11.5154 22.085Z" fill="#FDFBF5"/>
</g>
</g>
</g>
<g id="Group_6">
<g id="Group_7">
<g id="Group_8">
<path id="Vector_3" d="M18.7294 22.085H19.8741V12.983H18.7294V22.085Z" fill="#FDFBF5"/>
</g>
</g>
</g>
<g id="Group_9">
<g id="Group_10">
<g id="Group_11">
<path id="Vector_4" d="M26.5445 22.2532C28.5338 22.2532 29.8214 21.2785 29.8214 19.6925C29.8214 18.3524 28.9244 17.5476 26.597 16.9744C24.8283 16.5458 24.2424 16.0774 24.2424 15.3232C24.2424 14.4516 25.0236 13.9054 26.3239 13.9054C27.6621 13.9054 28.494 14.5818 28.5212 15.6741H29.6514C29.6388 13.9054 28.3638 12.8131 26.3239 12.8131C24.3328 12.8131 23.0723 13.7897 23.0723 15.3232C23.0723 16.7284 24.0742 17.5078 26.3094 18.0413C27.9479 18.4302 28.6369 18.8859 28.6369 19.7322C28.6369 20.6292 27.8321 21.1609 26.5445 21.1609C25.1267 21.1609 24.1393 20.4592 24.1122 19.2892H22.9674C22.9819 21.0705 24.3726 22.2532 26.5445 22.2532Z" fill="#FDFBF5"/>
</g>
</g>
</g>
<g id="Group_12">
<g id="Group_13">
<g id="Group_14">
<path id="Vector_5" d="M32.9124 22.085H34.0571V12.983H32.9124V22.085Z" fill="#FDFBF5"/>
</g>
</g>
</g>
<g id="Group_15">
<g id="Group_16">
<g id="Group_17">
<path id="Vector_6" d="M41.8322 22.2532C44.6027 22.2532 46.5522 20.3037 46.5522 17.5332C46.5522 14.7644 44.6027 12.8131 41.8322 12.8131C39.0616 12.8131 37.1248 14.7644 37.1248 17.5332C37.1248 20.3037 39.0616 22.2532 41.8322 22.2532ZM38.2948 17.5332C38.2948 15.4137 39.738 13.9579 41.8322 13.9579C43.9263 13.9579 45.3695 15.4137 45.3695 17.5332C45.3695 19.6527 43.9263 21.1103 41.8322 21.1103C39.738 21.1103 38.2948 19.6527 38.2948 17.5332Z" fill="#FDFBF5"/>
</g>
</g>
</g>
<g id="Group_18">
<g id="Group_19">
<g id="Group_20">
<path id="Vector_7" d="M49.604 22.085H50.7361V14.9597L55.769 22.085H56.8342V12.983H55.7166V20.1083L50.6836 12.983H49.604V22.085Z" fill="#FDFBF5"/>
</g>
</g>
</g>
<g id="Group_21">
<g id="Group_22">
<g id="Group_23">
<path id="Vector_8" d="M69.9277 22.0031C72.1901 22.0031 73.5283 20.9361 73.5283 19.1421C73.5283 17.6338 72.5536 16.7495 70.3437 16.2558C69.1736 15.9954 68.745 15.7096 68.745 15.2413C68.745 14.7982 69.1338 14.5251 69.7451 14.5251C70.4739 14.5251 70.8898 14.9031 70.8898 15.5921H73.3602C73.3602 13.7204 71.9297 12.5105 69.6926 12.5105C67.5478 12.5105 66.2222 13.5775 66.2222 15.2937C66.2222 16.8273 67.2223 17.7767 69.2767 18.1673C70.3816 18.388 70.9151 18.7261 70.9151 19.247C70.9151 19.7009 70.5263 19.9613 69.8879 19.9613C69.1338 19.9613 68.6926 19.558 68.6926 18.8563H66.1571C66.1571 20.8203 67.5605 22.0031 69.9277 22.0031Z" fill="#191919"/>
</g>
</g>
</g>
<g id="Group_24">
<g id="Group_25">
<g id="Group_26">
<path id="Vector_9" d="M77.1438 21.8077H79.757V15.1364H82.5276V12.7058H74.3733V15.1364H77.1438V21.8077Z" fill="#191919"/>
</g>
</g>
</g>
<g id="Group_27">
<g id="Group_28">
<g id="Group_29">
<path id="Vector_10" d="M87.766 22.0031C90.2237 22.0031 91.7464 20.5075 91.7464 18.0624V12.7058H89.1314V17.8943C89.1314 18.9739 88.6775 19.5454 87.766 19.5454C86.8564 19.5454 86.4006 18.9739 86.4006 17.8943V12.7058H83.7748V18.0624C83.7748 20.5075 85.3083 22.0031 87.766 22.0031Z" fill="#191919"/>
</g>
</g>
</g>
<g id="Group_30">
<g id="Group_31">
<g id="Group_32">
<path id="Vector_11" d="M93.6042 21.8077H97.4671C100.406 21.8077 102.355 20.0011 102.355 17.2559C102.355 14.5251 100.406 12.7058 97.4671 12.7058H93.6042V21.8077ZM96.2301 19.4549V15.0586H97.3875C98.78 15.0586 99.677 15.9176 99.677 17.2559C99.677 18.5959 98.78 19.4549 97.3875 19.4549H96.2301Z" fill="#191919"/>
</g>
</g>
</g>
<g id="Group_33">
<g id="Group_34">
<g id="Group_35">
<path id="Vector_12" d="M103.759 21.8077H106.385V12.7058H103.759V21.8077Z" fill="#191919"/>
</g>
</g>
</g>
<g id="Group_36">
<g id="Group_37">
<g id="Group_38">
<path id="Vector_13" d="M112.744 22.0031C115.643 22.0031 117.698 20.0391 117.698 17.2559C117.698 14.4745 115.643 12.5105 112.744 12.5105C109.845 12.5105 107.789 14.4745 107.789 17.2559C107.789 20.0391 109.845 22.0031 112.744 22.0031ZM110.455 17.2559C110.455 15.8905 111.404 14.9429 112.744 14.9429C114.097 14.9429 115.032 15.8905 115.032 17.2559C115.032 18.6212 114.097 19.5707 112.744 19.5707C111.404 19.5707 110.455 18.6212 110.455 17.2559Z" fill="#191919"/>
</g>
</g>
</g>
</g>
</svg>
