<svg width="61" height="17" viewBox="0 0 61 17" fill="none" xmlns="http://www.w3.org/2000/svg">
<g id="sk&#195;&#184;ld.">
<path d="M4.992 16.4893C3.61956 16.4893 2.49244 16.1907 1.61067 15.5933C0.736 14.9889 0.199111 14.1462 0 13.0653L1.94133 12.756C2.09778 13.3818 2.45689 13.8796 3.01867 14.2493C3.58044 14.612 4.27733 14.7933 5.10933 14.7933C5.89867 14.7933 6.51733 14.6298 6.96533 14.3027C7.41333 13.9756 7.63733 13.5311 7.63733 12.9693C7.63733 12.6422 7.56267 12.3791 7.41333 12.18C7.264 11.9738 6.95467 11.7818 6.48533 11.604C6.02311 11.4262 5.32267 11.2129 4.384 10.964C3.36711 10.6938 2.56711 10.4129 1.984 10.1213C1.40089 9.82978 0.984889 9.492 0.736 9.108C0.487111 8.724 0.362667 8.25822 0.362667 7.71067C0.362667 7.03511 0.547556 6.44489 0.917333 5.94C1.28711 5.428 1.80267 5.03333 2.464 4.756C3.13244 4.47867 3.90756 4.34 4.78933 4.34C5.664 4.34 6.44622 4.47867 7.136 4.756C7.82578 5.03333 8.38044 5.428 8.8 5.94C9.22667 6.44489 9.47911 7.03511 9.55733 7.71067L7.616 8.06267C7.52356 7.444 7.22489 6.95689 6.72 6.60133C6.22222 6.24578 5.57867 6.05733 4.78933 6.036C4.04267 6.00756 3.43467 6.13911 2.96533 6.43067C2.50311 6.72222 2.272 7.11689 2.272 7.61467C2.272 7.892 2.35733 8.13022 2.528 8.32933C2.70578 8.52844 3.02933 8.71689 3.49867 8.89467C3.97511 9.07244 4.66489 9.27511 5.568 9.50267C6.58489 9.75867 7.38489 10.0396 7.968 10.3453C8.55822 10.644 8.97778 10.9996 9.22667 11.412C9.47556 11.8173 9.6 12.3187 9.6 12.916C9.6 14.0253 9.19111 14.9 8.37333 15.54C7.55556 16.1729 6.42844 16.4893 4.992 16.4893Z" fill="#242424"/>
<path d="M12.8307 16.18L12.8414 0.82H14.7614V10.2067L19.5934 4.66H22.0574L16.9694 10.42L22.6547 16.18H19.9987L14.7614 10.6333V16.18H12.8307Z" fill="#242424"/>
<path d="M24.6529 16.34L23.3729 15.06L25.2183 13.2147L25.7729 12.884L32.1089 6.56933L32.3543 6.1L33.9649 4.5L35.2449 5.78L33.4636 7.54L32.9943 7.796L26.7863 14.004L26.4023 14.5907L24.6529 16.34ZM29.3036 16.5C28.1587 16.5 27.1703 16.2404 26.3383 15.7213C25.5134 15.2022 24.8769 14.484 24.4289 13.5667C23.9809 12.6493 23.7569 11.5969 23.7569 10.4093C23.7569 9.20044 23.9845 8.14089 24.4396 7.23067C24.8947 6.32044 25.5383 5.61289 26.3703 5.108C27.2023 4.596 28.1801 4.34 29.3036 4.34C30.4556 4.34 31.4476 4.59956 32.2796 5.11867C33.1116 5.63067 33.7481 6.34533 34.1889 7.26267C34.6369 8.17289 34.8609 9.22178 34.8609 10.4093C34.8609 11.6111 34.6369 12.6707 34.1889 13.588C33.7409 14.4982 33.1009 15.2129 32.2689 15.732C31.4369 16.244 30.4485 16.5 29.3036 16.5ZM29.3036 14.6973C30.4983 14.6973 31.3872 14.2991 31.9703 13.5027C32.5534 12.7062 32.8449 11.6751 32.8449 10.4093C32.8449 9.108 32.5498 8.07333 31.9596 7.30533C31.3694 6.53022 30.4841 6.14267 29.3036 6.14267C28.5001 6.14267 27.8387 6.324 27.3196 6.68667C26.8005 7.04933 26.4129 7.55067 26.1569 8.19067C25.9009 8.83067 25.7729 9.57022 25.7729 10.4093C25.7729 11.7036 26.0716 12.7418 26.6689 13.524C27.2663 14.3062 28.1445 14.6973 29.3036 14.6973Z" fill="#242424"/>
<path d="M38.3117 16.18V0.5H40.2103V16.18H38.3117Z" fill="#242424"/>
<path d="M48.8224 16.5C47.7486 16.5 46.8277 16.2333 46.0597 15.7C45.2917 15.1596 44.6979 14.4307 44.2784 13.5133C43.8659 12.596 43.6597 11.5613 43.6597 10.4093C43.6597 9.25733 43.8659 8.22267 44.2784 7.30533C44.6979 6.388 45.2917 5.66622 46.0597 5.14C46.8277 4.60667 47.7451 4.34 48.8117 4.34C49.8997 4.34 50.8135 4.60311 51.5531 5.12933C52.2926 5.65556 52.8508 6.37733 53.2277 7.29467C53.6117 8.212 53.8037 9.25022 53.8037 10.4093C53.8037 11.5542 53.6117 12.5889 53.2277 13.5133C52.8508 14.4307 52.2926 15.1596 51.5531 15.7C50.8135 16.2333 49.9033 16.5 48.8224 16.5ZM49.0571 14.7613C49.8322 14.7613 50.4686 14.5764 50.9664 14.2067C51.4642 13.8298 51.8304 13.3142 52.0651 12.66C52.3068 11.9987 52.4277 11.2484 52.4277 10.4093C52.4277 9.556 52.3068 8.80578 52.0651 8.15867C51.8304 7.50444 51.4677 6.996 50.9771 6.63333C50.4864 6.26356 49.8642 6.07867 49.1104 6.07867C48.3282 6.07867 47.6811 6.27067 47.1691 6.65467C46.6642 7.03867 46.2873 7.55778 46.0384 8.212C45.7966 8.86622 45.6757 9.59867 45.6757 10.4093C45.6757 11.2271 45.8002 11.9667 46.0491 12.628C46.2979 13.2822 46.6713 13.8013 47.1691 14.1853C47.6739 14.5693 48.3033 14.7613 49.0571 14.7613ZM52.4277 16.18V7.7H52.2144V0.82H54.1237V16.18H52.4277Z" fill="#242424"/>
<path d="M58.3424 16.18V14.0893H60.4331V16.18H58.3424Z" fill="#242424"/>
</g>
</svg>
