<svg width="61" height="63" viewBox="0 0 61 63" fill="none" xmlns="http://www.w3.org/2000/svg">
<path id="Vector" d="M60.5 32.3317C60.5 48.8744 47.0419 62.3325 30.5008 62.3325C13.9598 62.3325 0.5 48.8744 0.5 32.3317C0.5 32.2438 0.530927 32.169 0.592781 32.1055C0.656263 32.0436 0.731138 32.0127 0.819036 32.0127H60.1793C60.2672 32.0127 60.3437 32.0436 60.4056 32.1055C60.4691 32.169 60.5 32.2438 60.5 32.3317ZM0.5 30.0008C0.5 13.4581 13.9581 0 30.4992 0C47.0402 0 60.5 13.4581 60.5 30.0008C60.5 30.0887 60.4691 30.1636 60.4056 30.2271C60.3437 30.2889 60.2672 30.3198 60.1793 30.3198H0.819036C0.731138 30.3198 0.656263 30.2889 0.592781 30.2271C0.530927 30.1636 0.5 30.0887 0.5 30.0008ZM58.0307 29.6801H59.8587C59.8245 26.2798 59.2157 22.9853 58.0307 19.7965V29.6801ZM52.5925 29.6801H57.391V18.2193C56.1767 15.4602 54.5783 12.9454 52.5925 10.678V29.6801ZM47.1526 29.6801H51.9528V9.97314C50.5008 8.41865 48.9024 7.03833 47.1526 5.82892V29.6801ZM41.7143 29.6801H46.5129V5.39757C44.9926 4.40465 43.3925 3.55986 41.7143 2.86319V29.6801ZM36.276 29.6801H41.0746V2.60601C39.5152 2.00212 37.9152 1.53658 36.276 1.20941V29.6801ZM30.8361 29.6801H35.6347V1.08733C34.0477 0.807357 32.4476 0.659233 30.8361 0.644584V29.6801ZM1.1397 29.6801H30.1785V0.6397C14.2446 0.815496 1.31224 13.7446 1.1397 29.6801Z" fill="#111111"/>
</svg>
