<svg width="61" height="79" viewBox="0 0 61 79" fill="none" xmlns="http://www.w3.org/2000/svg">
<path id="Vector" d="M60.4837 39.2749C60.4857 39.2688 60.4857 39.2627 60.4837 39.2565C60.4939 39.2239 60.498 39.1932 60.5 39.1585C60.498 39.1258 60.4939 39.0952 60.4837 39.0625C60.4857 39.0564 60.4857 39.0503 60.4837 39.0441C60.4734 39.0135 60.4592 38.9849 60.4408 38.9583L30.7717 0.124592L30.7614 0.114379C30.7492 0.100082 30.7349 0.0857842 30.7206 0.0755719C30.6573 0.0245094 30.5878 0 30.5082 0C30.4285 0 30.357 0.0245094 30.2958 0.0755719C30.2815 0.0857842 30.2672 0.100082 30.2549 0.114379L30.2426 0.124592L0.569444 38.9522C0.549019 38.9788 0.534722 39.0074 0.52451 39.038C0.52451 39.0441 0.52451 39.0503 0.52451 39.0564C0.51634 39.087 0.510212 39.1197 0.510212 39.1524H0.5C0.5 39.1851 0.506127 39.2177 0.514297 39.2504C0.514297 39.2565 0.514297 39.2627 0.514297 39.2688C0.52451 39.2994 0.538807 39.328 0.559232 39.3525L30.2202 78.1802C30.2243 78.1842 30.2263 78.1883 30.2324 78.1924L30.2631 78.2251L30.2855 78.2435C30.2978 78.2537 30.3101 78.2619 30.3243 78.268L30.3468 78.2802L30.3958 78.2986H30.4163C30.4653 78.3109 30.5143 78.3109 30.5613 78.2986H30.5817L30.6307 78.2802L30.6532 78.268C30.6675 78.2619 30.6797 78.2537 30.692 78.2435L30.7145 78.2251L30.7471 78.1924C30.7512 78.1883 30.7553 78.1842 30.7594 78.1802L60.4203 39.3525C60.4449 39.3301 60.4673 39.3056 60.4837 39.2749ZM30.8391 30.9702H53.4841L56.7459 35.2369H30.8391V30.9702ZM30.8391 30.29V26.0233H49.7034L52.9632 30.29H30.8391ZM30.8391 25.3431V21.0723H45.9228L49.1846 25.3411L30.8391 25.3431ZM30.8391 20.3922V16.1275H42.1381L45.402 20.3922H30.8391ZM30.8391 15.4453V11.1785H38.3595L41.6193 15.4473L30.8391 15.4453ZM30.8391 10.4963V6.22958H34.5768L37.8427 10.4984L30.8391 10.4963ZM30.8391 5.54739V1.33578L34.058 5.54943L30.8391 5.54739ZM30.1609 38.8195H1.52533L30.1609 1.33578V38.8195ZM30.8391 39.4996H59.4828L30.8391 76.9833V39.4996ZM30.8391 38.8195V35.9171H57.2647L59.4828 38.8195H30.8391Z" fill="#111111"/>
</svg>
