<svg width="61" height="52" viewBox="0 0 61 52" fill="none" xmlns="http://www.w3.org/2000/svg">
<g id="Vector">
<g id="Group">
<path id="Vector_2" d="M60.4922 26.0211V26.0055C60.4969 25.9852 60.5 25.9648 60.5 25.943C60.5 25.9227 60.4969 25.9023 60.4922 25.882C60.4922 25.882 60.4922 25.8711 60.4922 25.8664C60.4875 25.8508 60.4813 25.8367 60.475 25.8227C60.475 25.8195 60.475 25.8148 60.475 25.8117L45.5984 0.121094V0.113281C45.5906 0.0992186 45.5797 0.0867186 45.5688 0.0757814C45.5656 0.0710938 45.5625 0.0664062 45.5578 0.0632814C45.5422 0.0492186 45.525 0.0351562 45.5078 0.0257814C45.4859 0.0148438 45.4641 0.0070315 45.4406 0.0023439C45.4359 0.0007815 45.4313 0.0007815 45.425 0.0023439C45.4094 -0.0007813 45.3937 -0.0007813 45.3781 0.0023439H15.6172C15.6 -0.0007813 15.5844 -0.0007813 15.5688 0.0023439C15.5641 0.0007815 15.5578 0.0007815 15.5531 0.0023439C15.5328 0.0070315 15.5141 0.0148438 15.4953 0.0257814C15.4766 0.0351562 15.4609 0.0492186 15.4453 0.0632814C15.4406 0.067969 15.4375 0.0710938 15.4328 0.0757814C15.4219 0.0867186 15.4125 0.100781 15.4047 0.113281V0.121094L0.526563 25.8117C0.526563 25.8148 0.526563 25.8195 0.526563 25.8227C0.51875 25.8367 0.5125 25.8508 0.509375 25.8664C0.509375 25.8664 0.509375 25.8758 0.509375 25.882C0.503125 25.9023 0.5 25.9227 0.5 25.943C0.5 25.9648 0.503125 25.9852 0.509375 26.0055V26.0211C0.5125 26.0367 0.51875 26.0523 0.526563 26.0664C0.526563 26.0664 0.526563 26.0727 0.526563 26.0758L15.3969 51.7664V51.7758C15.4062 51.7883 15.4156 51.8008 15.4266 51.8133L15.4391 51.8258C15.4531 51.8398 15.4703 51.8523 15.4891 51.8633C15.5078 51.8727 15.5266 51.8805 15.5469 51.8867C15.5703 51.893 15.5922 51.8961 15.6156 51.8961H45.3625C45.3859 51.8961 45.4078 51.893 45.4313 51.8867C45.4516 51.8805 45.4703 51.8727 45.4891 51.8633C45.5078 51.8523 45.5234 51.8398 45.5391 51.8258L45.55 51.8133C45.5609 51.8008 45.5703 51.7883 45.5797 51.7758V51.7664L60.4703 26.0758C60.4703 26.0758 60.4703 26.0695 60.4703 26.0664C60.4797 26.0523 60.4859 26.0367 60.4922 26.0211ZM45.3703 51.1086L30.9594 26.207H59.7797L45.3703 51.1086ZM15.6281 0.780469L30.0375 25.6805H1.21406L15.6281 0.780469ZM30.5016 25.4164L16.0922 0.517969H44.9125L30.5016 25.4164ZM30.5016 26.4711L44.9125 51.3711H16.0922L30.5016 26.4711ZM30.9609 25.6805L31.7375 24.3383C31.7406 24.3539 31.7437 24.3695 31.75 24.3852C31.7828 24.4617 31.8422 24.5008 31.9266 24.5008C32.0094 24.5008 32.0688 24.4617 32.1016 24.3852C32.1109 24.3617 32.1156 24.3367 32.1156 24.3117C32.1156 24.2727 32.1047 24.2383 32.0828 24.2055C32.0453 24.1492 31.9937 24.1211 31.9266 24.1211C31.9 24.1211 31.8766 24.1273 31.8531 24.1367L33.8359 20.7086C33.8453 20.7102 33.8531 20.7102 33.8625 20.7086C33.9062 20.6992 33.9437 20.6773 33.9719 20.643C34 20.6086 34.0141 20.568 34.0141 20.5227C34.0141 20.4945 34.0063 20.4664 33.9938 20.4414L36.5953 15.9461C36.6219 15.9586 36.65 15.9648 36.6797 15.9664C36.7328 15.9664 36.7781 15.9477 36.8141 15.9102C36.8516 15.8727 36.8703 15.8289 36.8703 15.7758C36.8703 15.7086 36.8422 15.6555 36.7859 15.618L39.3797 11.1352C39.4172 11.1898 39.4688 11.2164 39.5359 11.2164C39.5859 11.2148 39.6281 11.1961 39.6625 11.1617C39.6984 11.1258 39.7172 11.0836 39.7188 11.0336C39.7203 10.9836 39.7062 10.9398 39.6734 10.9023C39.6406 10.8648 39.6 10.843 39.55 10.8383L41.5563 7.37422C41.5953 7.34297 41.6188 7.30234 41.625 7.25078L42.2047 6.25234C42.2047 6.26016 42.2047 6.26797 42.2047 6.27578C42.2047 6.32734 42.2234 6.37266 42.2609 6.41016C42.2984 6.44609 42.3422 6.46484 42.3953 6.46484C42.4484 6.46484 42.4922 6.44609 42.5297 6.41016C42.5672 6.37266 42.5859 6.32734 42.5859 6.27578C42.5859 6.22266 42.5672 6.17891 42.5297 6.14141C42.4922 6.10391 42.4484 6.08516 42.3953 6.08516C42.3531 6.08516 42.3156 6.09766 42.2812 6.12422L44.2828 2.66641H44.2984C44.3781 2.66641 44.4344 2.63203 44.4703 2.56172C44.5047 2.49297 44.4984 2.42578 44.4516 2.36328L45.3703 0.780469L46.2438 2.29141C46.2297 2.28984 46.2141 2.28984 46.2 2.29141C46.1516 2.28984 46.1078 2.30703 46.0719 2.33984C46.0344 2.37266 46.0141 2.41328 46.0094 2.46172C46.0047 2.51016 46.0156 2.55391 46.0453 2.59453C46.075 2.63359 46.1141 2.65703 46.1625 2.66641C46.2109 2.67578 46.2563 2.66797 46.2984 2.64297C46.3391 2.61641 46.3672 2.58047 46.3813 2.53359L48.9953 7.04766H48.9813C48.9047 7.08203 48.8656 7.13984 48.8656 7.22422C48.8656 7.30703 48.9047 7.36641 48.9813 7.39922C49.0047 7.40859 49.0297 7.41328 49.0563 7.41328C49.0938 7.41328 49.1297 7.40234 49.1609 7.38203C49.1688 7.38203 49.175 7.36953 49.1813 7.36484L51.7719 11.8477C51.7156 11.9086 51.7047 11.9773 51.7375 12.0523C51.7703 12.1289 51.8281 12.1664 51.9109 12.1664C51.925 12.1695 51.9391 12.1695 51.9531 12.1664L54.5812 16.7039C54.5719 16.7383 54.575 16.7711 54.5906 16.8039C54.6125 16.8508 54.6469 16.8836 54.6953 16.9039L56.6781 20.3398H56.6656C56.6391 20.3398 56.6156 20.3445 56.5906 20.3555C56.5141 20.3883 56.475 20.4461 56.475 20.5305C56.475 20.6133 56.5141 20.6727 56.5906 20.7055C56.6156 20.7148 56.6391 20.7195 56.6656 20.7195C56.7031 20.7195 56.7391 20.7086 56.7719 20.6883C56.8 20.668 56.8219 20.643 56.8359 20.6133L59.4375 25.107C59.3469 25.1508 59.3125 25.2227 59.3344 25.3211C59.3578 25.418 59.4203 25.468 59.5203 25.4664C59.5594 25.4664 59.5953 25.4555 59.6266 25.4352L59.7781 25.6992L30.9609 25.6805Z" fill="#111111"/>
</g>
<path id="Vector_3" d="M58.575 24.1196C58.5062 24.1212 58.4531 24.1493 58.4156 24.204C58.3781 24.2618 58.3718 24.3212 58.3968 24.3837C58.4296 24.4603 58.489 24.4993 58.5718 24.4993C58.6562 24.4993 58.714 24.4603 58.7484 24.3837C58.7578 24.3603 58.764 24.3353 58.764 24.3103C58.764 24.2712 58.7531 24.2368 58.7312 24.204C58.6937 24.1493 58.6406 24.1212 58.575 24.1196Z" fill="#111111"/>
<path id="Vector_4" d="M57.6217 23.1726C57.5701 23.1726 57.5248 23.1898 57.4873 23.2273C57.4514 23.2648 57.4326 23.3085 57.4326 23.3617C57.4326 23.4132 57.4498 23.4585 57.4873 23.496C57.5248 23.5335 57.5686 23.5507 57.6217 23.5523C57.6732 23.5523 57.7186 23.5335 57.7561 23.4976C57.7936 23.4601 57.8123 23.4148 57.8123 23.3632C57.8139 23.3101 57.7951 23.2648 57.7576 23.2273C57.7201 23.1914 57.6748 23.1726 57.6217 23.1726Z" fill="#111111"/>
<path id="Vector_5" d="M56.7767 24.1539C56.7455 24.1336 56.7095 24.1211 56.6705 24.1211C56.6392 24.1211 56.6095 24.1289 56.5814 24.1445C56.5533 24.1602 56.5298 24.1805 56.5127 24.207C56.4955 24.2336 56.4845 24.2617 56.4814 24.293C56.4783 24.3258 56.483 24.3555 56.4955 24.3852C56.5158 24.432 56.5486 24.4664 56.597 24.4867C56.6205 24.4961 56.6455 24.5008 56.6705 24.5008C56.7095 24.5008 56.7439 24.4914 56.7767 24.4695C56.808 24.4477 56.8314 24.4195 56.8455 24.3852C56.8564 24.3617 56.8611 24.3367 56.8611 24.3117C56.8611 24.2727 56.8502 24.2383 56.8283 24.2055C56.8142 24.1852 56.797 24.168 56.7767 24.1539Z" fill="#111111"/>
<path id="Vector_6" d="M56.7768 22.2555C56.7455 22.2336 56.7096 22.2227 56.6705 22.2227C56.6455 22.2227 56.6205 22.2273 56.5971 22.2383C56.5189 22.2711 56.4814 22.3289 56.4814 22.4133C56.4814 22.4961 56.5189 22.5555 56.5971 22.5883C56.6205 22.5977 56.6455 22.6039 56.6705 22.6039C56.7096 22.6039 56.7455 22.593 56.7768 22.5711C56.8033 22.5523 56.8236 22.5305 56.8393 22.5023C56.8533 22.4742 56.8611 22.4445 56.8611 22.4133C56.8611 22.382 56.8533 22.3523 56.8393 22.3242C56.8236 22.2961 56.8033 22.2727 56.7768 22.2555Z" fill="#111111"/>
<path id="Vector_7" d="M57.6217 25.071C57.5701 25.071 57.5248 25.0898 57.4873 25.1257C57.4514 25.1632 57.4326 25.2085 57.4326 25.2601C57.4326 25.3132 57.4498 25.357 57.4873 25.3945C57.5248 25.432 57.5686 25.4507 57.6217 25.4507C57.6732 25.4507 57.7186 25.432 57.7561 25.396C57.7936 25.3585 57.8123 25.3148 57.8123 25.2617C57.8139 25.2085 57.7951 25.1648 57.7576 25.1273C57.7201 25.0898 57.6748 25.071 57.6217 25.071Z" fill="#111111"/>
<path id="Vector_8" d="M53.8156 15.5774C53.7625 15.5774 53.7172 15.5961 53.6813 15.6321C53.6438 15.6696 53.625 15.7149 53.625 15.7665C53.625 15.8196 53.6438 15.8633 53.6813 15.9008C53.7172 15.9383 53.7625 15.9571 53.8156 15.9571C53.8672 15.9571 53.9125 15.9383 53.95 15.9008C53.9875 15.8633 54.0047 15.8196 54.0047 15.7665C54.0047 15.7149 53.9875 15.6696 53.95 15.6321C53.9125 15.5961 53.8672 15.5774 53.8156 15.5774Z" fill="#111111"/>
<path id="Vector_9" d="M52.8629 16.5259C52.8316 16.5259 52.8019 16.5337 52.7738 16.5493C52.7457 16.5649 52.7238 16.5853 52.705 16.6118C52.6879 16.6384 52.6769 16.6665 52.6738 16.6993C52.6707 16.7306 52.6754 16.7603 52.6879 16.7899C52.7207 16.8665 52.7785 16.9056 52.8629 16.9056C52.9472 16.9056 53.005 16.8665 53.0379 16.7899C53.0488 16.7665 53.0535 16.7415 53.0535 16.7165C53.0535 16.6774 53.0425 16.6431 53.0207 16.6103C52.9832 16.5556 52.9316 16.5274 52.8629 16.5259Z" fill="#111111"/>
<path id="Vector_10" d="M52.8629 14.6257C52.8113 14.6257 52.766 14.6445 52.7285 14.682C52.6926 14.7195 52.6738 14.7632 52.6738 14.8164C52.6738 14.8679 52.6926 14.9132 52.7285 14.9507C52.766 14.9867 52.8113 15.0054 52.8629 15.0054C52.916 15.0054 52.9613 14.9867 52.9988 14.9507C53.0348 14.9132 53.0535 14.8679 53.0535 14.8164C53.0535 14.7632 53.0348 14.7195 52.9988 14.682C52.9613 14.6445 52.916 14.6257 52.8629 14.6257Z" fill="#111111"/>
<path id="Vector_11" d="M54.7668 20.3242C54.7137 20.3242 54.6684 20.343 54.6324 20.3789C54.5949 20.4164 54.5762 20.4617 54.5762 20.5133C54.5762 20.5664 54.5949 20.6102 54.6324 20.6477C54.6684 20.6852 54.7137 20.7039 54.7668 20.7039C54.8199 20.7039 54.8637 20.6852 54.9012 20.6477C54.9387 20.6102 54.9574 20.5664 54.9574 20.5133C54.9574 20.4617 54.9387 20.4164 54.9012 20.3789C54.8637 20.343 54.8199 20.3242 54.7668 20.3242Z" fill="#111111"/>
<path id="Vector_12" d="M54.7668 18.4258C54.7137 18.4258 54.6684 18.443 54.6324 18.4805C54.5949 18.518 54.5762 18.5633 54.5762 18.6148C54.5762 18.668 54.5949 18.7117 54.6324 18.7492C54.6684 18.7867 54.7137 18.8055 54.7668 18.8055C54.8199 18.8055 54.8637 18.7867 54.9012 18.7492C54.9387 18.7117 54.9574 18.668 54.9574 18.6148C54.9574 18.5633 54.9387 18.518 54.9012 18.4805C54.8637 18.443 54.8199 18.4258 54.7668 18.4258Z" fill="#111111"/>
<path id="Vector_13" d="M53.8156 19.3726C53.7625 19.3726 53.7172 19.3913 53.6813 19.4288C53.6438 19.4663 53.625 19.5101 53.625 19.5632C53.625 19.6147 53.6438 19.6601 53.6813 19.6976C53.7172 19.7335 53.7625 19.7522 53.8156 19.7522C53.8672 19.7522 53.9125 19.7335 53.95 19.6976C53.9875 19.6601 54.0047 19.6147 54.0047 19.5632C54.0047 19.5101 53.9875 19.4663 53.95 19.4288C53.9125 19.3913 53.8672 19.3726 53.8156 19.3726Z" fill="#111111"/>
<path id="Vector_14" d="M55.7189 19.3726C55.6658 19.3726 55.6221 19.3913 55.5846 19.4288C55.5471 19.4663 55.5283 19.5101 55.5283 19.5632C55.5283 19.6147 55.5471 19.6601 55.5846 19.6976C55.6221 19.7335 55.6658 19.7522 55.7189 19.7522C55.7721 19.7522 55.8158 19.7335 55.8533 19.6976C55.8908 19.6601 55.9096 19.6147 55.9096 19.5632C55.9096 19.5101 55.8908 19.4663 55.8533 19.4288C55.8158 19.3913 55.7721 19.3726 55.7189 19.3726Z" fill="#111111"/>
<path id="Vector_15" d="M53.8156 17.4758C53.7625 17.4758 53.7172 17.4946 53.6813 17.5321C53.6438 17.568 53.625 17.6133 53.625 17.6649C53.625 17.718 53.6438 17.7633 53.6813 17.7993C53.7172 17.8368 53.7625 17.8555 53.8156 17.8555C53.8672 17.8555 53.9125 17.8368 53.95 17.7993C53.9875 17.7633 54.0047 17.718 54.0047 17.6649C54.0047 17.6133 53.9875 17.568 53.95 17.5321C53.9125 17.4946 53.8672 17.4758 53.8156 17.4758Z" fill="#111111"/>
<path id="Vector_16" d="M52.8629 20.3242C52.8113 20.3242 52.766 20.343 52.7285 20.3789C52.6926 20.4164 52.6738 20.4617 52.6738 20.5133C52.6738 20.5664 52.6926 20.6102 52.7285 20.6477C52.766 20.6852 52.8113 20.7039 52.8629 20.7039C52.916 20.7039 52.9613 20.6852 52.9988 20.6477C53.0348 20.6102 53.0535 20.5664 53.0535 20.5133C53.0535 20.4617 53.0348 20.4164 52.9988 20.3789C52.9613 20.343 52.916 20.3242 52.8629 20.3242Z" fill="#111111"/>
<path id="Vector_17" d="M52.8629 18.4258C52.8113 18.4258 52.766 18.443 52.7285 18.4805C52.6926 18.518 52.6738 18.5633 52.6738 18.6148C52.6738 18.668 52.6926 18.7117 52.7285 18.7492C52.766 18.7867 52.8113 18.8055 52.8629 18.8055C52.916 18.8055 52.9613 18.7867 52.9988 18.7492C53.0348 18.7117 53.0535 18.668 53.0535 18.6148C53.0535 18.5633 53.0348 18.518 52.9988 18.4805C52.9613 18.443 52.916 18.4258 52.8629 18.4258Z" fill="#111111"/>
<path id="Vector_18" d="M54.7673 24.1196C54.7001 24.1212 54.647 24.1493 54.6079 24.204C54.5704 24.2618 54.5658 24.3212 54.5908 24.3837C54.6236 24.4603 54.6829 24.4993 54.7658 24.4993C54.8501 24.4993 54.9095 24.4603 54.9423 24.3837C54.9517 24.3603 54.9579 24.3353 54.9579 24.3103C54.9579 24.2712 54.947 24.2368 54.9251 24.204C54.8861 24.1493 54.8345 24.1212 54.7673 24.1196Z" fill="#111111"/>
<path id="Vector_19" d="M54.767 22.2227C54.7139 22.2227 54.6686 22.2414 54.6311 22.2773C54.5936 22.3148 54.5732 22.3602 54.5732 22.4133C54.5732 22.4664 54.592 22.5117 54.6295 22.5492C54.667 22.5867 54.7123 22.6055 54.7654 22.6055C54.8186 22.6055 54.8639 22.5867 54.9014 22.5477C54.9389 22.5102 54.9576 22.4648 54.9576 22.4133C54.9576 22.3602 54.9389 22.3148 54.9014 22.2789C54.8639 22.2414 54.8201 22.2227 54.767 22.2227Z" fill="#111111"/>
<path id="Vector_20" d="M53.8156 23.1726C53.7625 23.1726 53.7172 23.1898 53.6813 23.2273C53.6438 23.2648 53.625 23.3085 53.625 23.3617C53.625 23.4132 53.6437 23.4585 53.6797 23.496C53.7172 23.5335 53.7625 23.5507 53.8141 23.5523C53.8672 23.5523 53.9109 23.5335 53.9484 23.4976C53.9859 23.4601 54.0047 23.4148 54.0047 23.3632C54.0062 23.3101 53.9875 23.2648 53.95 23.2273C53.9125 23.1914 53.8672 23.1726 53.8156 23.1726Z" fill="#111111"/>
<path id="Vector_21" d="M55.7189 23.1726C55.6658 23.1726 55.6221 23.1898 55.5846 23.2273C55.5471 23.2648 55.5283 23.3085 55.5283 23.3617C55.5283 23.4132 55.5471 23.4585 55.5846 23.496C55.6205 23.5335 55.6658 23.5507 55.7189 23.5523C55.7705 23.5523 55.8158 23.5335 55.8533 23.4976C55.8908 23.4601 55.9096 23.4148 55.9096 23.3632C55.9096 23.3101 55.8908 23.2648 55.8549 23.2273C55.8174 23.1914 55.7721 23.1726 55.7189 23.1726Z" fill="#111111"/>
<path id="Vector_22" d="M53.8156 21.2727C53.7625 21.2727 53.7172 21.2915 53.6813 21.329C53.6438 21.3665 53.625 21.4102 53.625 21.4633C53.625 21.5149 53.6438 21.5602 53.6813 21.5977C53.7172 21.6352 53.7625 21.6524 53.8156 21.6524C53.8672 21.6524 53.9125 21.6352 53.95 21.5977C53.9875 21.5602 54.0047 21.5149 54.0047 21.4633C54.0047 21.4102 53.9875 21.3665 53.95 21.329C53.9125 21.2915 53.8672 21.2727 53.8156 21.2727Z" fill="#111111"/>
<path id="Vector_23" d="M55.7189 21.2727C55.6658 21.2727 55.6221 21.2915 55.5846 21.329C55.5471 21.3665 55.5283 21.4102 55.5283 21.4633C55.5283 21.5149 55.5471 21.5602 55.5846 21.5977C55.6221 21.6352 55.6658 21.6524 55.7189 21.6524C55.7721 21.6524 55.8158 21.6352 55.8533 21.5977C55.8908 21.5602 55.9096 21.5149 55.9096 21.4633C55.9096 21.4102 55.8908 21.3665 55.8533 21.329C55.8158 21.2915 55.7721 21.2727 55.7189 21.2727Z" fill="#111111"/>
<path id="Vector_24" d="M52.8621 24.1196C52.7949 24.1212 52.7418 24.1493 52.7043 24.204C52.6668 24.2618 52.6606 24.3212 52.6871 24.3837C52.7199 24.4603 52.7778 24.4993 52.8621 24.4993C52.9465 24.4993 53.0043 24.4603 53.0371 24.3837C53.0481 24.3603 53.0528 24.3353 53.0528 24.3103C53.0528 24.2712 53.0418 24.2368 53.0199 24.204C52.9824 24.1493 52.9309 24.1212 52.8621 24.1196Z" fill="#111111"/>
<path id="Vector_25" d="M52.8621 22.2227C52.809 22.2227 52.7637 22.2414 52.7262 22.2773C52.6887 22.3148 52.6699 22.3602 52.6699 22.4133C52.6699 22.4664 52.6887 22.5117 52.7262 22.5492C52.7637 22.5867 52.809 22.6055 52.8621 22.6055C52.9152 22.6055 52.9605 22.5867 52.998 22.5477C53.0355 22.5102 53.0543 22.4648 53.0527 22.4133C53.0527 22.3602 53.034 22.3148 52.998 22.2789C52.9605 22.2414 52.9152 22.2227 52.8621 22.2227Z" fill="#111111"/>
<path id="Vector_26" d="M53.8156 25.071C53.7625 25.071 53.7172 25.0898 53.6813 25.1257C53.6438 25.1632 53.625 25.2085 53.625 25.2601C53.625 25.3132 53.6437 25.357 53.6797 25.3945C53.7172 25.432 53.7625 25.4507 53.8141 25.4507C53.8672 25.4507 53.9109 25.432 53.9484 25.396C53.9859 25.3585 54.0047 25.3148 54.0047 25.2617C54.0062 25.2085 53.9875 25.1648 53.95 25.1273C53.9125 25.0898 53.8672 25.071 53.8156 25.071Z" fill="#111111"/>
<path id="Vector_27" d="M55.7189 25.071C55.6658 25.071 55.6221 25.0898 55.5846 25.1257C55.5471 25.1632 55.5283 25.2085 55.5283 25.2601C55.5283 25.3132 55.5471 25.357 55.5846 25.3945C55.6205 25.432 55.6658 25.4507 55.7189 25.4507C55.7705 25.4507 55.8158 25.432 55.8533 25.396C55.8908 25.3585 55.9096 25.3148 55.9096 25.2617C55.9096 25.2085 55.8908 25.1648 55.8549 25.1273C55.8174 25.0898 55.7721 25.071 55.7189 25.071Z" fill="#111111"/>
<path id="Vector_28" d="M49.1605 8.96479C49.1293 8.94136 49.0934 8.93042 49.0559 8.93042C49.0293 8.93042 49.0043 8.93667 48.9809 8.94604C48.9465 8.96011 48.9184 8.98354 48.8965 9.01479C48.8762 9.04761 48.8652 9.08198 48.8652 9.12104C48.8652 9.14604 48.8699 9.17104 48.8793 9.19448C48.8996 9.24292 48.934 9.27573 48.9809 9.29604C49.0043 9.30542 49.0293 9.31167 49.0559 9.31011C49.0934 9.31167 49.1293 9.30073 49.1605 9.27729C49.1934 9.25698 49.2152 9.23042 49.2293 9.19448C49.2402 9.17104 49.2465 9.14604 49.2449 9.12104C49.2465 9.08198 49.2355 9.04761 49.2121 9.01479C49.1996 8.99448 49.1824 8.97729 49.1605 8.96479Z" fill="#111111"/>
<path id="Vector_29" d="M50.9592 12.729C50.9061 12.729 50.8623 12.7478 50.8248 12.7837C50.7873 12.8212 50.7686 12.8665 50.7686 12.9181C50.7686 12.9712 50.7873 13.0165 50.8248 13.0524C50.8623 13.0899 50.9061 13.1087 50.9592 13.1087C51.0123 13.1087 51.0561 13.0899 51.0936 13.0524C51.1311 13.0165 51.1498 12.9712 51.1498 12.9181C51.1498 12.8665 51.1311 12.8212 51.0936 12.7837C51.0561 12.7478 51.0123 12.729 50.9592 12.729Z" fill="#111111"/>
<path id="Vector_30" d="M50.9592 10.8306C50.9061 10.8306 50.8623 10.8493 50.8248 10.8853C50.7873 10.9228 50.7686 10.9681 50.7686 11.0196C50.7686 11.0728 50.7873 11.1165 50.8248 11.154C50.8623 11.1915 50.9061 11.2103 50.9592 11.2103C51.0123 11.2103 51.0561 11.1915 51.0936 11.154C51.1311 11.1165 51.1498 11.0728 51.1498 11.0196C51.1498 10.9681 51.1311 10.9228 51.0936 10.8853C51.0561 10.8493 51.0123 10.8306 50.9592 10.8306Z" fill="#111111"/>
<path id="Vector_31" d="M50.0079 11.7788C49.9548 11.7804 49.911 11.7991 49.8735 11.8366C49.8376 11.8741 49.8188 11.9179 49.8204 11.971C49.8204 12.0226 49.8392 12.0679 49.8767 12.1038C49.9142 12.1413 49.9595 12.1585 50.011 12.1585C50.0642 12.1585 50.1079 12.1397 50.1454 12.1038C50.1829 12.0663 50.2001 12.021 50.2001 11.9694C50.2001 11.9163 50.1813 11.871 50.1438 11.8335C50.1063 11.796 50.061 11.7788 50.0079 11.7788Z" fill="#111111"/>
<path id="Vector_32" d="M50.0079 9.87891C49.9548 9.88047 49.911 9.89922 49.8751 9.93672C49.8376 9.97422 49.8188 10.018 49.8204 10.0711C49.8204 10.1227 49.8392 10.1664 49.8767 10.2039C49.9126 10.2398 49.9579 10.2586 50.011 10.2586C50.0626 10.2586 50.1079 10.2398 50.1438 10.2039C50.1813 10.1664 50.2001 10.1227 50.2001 10.0711C50.2017 10.018 50.1829 9.97109 50.1438 9.93359C50.1063 9.89609 50.061 9.87891 50.0079 9.87891Z" fill="#111111"/>
<path id="Vector_33" d="M49.1605 12.7618C49.1293 12.7399 49.0934 12.729 49.0559 12.729C49.0293 12.729 49.0043 12.7337 48.9809 12.7446C48.9043 12.7774 48.8652 12.8353 48.8652 12.9196C48.8652 13.0024 48.9043 13.0618 48.9809 13.0946C49.0043 13.104 49.0293 13.1087 49.0559 13.1087C49.0934 13.1087 49.1293 13.0978 49.1605 13.0774C49.1871 13.0587 49.2074 13.0368 49.223 13.0087C49.2371 12.9806 49.2449 12.9509 49.2449 12.9196C49.2449 12.8884 49.2371 12.8587 49.223 12.8306C49.2074 12.8024 49.1871 12.779 49.1605 12.7618Z" fill="#111111"/>
<path id="Vector_34" d="M49.1605 10.8634C49.1293 10.8415 49.0934 10.8306 49.0559 10.8306C49.0293 10.8306 49.0043 10.8353 48.9809 10.8462C48.9043 10.879 48.8652 10.9368 48.8652 11.0212C48.8652 11.104 48.9043 11.1618 48.9809 11.1946C49.0043 11.2056 49.0293 11.2103 49.0559 11.2103C49.0934 11.2103 49.1293 11.1993 49.1605 11.1774C49.2184 11.1399 49.2465 11.0884 49.2449 11.0196C49.2465 10.9524 49.2184 10.8993 49.1605 10.8634Z" fill="#111111"/>
<path id="Vector_35" d="M50.9595 16.5259C50.9283 16.5259 50.8986 16.5337 50.8705 16.5493C50.8423 16.5649 50.8189 16.5853 50.8017 16.6118C50.7845 16.6384 50.7736 16.6665 50.7705 16.6993C50.7673 16.7306 50.772 16.7603 50.7845 16.7899C50.8173 16.8665 50.8752 16.9056 50.9595 16.9056C51.0423 16.9056 51.1017 16.8665 51.1345 16.7899C51.1455 16.7665 51.1502 16.7415 51.1502 16.7165C51.1502 16.6774 51.1392 16.6431 51.1173 16.6103C51.0798 16.5556 51.0267 16.5274 50.9595 16.5259Z" fill="#111111"/>
<path id="Vector_36" d="M50.9592 14.6257C50.9061 14.6257 50.8623 14.6445 50.8248 14.682C50.7873 14.7195 50.7686 14.7632 50.7686 14.8164C50.7686 14.8679 50.7873 14.9132 50.8248 14.9507C50.8623 14.9867 50.9061 15.0054 50.9592 15.0054C51.0123 15.0054 51.0561 14.9867 51.0936 14.9507C51.1311 14.9132 51.1498 14.8679 51.1498 14.8164C51.1498 14.7632 51.1311 14.7195 51.0936 14.682C51.0561 14.6445 51.0123 14.6257 50.9592 14.6257Z" fill="#111111"/>
<path id="Vector_37" d="M50.008 15.5774C49.9549 15.5774 49.9096 15.5961 49.8736 15.6321C49.8361 15.6696 49.8174 15.7149 49.8174 15.7665C49.8174 15.8196 49.8361 15.8633 49.8736 15.9008C49.9096 15.9383 49.9549 15.9571 50.008 15.9571C50.0611 15.9571 50.1049 15.9383 50.1424 15.9008C50.1799 15.8633 50.1986 15.8196 50.1986 15.7665C50.1986 15.7149 50.1799 15.6696 50.1424 15.6321C50.1049 15.5961 50.0596 15.5774 50.008 15.5774Z" fill="#111111"/>
<path id="Vector_38" d="M51.9113 15.5774C51.8598 15.5774 51.8145 15.5961 51.777 15.6321C51.7395 15.6696 51.7207 15.7149 51.7207 15.7665C51.7207 15.8196 51.7395 15.8633 51.777 15.9008C51.8145 15.9383 51.8598 15.9571 51.9113 15.9571C51.9645 15.9571 52.0098 15.9383 52.0457 15.9008C52.0832 15.8633 52.102 15.8196 52.102 15.7665C52.102 15.7149 52.0832 15.6696 52.0457 15.6321C52.0098 15.5961 51.9645 15.5774 51.9113 15.5774Z" fill="#111111"/>
<path id="Vector_39" d="M50.008 13.6772C49.9549 13.6772 49.9096 13.696 49.8736 13.7335C49.8361 13.771 49.8174 13.8147 49.8174 13.8679C49.8174 13.921 49.8361 13.9647 49.8736 14.0022C49.9096 14.0397 49.9549 14.0585 50.008 14.0585C50.0611 14.0585 50.1049 14.0397 50.1424 14.0022C50.1799 13.9647 50.1986 13.921 50.1986 13.8679C50.1986 13.8147 50.1799 13.771 50.1424 13.7335C50.1049 13.696 50.0596 13.6772 50.008 13.6772Z" fill="#111111"/>
<path id="Vector_40" d="M51.9113 13.6772C51.8598 13.6772 51.8145 13.696 51.777 13.7335C51.7395 13.771 51.7207 13.8147 51.7207 13.8679C51.7207 13.921 51.7395 13.9647 51.777 14.0022C51.8145 14.0397 51.8598 14.0585 51.9113 14.0585C51.9645 14.0585 52.0098 14.0397 52.0457 14.0022C52.0832 13.9647 52.102 13.921 52.102 13.8679C52.102 13.8147 52.0832 13.771 52.0457 13.7335C52.0098 13.696 51.9645 13.6772 51.9113 13.6772Z" fill="#111111"/>
<path id="Vector_41" d="M49.1605 16.5587C49.1293 16.5368 49.0934 16.5259 49.0559 16.5259C49.0293 16.5259 49.0043 16.5321 48.9809 16.5415C48.9465 16.5571 48.9184 16.579 48.8965 16.6103C48.8762 16.6431 48.8652 16.6774 48.8652 16.7165C48.8652 16.7415 48.8699 16.7665 48.8793 16.7899C48.8996 16.8384 48.934 16.8712 48.9809 16.8915C49.0043 16.9009 49.0293 16.9056 49.0559 16.9056C49.0934 16.9056 49.1293 16.8962 49.1605 16.8743C49.1934 16.854 49.2152 16.8259 49.2293 16.7899C49.2402 16.7665 49.2465 16.7415 49.2449 16.7165C49.2465 16.6774 49.2355 16.6431 49.2121 16.6103C49.1996 16.5899 49.1824 16.5728 49.1605 16.5587Z" fill="#111111"/>
<path id="Vector_42" d="M49.1605 14.6603C49.1293 14.6384 49.0934 14.6274 49.0559 14.6274C49.0293 14.6274 49.0043 14.6321 48.9809 14.6431C48.9043 14.6759 48.8652 14.7337 48.8652 14.8181C48.8652 14.9024 48.9043 14.9603 48.9809 14.9931C49.0043 15.0024 49.0293 15.0071 49.0559 15.0071C49.0934 15.0071 49.1293 14.9962 49.1605 14.9759C49.1871 14.9587 49.2074 14.9353 49.223 14.9071C49.2371 14.879 49.2449 14.8493 49.2449 14.8181C49.2449 14.7868 49.2371 14.7571 49.223 14.729C49.2074 14.7009 49.1871 14.6774 49.1605 14.6603Z" fill="#111111"/>
<path id="Vector_43" d="M50.9592 20.3242C50.9061 20.3242 50.8623 20.343 50.8248 20.3789C50.7873 20.4164 50.7686 20.4617 50.7686 20.5133C50.7686 20.5664 50.7873 20.6102 50.8248 20.6477C50.8623 20.6852 50.9061 20.7039 50.9592 20.7039C51.0123 20.7039 51.0561 20.6852 51.0936 20.6477C51.1311 20.6102 51.1498 20.5664 51.1498 20.5133C51.1498 20.4617 51.1311 20.4164 51.0936 20.3789C51.0561 20.343 51.0123 20.3242 50.9592 20.3242Z" fill="#111111"/>
<path id="Vector_44" d="M50.9592 18.4258C50.9061 18.4258 50.8623 18.443 50.8248 18.4805C50.7873 18.518 50.7686 18.5633 50.7686 18.6148C50.7686 18.668 50.7873 18.7117 50.8248 18.7492C50.8623 18.7867 50.9061 18.8055 50.9592 18.8055C51.0123 18.8055 51.0561 18.7867 51.0936 18.7492C51.1311 18.7117 51.1498 18.668 51.1498 18.6148C51.1498 18.5633 51.1311 18.518 51.0936 18.4805C51.0561 18.443 51.0123 18.4258 50.9592 18.4258Z" fill="#111111"/>
<path id="Vector_45" d="M50.008 19.3726C49.9549 19.3726 49.9096 19.3913 49.8736 19.4288C49.8361 19.4663 49.8174 19.5101 49.8174 19.5632C49.8174 19.6147 49.8361 19.6601 49.8736 19.6976C49.9096 19.7335 49.9549 19.7522 50.008 19.7522C50.0611 19.7522 50.1049 19.7335 50.1424 19.6976C50.1799 19.6601 50.1986 19.6147 50.1986 19.5632C50.1986 19.5101 50.1799 19.4663 50.1424 19.4288C50.1049 19.3913 50.0596 19.3726 50.008 19.3726Z" fill="#111111"/>
<path id="Vector_46" d="M51.9113 19.3726C51.8598 19.3726 51.8145 19.3913 51.777 19.4288C51.7395 19.4663 51.7207 19.5101 51.7207 19.5632C51.7207 19.6147 51.7395 19.6601 51.777 19.6976C51.8145 19.7335 51.8598 19.7522 51.9113 19.7522C51.9645 19.7522 52.0098 19.7335 52.0457 19.6976C52.0832 19.6601 52.102 19.6147 52.102 19.5632C52.102 19.5101 52.0832 19.4663 52.0457 19.4288C52.0098 19.3913 51.9645 19.3726 51.9113 19.3726Z" fill="#111111"/>
<path id="Vector_47" d="M50.008 17.4758C49.9549 17.4758 49.9096 17.4946 49.8736 17.5321C49.8361 17.568 49.8174 17.6133 49.8174 17.6649C49.8174 17.718 49.8361 17.7633 49.8736 17.7993C49.9096 17.8368 49.9549 17.8555 50.008 17.8555C50.0611 17.8555 50.1049 17.8368 50.1424 17.7993C50.1799 17.7633 50.1986 17.718 50.1986 17.6649C50.1986 17.6133 50.1799 17.568 50.1424 17.5321C50.1049 17.4946 50.0596 17.4758 50.008 17.4758Z" fill="#111111"/>
<path id="Vector_48" d="M51.9113 17.4758C51.8598 17.4758 51.8145 17.4946 51.777 17.5321C51.7395 17.568 51.7207 17.6133 51.7207 17.6649C51.7207 17.718 51.7395 17.7633 51.777 17.7993C51.8145 17.8368 51.8598 17.8555 51.9113 17.8555C51.9645 17.8555 52.0098 17.8368 52.0457 17.7993C52.0832 17.7633 52.102 17.718 52.102 17.6649C52.102 17.6133 52.0832 17.568 52.0457 17.5321C52.0098 17.4946 51.9645 17.4758 51.9113 17.4758Z" fill="#111111"/>
<path id="Vector_49" d="M49.1605 20.357C49.1293 20.3352 49.0934 20.3242 49.0559 20.3242C49.0293 20.3242 49.0043 20.3289 48.9809 20.3398C48.9043 20.3727 48.8652 20.4305 48.8652 20.5148C48.8652 20.5977 48.9043 20.657 48.9809 20.6898C49.0043 20.6992 49.0293 20.7039 49.0559 20.7039C49.0934 20.7039 49.1293 20.693 49.1605 20.6727C49.1871 20.6539 49.2074 20.632 49.223 20.6039C49.2371 20.5758 49.2449 20.5461 49.2449 20.5148C49.2449 20.482 49.2371 20.4523 49.223 20.4258C49.2074 20.3977 49.1871 20.3742 49.1605 20.357Z" fill="#111111"/>
<path id="Vector_50" d="M49.1605 18.4586C49.1293 18.4351 49.0934 18.4242 49.0559 18.4258C49.0293 18.4242 49.0043 18.4305 48.9809 18.4414C48.9043 18.4742 48.8652 18.532 48.8652 18.6148C48.8652 18.6992 48.9043 18.757 48.9809 18.7898C49.0043 18.8008 49.0293 18.8055 49.0559 18.8055C49.0934 18.8055 49.1293 18.7945 49.1605 18.7726C49.1871 18.7555 49.2074 18.732 49.223 18.7055C49.2371 18.6773 49.2449 18.6476 49.2449 18.6148C49.2449 18.5836 49.2371 18.5539 49.223 18.5258C49.2074 18.4976 49.1871 18.4758 49.1605 18.4586Z" fill="#111111"/>
<path id="Vector_51" d="M50.9598 24.1196C50.8926 24.1212 50.8395 24.1493 50.802 24.204C50.7645 24.2618 50.7582 24.3212 50.7848 24.3837C50.8176 24.4603 50.8754 24.4993 50.9598 24.4993C51.0426 24.4993 51.102 24.4603 51.1348 24.3837C51.1457 24.3603 51.1504 24.3353 51.1504 24.3103C51.1504 24.2712 51.1395 24.2368 51.1176 24.204C51.0801 24.1493 51.027 24.1212 50.9598 24.1196Z" fill="#111111"/>
<path id="Vector_52" d="M50.9599 22.2227C50.9067 22.2227 50.8614 22.2414 50.8239 22.2773C50.7864 22.3148 50.7677 22.3602 50.7677 22.4133C50.7661 22.4664 50.7849 22.5117 50.8224 22.5492C50.8599 22.5867 50.9067 22.6055 50.9583 22.6055C51.0114 22.6055 51.0567 22.5867 51.0942 22.5477C51.1317 22.5102 51.1505 22.4648 51.1505 22.4133C51.1505 22.3602 51.1317 22.3148 51.0942 22.2789C51.0567 22.2414 51.013 22.2227 50.9599 22.2227Z" fill="#111111"/>
<path id="Vector_53" d="M50.008 23.1726C49.9549 23.1726 49.9111 23.1898 49.8736 23.2273C49.8361 23.2648 49.8174 23.3085 49.8174 23.3617C49.8174 23.4132 49.8361 23.4585 49.8721 23.496C49.9096 23.5335 49.9549 23.5507 50.0064 23.5523C50.0596 23.5523 50.1049 23.5335 50.1424 23.4976C50.1783 23.4601 50.1971 23.4148 50.1986 23.3632C50.1986 23.3101 50.1799 23.2648 50.1424 23.2273C50.1049 23.1914 50.0611 23.1726 50.008 23.1726Z" fill="#111111"/>
<path id="Vector_54" d="M51.9113 23.1726C51.8598 23.1726 51.8145 23.1898 51.777 23.2273C51.7395 23.2648 51.7207 23.3085 51.7207 23.3617C51.7207 23.4132 51.7395 23.4585 51.777 23.496C51.8129 23.5335 51.8582 23.5507 51.9113 23.5523C51.9629 23.5523 52.0082 23.5335 52.0457 23.4976C52.0832 23.4601 52.102 23.4148 52.102 23.3632C52.102 23.3101 52.0848 23.2648 52.0473 23.2273C52.0098 23.1914 51.9645 23.1726 51.9113 23.1726Z" fill="#111111"/>
<path id="Vector_55" d="M50.008 21.2727C49.9549 21.2727 49.9096 21.2915 49.8736 21.329C49.8361 21.3665 49.8174 21.4102 49.8174 21.4633C49.8174 21.5149 49.8361 21.5602 49.8736 21.5977C49.9096 21.6352 49.9549 21.6524 50.008 21.6524C50.0611 21.6524 50.1049 21.6352 50.1424 21.5977C50.1799 21.5602 50.1986 21.5149 50.1986 21.4633C50.1986 21.4102 50.1799 21.3665 50.1424 21.329C50.1049 21.2915 50.0596 21.2727 50.008 21.2727Z" fill="#111111"/>
<path id="Vector_56" d="M51.9113 21.2727C51.8598 21.2727 51.8145 21.2915 51.777 21.329C51.7395 21.3665 51.7207 21.4102 51.7207 21.4633C51.7207 21.5149 51.7395 21.5602 51.777 21.5977C51.8145 21.6352 51.8598 21.6524 51.9113 21.6524C51.9645 21.6524 52.0098 21.6352 52.0457 21.5977C52.0832 21.5602 52.102 21.5149 52.102 21.4633C52.102 21.4102 52.0832 21.3665 52.0457 21.329C52.0098 21.2915 51.9645 21.2727 51.9113 21.2727Z" fill="#111111"/>
<path id="Vector_57" d="M49.1611 24.1539C49.1298 24.1336 49.0939 24.1211 49.0564 24.1211C49.0236 24.1211 48.9939 24.1289 48.9658 24.1445C48.9377 24.1602 48.9158 24.1805 48.897 24.207C48.8798 24.2336 48.8705 24.2617 48.8673 24.293C48.8642 24.3258 48.8673 24.3555 48.8798 24.3852C48.9002 24.432 48.9345 24.4664 48.9814 24.4867C49.0048 24.4961 49.0298 24.5008 49.0564 24.5008C49.0939 24.5008 49.1298 24.4914 49.1611 24.4695C49.1939 24.4477 49.2158 24.4195 49.2298 24.3852C49.2408 24.3617 49.247 24.3367 49.2455 24.3117C49.247 24.2727 49.2345 24.2383 49.2127 24.2055C49.2002 24.1852 49.183 24.168 49.1611 24.1539Z" fill="#111111"/>
<path id="Vector_58" d="M49.1605 22.2555C49.1293 22.2336 49.0934 22.2227 49.0559 22.2227C49.0293 22.2227 49.0043 22.2273 48.9809 22.2383C48.9043 22.2711 48.8652 22.3289 48.8652 22.4133C48.8652 22.4961 48.9043 22.5555 48.9809 22.5883C49.0043 22.5977 49.0293 22.6039 49.0559 22.6039C49.0934 22.6039 49.1293 22.593 49.1605 22.5711C49.1871 22.5523 49.2074 22.5305 49.223 22.5023C49.2371 22.4742 49.2449 22.4445 49.2449 22.4133C49.2449 22.382 49.2371 22.3523 49.223 22.3242C49.2074 22.2961 49.1871 22.2727 49.1605 22.2555Z" fill="#111111"/>
<path id="Vector_59" d="M50.008 25.071C49.9549 25.071 49.9111 25.0898 49.8736 25.1257C49.8361 25.1632 49.8174 25.2085 49.8174 25.2601C49.8174 25.3132 49.8361 25.357 49.8721 25.3945C49.9096 25.432 49.9549 25.4507 50.0064 25.4507C50.0596 25.4507 50.1049 25.432 50.1424 25.396C50.1783 25.3585 50.1971 25.3148 50.1986 25.2617C50.1986 25.2085 50.1799 25.1648 50.1424 25.1273C50.1049 25.0898 50.0611 25.071 50.008 25.071Z" fill="#111111"/>
<path id="Vector_60" d="M51.9113 25.071C51.8598 25.071 51.8145 25.0898 51.777 25.1257C51.7395 25.1632 51.7207 25.2085 51.7207 25.2601C51.7207 25.3132 51.7395 25.357 51.777 25.3945C51.8129 25.432 51.8582 25.4507 51.9113 25.4507C51.9629 25.4507 52.0082 25.432 52.0457 25.396C52.0832 25.3585 52.102 25.3148 52.102 25.2617C52.102 25.2085 52.0848 25.1648 52.0473 25.1273C52.0098 25.0898 51.9645 25.071 51.9113 25.071Z" fill="#111111"/>
<path id="Vector_61" d="M45.355 1.36963C45.3222 1.34619 45.2878 1.33525 45.2488 1.33682C45.1816 1.33525 45.1285 1.36338 45.0894 1.41963C45.0519 1.47588 45.0472 1.53682 45.0722 1.59932C45.105 1.67744 45.1644 1.7165 45.2488 1.7165C45.2878 1.7165 45.3222 1.70557 45.355 1.68369C45.3863 1.66182 45.4097 1.63525 45.4238 1.59932C45.4331 1.57588 45.4394 1.55244 45.4394 1.52588C45.4394 1.48682 45.4285 1.45088 45.4066 1.41963C45.3925 1.39932 45.3753 1.38213 45.355 1.36963Z" fill="#111111"/>
<path id="Vector_62" d="M47.1516 5.13208C47.1 5.13208 47.0547 5.15083 47.0172 5.18833C46.9797 5.22427 46.9609 5.26958 46.9609 5.32271C46.9609 5.37427 46.9797 5.41958 47.0172 5.45708C47.0547 5.49302 47.1 5.51177 47.1516 5.51177C47.2047 5.51177 47.25 5.49302 47.2859 5.45708C47.3234 5.41958 47.3422 5.37427 47.3422 5.32271C47.3422 5.26958 47.3234 5.22427 47.2859 5.18833C47.25 5.15083 47.2047 5.13208 47.1516 5.13208Z" fill="#111111"/>
<path id="Vector_63" d="M46.2004 4.18359C46.1473 4.18359 46.1035 4.20234 46.066 4.23984C46.0285 4.27734 46.0098 4.32109 46.0098 4.37422C46.0098 4.42578 46.0285 4.47109 46.066 4.50859C46.1035 4.54609 46.1473 4.56328 46.2004 4.56328C46.2535 4.56328 46.2973 4.54609 46.3348 4.50859C46.3723 4.47109 46.391 4.42578 46.391 4.37422C46.391 4.32109 46.3723 4.27734 46.3348 4.23984C46.2988 4.20234 46.2535 4.18359 46.2004 4.18359Z" fill="#111111"/>
<path id="Vector_64" d="M45.3545 5.16636C45.3217 5.14448 45.2873 5.13354 45.2482 5.13354C45.1951 5.13354 45.1498 5.15229 45.1139 5.18979C45.0764 5.22573 45.0576 5.27105 45.0576 5.32417C45.0576 5.37573 45.0764 5.42104 45.1139 5.45698C45.1498 5.49448 45.1951 5.51323 45.2482 5.51323C45.2873 5.51323 45.3217 5.50229 45.3545 5.48042C45.3795 5.46323 45.4014 5.4398 45.4154 5.41167C45.4311 5.38511 45.4373 5.35542 45.4373 5.32417C45.4373 5.29136 45.4311 5.26167 45.4154 5.23511C45.4014 5.20698 45.3795 5.18355 45.3545 5.16636Z" fill="#111111"/>
<path id="Vector_65" d="M45.3544 3.26792C45.3216 3.24604 45.2872 3.23511 45.2481 3.23511C45.195 3.23511 45.1513 3.25386 45.1138 3.29136C45.0778 3.32886 45.0591 3.37417 45.0606 3.42573C45.0606 3.47886 45.0794 3.52261 45.1169 3.56011C45.1544 3.59605 45.1997 3.61479 45.2513 3.61479C45.3044 3.61479 45.3481 3.59604 45.3856 3.55854C45.4231 3.52104 45.4403 3.4773 45.4403 3.42417C45.4403 3.35698 45.4106 3.30386 45.3544 3.26792Z" fill="#111111"/>
<path id="Vector_66" d="M47.1516 8.93042C47.0844 8.93042 47.0312 8.95854 46.9938 9.01479C46.9719 9.04761 46.9609 9.08198 46.9609 9.12104C46.9609 9.14604 46.9656 9.17104 46.9766 9.19448C47.0094 9.27104 47.0687 9.31011 47.1516 9.31011C47.2359 9.31011 47.2937 9.27104 47.3281 9.19448C47.3375 9.17104 47.3422 9.14604 47.3422 9.12104C47.3422 9.08198 47.3312 9.04761 47.3094 9.01479C47.2719 8.96011 47.2187 8.93198 47.1516 8.93042Z" fill="#111111"/>
<path id="Vector_67" d="M47.1516 7.03198C47.1 7.03198 47.0547 7.05073 47.0172 7.08823C46.9797 7.12573 46.9609 7.16948 46.9609 7.22261C46.9609 7.27417 46.9797 7.31948 47.0172 7.35698C47.0547 7.39292 47.1 7.41167 47.1516 7.41167C47.2047 7.41167 47.25 7.39292 47.2859 7.35698C47.3234 7.31948 47.3422 7.27417 47.3422 7.22261C47.3422 7.16948 47.3234 7.12573 47.2859 7.08823C47.25 7.05073 47.2047 7.03198 47.1516 7.03198Z" fill="#111111"/>
<path id="Vector_68" d="M46.2004 7.98193C46.1473 7.98193 46.1035 8.00068 46.066 8.03662C46.0285 8.07412 46.0098 8.11943 46.0098 8.171C46.0098 8.22412 46.0285 8.26943 46.066 8.30537C46.1035 8.34287 46.1473 8.36162 46.2004 8.36162C46.2535 8.36162 46.2973 8.34287 46.3348 8.30537C46.3723 8.26943 46.391 8.22412 46.391 8.171C46.391 8.11943 46.3723 8.07412 46.3348 8.03662C46.2973 8.00068 46.2535 7.98193 46.2004 7.98193Z" fill="#111111"/>
<path id="Vector_69" d="M48.1031 7.98193C48.0516 7.98193 48.0063 8.00068 47.9688 8.03662C47.9328 8.07412 47.9141 8.11943 47.9141 8.171C47.9141 8.22412 47.9328 8.26943 47.9688 8.30537C48.0063 8.34287 48.0516 8.36162 48.1031 8.36162C48.1562 8.36162 48.2016 8.34287 48.2391 8.30537C48.275 8.26943 48.2938 8.22412 48.2938 8.171C48.2938 8.11943 48.275 8.07412 48.2391 8.03662C48.2016 8.00068 48.1562 7.98193 48.1031 7.98193Z" fill="#111111"/>
<path id="Vector_70" d="M46.2004 6.08359C46.1473 6.08359 46.1035 6.10077 46.066 6.13827C46.0285 6.17577 46.0098 6.22109 46.0098 6.27265C46.0098 6.32577 46.0285 6.36952 46.066 6.40702C46.1035 6.44452 46.1473 6.46327 46.2004 6.46327C46.2535 6.46327 46.2973 6.44452 46.3348 6.40702C46.3723 6.36952 46.391 6.32577 46.391 6.27265C46.391 6.21952 46.3723 6.17577 46.3348 6.13827C46.2988 6.10077 46.2535 6.08202 46.2004 6.08359Z" fill="#111111"/>
<path id="Vector_71" d="M48.1031 6.08359C48.0516 6.08359 48.0063 6.10077 47.9688 6.13827C47.9328 6.17577 47.9141 6.22109 47.9141 6.27265C47.9141 6.32577 47.9328 6.36952 47.9688 6.40702C48.0063 6.44452 48.0516 6.46327 48.1031 6.46327C48.1562 6.46327 48.2016 6.44452 48.2391 6.40702C48.275 6.36952 48.2938 6.32577 48.2938 6.27265C48.2953 6.21952 48.2766 6.17577 48.2391 6.13827C48.2016 6.10077 48.1562 6.08202 48.1031 6.08359Z" fill="#111111"/>
<path id="Vector_72" d="M45.3545 8.96479C45.3217 8.94136 45.2873 8.93042 45.2482 8.93042C45.1795 8.93042 45.1264 8.95854 45.0889 9.01479C45.0686 9.04761 45.0576 9.08198 45.0576 9.12104C45.0576 9.14604 45.0623 9.17104 45.0717 9.19448C45.1045 9.27261 45.1639 9.31167 45.2482 9.31011C45.2873 9.31167 45.3217 9.30073 45.3545 9.27729C45.3857 9.25698 45.4092 9.23042 45.4232 9.19448C45.4326 9.17104 45.4389 9.14604 45.4389 9.12104C45.4389 9.08198 45.4279 9.04761 45.4061 9.01479C45.392 8.99448 45.3748 8.97729 45.3545 8.96479Z" fill="#111111"/>
<path id="Vector_73" d="M45.3544 7.06479C45.3216 7.04292 45.2872 7.03198 45.2481 7.03198C45.195 7.03354 45.1513 7.05229 45.1138 7.08979C45.0778 7.12729 45.0591 7.17105 45.0606 7.22417C45.0606 7.27573 45.0794 7.32104 45.1169 7.35698C45.1544 7.39448 45.1997 7.41167 45.2513 7.41167C45.3044 7.41167 45.3481 7.39292 45.3856 7.35542C45.4231 7.31948 45.4403 7.27417 45.4403 7.22261C45.4403 7.15386 45.4106 7.10229 45.3544 7.06479Z" fill="#111111"/>
<path id="Vector_74" d="M47.1516 12.729C47.1 12.729 47.0547 12.7478 47.0172 12.7837C46.9797 12.8212 46.9609 12.8665 46.9609 12.9181C46.9609 12.9712 46.9797 13.0165 47.0172 13.0524C47.0547 13.0899 47.1 13.1087 47.1516 13.1087C47.2047 13.1087 47.25 13.0899 47.2859 13.0524C47.3234 13.0165 47.3422 12.9712 47.3422 12.9181C47.3422 12.8665 47.3234 12.8212 47.2859 12.7837C47.25 12.7478 47.2047 12.729 47.1516 12.729Z" fill="#111111"/>
<path id="Vector_75" d="M47.1516 10.8306C47.1 10.8306 47.0547 10.8493 47.0172 10.8853C46.9797 10.9228 46.9609 10.9681 46.9609 11.0196C46.9609 11.0728 46.9797 11.1165 47.0172 11.154C47.0547 11.1915 47.1 11.2103 47.1516 11.2103C47.2047 11.2103 47.25 11.1915 47.2859 11.154C47.3234 11.1165 47.3422 11.0728 47.3422 11.0196C47.3422 10.9681 47.3234 10.9228 47.2859 10.8853C47.25 10.8493 47.2047 10.8306 47.1516 10.8306Z" fill="#111111"/>
<path id="Vector_76" d="M46.2004 11.7788C46.1473 11.7788 46.1035 11.7976 46.066 11.8351C46.0285 11.8726 46.0098 11.9163 46.0098 11.9694C46.0098 12.021 46.0285 12.0663 46.066 12.1038C46.1035 12.1397 46.1473 12.1585 46.2004 12.1585C46.2535 12.1585 46.2973 12.1397 46.3348 12.1038C46.3723 12.0663 46.391 12.021 46.391 11.9694C46.391 11.9163 46.3723 11.8726 46.3348 11.8351C46.2973 11.7976 46.2535 11.7788 46.2004 11.7788Z" fill="#111111"/>
<path id="Vector_77" d="M48.1031 11.7788C48.0516 11.7788 48.0063 11.7976 47.9688 11.8351C47.9328 11.8726 47.9141 11.9163 47.9141 11.9694C47.9141 12.021 47.9328 12.0663 47.9688 12.1038C48.0063 12.1397 48.0516 12.1585 48.1031 12.1585C48.1562 12.1585 48.2016 12.1397 48.2391 12.1038C48.275 12.0663 48.2938 12.021 48.2938 11.9694C48.2938 11.9163 48.275 11.8726 48.2391 11.8351C48.2016 11.7976 48.1562 11.7788 48.1031 11.7788Z" fill="#111111"/>
<path id="Vector_78" d="M46.2004 9.87891C46.1473 9.87891 46.1035 9.89766 46.066 9.93516C46.0285 9.97266 46.0098 10.0164 46.0098 10.0695C46.0098 10.1211 46.0285 10.1664 46.066 10.2039C46.1035 10.2398 46.1473 10.2586 46.2004 10.2586C46.2535 10.2586 46.2973 10.2398 46.3348 10.2039C46.3723 10.1664 46.391 10.1211 46.391 10.0695C46.391 10.0164 46.3723 9.97266 46.3348 9.93516C46.2973 9.89766 46.2535 9.87891 46.2004 9.87891Z" fill="#111111"/>
<path id="Vector_79" d="M48.1031 9.87891C48.0516 9.87891 48.0063 9.89766 47.9688 9.93516C47.9328 9.97266 47.9141 10.0164 47.9141 10.0695C47.9141 10.1211 47.9328 10.1664 47.9688 10.2039C48.0063 10.2398 48.0516 10.2586 48.1031 10.2586C48.1562 10.2586 48.2016 10.2398 48.2391 10.2039C48.275 10.1664 48.2938 10.1211 48.2938 10.0695C48.2938 10.0164 48.275 9.97266 48.2391 9.93516C48.2016 9.89766 48.1562 9.87891 48.1031 9.87891Z" fill="#111111"/>
<path id="Vector_80" d="M45.3549 12.7618C45.3221 12.7399 45.2877 12.729 45.2486 12.729C45.2174 12.729 45.1877 12.7353 45.1596 12.7493C45.1315 12.7634 45.1096 12.7821 45.0908 12.8071C45.0721 12.8321 45.0611 12.8603 45.0549 12.8915C45.0502 12.9212 45.0533 12.9524 45.0627 12.9821C45.0721 13.0103 45.0877 13.0368 45.1111 13.0587C45.133 13.0806 45.1596 13.0962 45.1893 13.1056C45.219 13.1149 45.2486 13.1165 45.2799 13.1103C45.3096 13.1056 45.3377 13.0931 45.3627 13.0743C45.3877 13.0556 45.4065 13.0321 45.4205 13.0056C45.433 12.9774 45.4393 12.9478 45.4393 12.9165C45.4377 12.8853 45.4299 12.8556 45.4158 12.829C45.4002 12.8009 45.3799 12.779 45.3549 12.7618Z" fill="#111111"/>
<path id="Vector_81" d="M45.3544 10.8634C45.3216 10.8415 45.2872 10.8306 45.2481 10.8306C45.195 10.8306 45.1513 10.8493 45.1138 10.8868C45.0778 10.9243 45.0591 10.9696 45.0606 11.0212C45.0606 11.0743 45.0794 11.1181 45.1169 11.1556C45.1544 11.1915 45.1997 11.2103 45.2513 11.2103C45.3044 11.2103 45.3481 11.1915 45.3856 11.154C45.4231 11.1165 45.4403 11.0728 45.4403 11.0196C45.4403 10.9524 45.4106 10.8993 45.3544 10.8634Z" fill="#111111"/>
<path id="Vector_82" d="M47.1519 16.5259C47.1207 16.5259 47.091 16.5337 47.0629 16.5493C47.0347 16.5649 47.0113 16.5853 46.9941 16.6118C46.9769 16.6384 46.966 16.6665 46.9629 16.6993C46.9597 16.7306 46.9644 16.7603 46.9769 16.7899C47.0097 16.8665 47.0691 16.9056 47.1519 16.9056C47.2363 16.9056 47.2941 16.8665 47.3285 16.7899C47.3379 16.7665 47.3425 16.7415 47.3425 16.7165C47.3425 16.6774 47.3316 16.6431 47.3097 16.6103C47.2722 16.5556 47.2191 16.5274 47.1519 16.5259Z" fill="#111111"/>
<path id="Vector_83" d="M47.1516 14.6257C47.1 14.6257 47.0547 14.6445 47.0172 14.682C46.9797 14.7195 46.9609 14.7632 46.9609 14.8164C46.9609 14.8679 46.9797 14.9132 47.0172 14.9507C47.0547 14.9867 47.1 15.0054 47.1516 15.0054C47.2047 15.0054 47.25 14.9867 47.2859 14.9507C47.3234 14.9132 47.3422 14.8679 47.3422 14.8164C47.3422 14.7632 47.3234 14.7195 47.2859 14.682C47.25 14.6445 47.2047 14.6257 47.1516 14.6257Z" fill="#111111"/>
<path id="Vector_84" d="M46.2004 15.5774C46.1473 15.5774 46.1035 15.5961 46.066 15.6321C46.0285 15.6696 46.0098 15.7149 46.0098 15.7665C46.0098 15.8196 46.0285 15.8633 46.066 15.9008C46.1035 15.9383 46.1473 15.9571 46.2004 15.9571C46.2535 15.9571 46.2973 15.9383 46.3348 15.9008C46.3723 15.8633 46.391 15.8196 46.391 15.7665C46.391 15.7149 46.3723 15.6696 46.3348 15.6321C46.2973 15.5961 46.2535 15.5774 46.2004 15.5774Z" fill="#111111"/>
<path id="Vector_85" d="M48.1031 15.5774C48.0516 15.5774 48.0063 15.5961 47.9688 15.6321C47.9328 15.6696 47.9141 15.7149 47.9141 15.7665C47.9141 15.8196 47.9328 15.8633 47.9688 15.9008C48.0063 15.9383 48.0516 15.9571 48.1031 15.9571C48.1562 15.9571 48.2016 15.9383 48.2391 15.9008C48.275 15.8633 48.2938 15.8196 48.2938 15.7665C48.2938 15.7149 48.275 15.6696 48.2391 15.6321C48.2016 15.5961 48.1562 15.5774 48.1031 15.5774Z" fill="#111111"/>
<path id="Vector_86" d="M46.2004 13.6772C46.1473 13.6772 46.1035 13.696 46.066 13.7335C46.0285 13.771 46.0098 13.8147 46.0098 13.8679C46.0098 13.921 46.0285 13.9647 46.066 14.0022C46.1035 14.0397 46.1473 14.0585 46.2004 14.0585C46.2535 14.0585 46.2973 14.0397 46.3348 14.0022C46.3723 13.9647 46.391 13.921 46.391 13.8679C46.391 13.8147 46.3723 13.771 46.3348 13.7335C46.2973 13.696 46.2535 13.6772 46.2004 13.6772Z" fill="#111111"/>
<path id="Vector_87" d="M48.1031 13.6772C48.0516 13.6772 48.0063 13.696 47.9688 13.7335C47.9328 13.771 47.9141 13.8147 47.9141 13.8679C47.9141 13.921 47.9328 13.9647 47.9688 14.0022C48.0063 14.0397 48.0516 14.0585 48.1031 14.0585C48.1562 14.0585 48.2016 14.0397 48.2391 14.0022C48.275 13.9647 48.2938 13.921 48.2938 13.8679C48.2938 13.8147 48.275 13.771 48.2391 13.7335C48.2016 13.696 48.1562 13.6772 48.1031 13.6772Z" fill="#111111"/>
<path id="Vector_88" d="M45.3549 16.5587C45.322 16.5368 45.2877 16.5259 45.2486 16.5259C45.2158 16.5259 45.1861 16.5337 45.158 16.5493C45.1314 16.5649 45.108 16.5853 45.0908 16.6118C45.072 16.6384 45.0627 16.6665 45.0595 16.6993C45.0564 16.7306 45.0611 16.7603 45.072 16.7899C45.0955 16.8446 45.1361 16.8806 45.1939 16.8978C45.2502 16.9149 45.3049 16.9071 45.3549 16.8743C45.3861 16.854 45.408 16.8259 45.4236 16.7899C45.433 16.7665 45.4392 16.7415 45.4392 16.7165C45.4392 16.6774 45.4283 16.6431 45.4064 16.6103C45.3924 16.5899 45.3752 16.5728 45.3549 16.5587Z" fill="#111111"/>
<path id="Vector_89" d="M45.3549 14.6603C45.3221 14.6384 45.2877 14.6274 45.2486 14.6274C45.2174 14.6274 45.1877 14.6337 45.1596 14.6478C45.1315 14.6618 45.1096 14.6806 45.0908 14.7056C45.0721 14.7321 45.0611 14.7587 45.0549 14.7899C45.0502 14.8212 45.0533 14.8509 45.0627 14.8806C45.0721 14.9103 45.0877 14.9353 45.1111 14.9571C45.133 14.979 45.1596 14.9946 45.1893 15.004C45.219 15.0134 45.2486 15.0149 45.2799 15.0103C45.3096 15.004 45.3377 14.9931 45.3627 14.9743C45.3877 14.9556 45.4065 14.9321 45.4205 14.904C45.433 14.8759 45.4393 14.8462 45.4393 14.8149C45.4377 14.7837 45.4299 14.754 45.4158 14.7274C45.4002 14.7009 45.3799 14.6774 45.3549 14.6603Z" fill="#111111"/>
<path id="Vector_90" d="M47.1516 20.3242C47.1 20.3242 47.0547 20.343 47.0172 20.3789C46.9797 20.4164 46.9609 20.4617 46.9609 20.5133C46.9609 20.5664 46.9797 20.6102 47.0172 20.6477C47.0547 20.6852 47.1 20.7039 47.1516 20.7039C47.2047 20.7039 47.25 20.6852 47.2859 20.6477C47.3234 20.6102 47.3422 20.5664 47.3422 20.5133C47.3422 20.4617 47.3234 20.4164 47.2859 20.3789C47.25 20.343 47.2047 20.3242 47.1516 20.3242Z" fill="#111111"/>
<path id="Vector_91" d="M47.1516 18.4258C47.1 18.4258 47.0547 18.443 47.0172 18.4805C46.9797 18.518 46.9609 18.5633 46.9609 18.6148C46.9609 18.668 46.9797 18.7117 47.0172 18.7492C47.0547 18.7867 47.1 18.8055 47.1516 18.8055C47.2047 18.8055 47.25 18.7867 47.2859 18.7492C47.3234 18.7117 47.3422 18.668 47.3422 18.6148C47.3422 18.5633 47.3234 18.518 47.2859 18.4805C47.25 18.443 47.2047 18.4258 47.1516 18.4258Z" fill="#111111"/>
<path id="Vector_92" d="M46.2004 19.3726C46.1473 19.3726 46.1035 19.3913 46.066 19.4288C46.0285 19.4663 46.0098 19.5101 46.0098 19.5632C46.0098 19.6147 46.0285 19.6601 46.066 19.6976C46.1035 19.7335 46.1473 19.7522 46.2004 19.7522C46.2535 19.7522 46.2973 19.7335 46.3348 19.6976C46.3723 19.6601 46.391 19.6147 46.391 19.5632C46.391 19.5101 46.3723 19.4663 46.3348 19.4288C46.2973 19.3913 46.2535 19.3726 46.2004 19.3726Z" fill="#111111"/>
<path id="Vector_93" d="M48.1031 19.3726C48.0516 19.3726 48.0063 19.3913 47.9688 19.4288C47.9328 19.4663 47.9141 19.5101 47.9141 19.5632C47.9141 19.6147 47.9328 19.6601 47.9688 19.6976C48.0063 19.7335 48.0516 19.7522 48.1031 19.7522C48.1562 19.7522 48.2016 19.7335 48.2391 19.6976C48.275 19.6601 48.2938 19.6147 48.2938 19.5632C48.2938 19.5101 48.275 19.4663 48.2391 19.4288C48.2016 19.3913 48.1562 19.3726 48.1031 19.3726Z" fill="#111111"/>
<path id="Vector_94" d="M46.2004 17.4758C46.1473 17.4758 46.1035 17.4946 46.066 17.5321C46.0285 17.568 46.0098 17.6133 46.0098 17.6649C46.0098 17.718 46.0285 17.7633 46.066 17.7993C46.1035 17.8368 46.1473 17.8555 46.2004 17.8555C46.2535 17.8555 46.2973 17.8368 46.3348 17.7993C46.3723 17.7633 46.391 17.718 46.391 17.6649C46.391 17.6133 46.3723 17.568 46.3348 17.5321C46.2973 17.4946 46.2535 17.4758 46.2004 17.4758Z" fill="#111111"/>
<path id="Vector_95" d="M48.1031 17.4758C48.0516 17.4758 48.0063 17.4946 47.9688 17.5321C47.9328 17.568 47.9141 17.6133 47.9141 17.6649C47.9141 17.718 47.9328 17.7633 47.9688 17.7993C48.0063 17.8368 48.0516 17.8555 48.1031 17.8555C48.1562 17.8555 48.2016 17.8368 48.2391 17.7993C48.275 17.7633 48.2938 17.718 48.2938 17.6649C48.2938 17.6133 48.275 17.568 48.2391 17.5321C48.2016 17.4946 48.1562 17.4758 48.1031 17.4758Z" fill="#111111"/>
<path id="Vector_96" d="M45.3549 20.357C45.3221 20.3352 45.2877 20.3242 45.2486 20.3242C45.2174 20.3242 45.1877 20.3305 45.1596 20.3445C45.1315 20.3586 45.1096 20.3773 45.0908 20.4023C45.0721 20.4273 45.0611 20.4555 45.0549 20.4867C45.0502 20.5164 45.0533 20.5477 45.0627 20.5758C45.0721 20.6055 45.0877 20.632 45.1111 20.6539C45.133 20.6758 45.1596 20.6914 45.1893 20.7008C45.219 20.7086 45.2486 20.7117 45.2799 20.7055C45.3096 20.7008 45.3377 20.6883 45.3627 20.6695C45.3877 20.6508 45.4065 20.6273 45.4205 20.5992C45.433 20.5711 45.4393 20.543 45.4393 20.5117C45.4377 20.4805 45.4299 20.4508 45.4158 20.4242C45.4002 20.3961 45.3799 20.3742 45.3549 20.357Z" fill="#111111"/>
<path id="Vector_97" d="M45.3549 18.4585C45.3221 18.4351 45.2877 18.4242 45.2486 18.4257C45.2174 18.4242 45.1877 18.432 45.1596 18.446C45.1315 18.4585 45.1096 18.4789 45.0908 18.5039C45.0721 18.5289 45.0611 18.557 45.0549 18.5867C45.0502 18.6179 45.0533 18.6476 45.0627 18.6773C45.0721 18.707 45.0877 18.7335 45.1111 18.7554C45.133 18.7757 45.1596 18.7914 45.1893 18.8007C45.219 18.8101 45.2486 18.8132 45.2799 18.807C45.3096 18.8023 45.3377 18.7898 45.3627 18.771C45.3877 18.7523 45.4065 18.7289 45.4205 18.7007C45.433 18.6726 45.4393 18.6429 45.4393 18.6117C45.4377 18.582 45.4299 18.5523 45.4158 18.5242C45.4002 18.4976 45.3799 18.4757 45.3549 18.4585Z" fill="#111111"/>
<path id="Vector_98" d="M47.1522 24.1196C47.085 24.1212 47.0319 24.1493 46.9944 24.204C46.9569 24.2618 46.9506 24.3212 46.9772 24.3837C47.01 24.4603 47.0694 24.4993 47.1522 24.4993C47.2365 24.4993 47.2944 24.4603 47.3287 24.3837C47.3381 24.3603 47.3428 24.3353 47.3428 24.3103C47.3428 24.2712 47.3319 24.2368 47.31 24.204C47.2725 24.1493 47.2194 24.1212 47.1522 24.1196Z" fill="#111111"/>
<path id="Vector_99" d="M47.1512 22.2227C47.098 22.2227 47.0527 22.2414 47.0152 22.2773C46.9777 22.3148 46.959 22.3602 46.959 22.4133C46.959 22.4664 46.9777 22.5117 47.0152 22.5492C47.0527 22.5867 47.098 22.6055 47.1512 22.6055C47.2043 22.6055 47.2496 22.5867 47.2871 22.5477C47.323 22.5102 47.3418 22.4648 47.3418 22.4133C47.3418 22.3602 47.323 22.3148 47.2855 22.2789C47.2496 22.2414 47.2043 22.2227 47.1512 22.2227Z" fill="#111111"/>
<path id="Vector_100" d="M46.2004 23.1726C46.1473 23.1726 46.1035 23.1898 46.066 23.2273C46.0285 23.2648 46.0098 23.3085 46.0098 23.3617C46.0098 23.4132 46.0285 23.4585 46.066 23.496C46.102 23.5335 46.1473 23.5507 46.1988 23.5523C46.252 23.5523 46.2973 23.5335 46.3348 23.4976C46.3723 23.4601 46.391 23.4148 46.391 23.3632C46.391 23.3101 46.3723 23.2648 46.3363 23.2273C46.2988 23.1914 46.2535 23.1726 46.2004 23.1726Z" fill="#111111"/>
<path id="Vector_101" d="M48.1031 23.1726C48.0516 23.1726 48.0063 23.1898 47.9688 23.2273C47.9328 23.2648 47.9141 23.3085 47.9141 23.3617C47.9141 23.4132 47.9313 23.4585 47.9688 23.496C48.0063 23.5335 48.05 23.5507 48.1031 23.5523C48.1547 23.5523 48.2 23.5335 48.2375 23.4976C48.275 23.4601 48.2938 23.4148 48.2938 23.3632C48.2953 23.3101 48.2766 23.2648 48.2391 23.2273C48.2016 23.1914 48.1562 23.1726 48.1031 23.1726Z" fill="#111111"/>
<path id="Vector_102" d="M46.2004 21.2727C46.1473 21.2727 46.1035 21.2915 46.066 21.329C46.0285 21.3665 46.0098 21.4102 46.0098 21.4633C46.0098 21.5149 46.0285 21.5602 46.066 21.5977C46.1035 21.6352 46.1473 21.6524 46.2004 21.6524C46.2535 21.6524 46.2973 21.6352 46.3348 21.5977C46.3723 21.5602 46.391 21.5149 46.391 21.4633C46.391 21.4102 46.3723 21.3665 46.3348 21.329C46.2973 21.2915 46.2535 21.2727 46.2004 21.2727Z" fill="#111111"/>
<path id="Vector_103" d="M48.1031 21.2727C48.0516 21.2727 48.0063 21.2915 47.9688 21.329C47.9328 21.3665 47.9141 21.4102 47.9141 21.4633C47.9141 21.5149 47.9328 21.5602 47.9688 21.5977C48.0063 21.6352 48.0516 21.6524 48.1031 21.6524C48.1562 21.6524 48.2016 21.6352 48.2391 21.5977C48.275 21.5602 48.2938 21.5149 48.2938 21.4633C48.2938 21.4102 48.275 21.3665 48.2391 21.329C48.2016 21.2915 48.1562 21.2727 48.1031 21.2727Z" fill="#111111"/>
<path id="Vector_104" d="M45.355 24.154C45.3113 24.1243 45.2628 24.115 45.2113 24.1243C45.1597 24.1353 45.1191 24.1618 45.0894 24.2056C45.0519 24.2634 45.0472 24.3228 45.0722 24.3853C45.0956 24.44 45.1363 24.4759 45.1941 24.4931C45.2503 24.5103 45.305 24.5025 45.355 24.4697C45.3863 24.4478 45.4081 24.4197 45.4238 24.3853C45.4331 24.3618 45.4394 24.3368 45.4394 24.3118C45.4394 24.2728 45.4285 24.2384 45.4066 24.2056C45.3925 24.1853 45.3753 24.1681 45.355 24.154Z" fill="#111111"/>
<path id="Vector_105" d="M45.3551 22.2555C45.3223 22.2336 45.2879 22.2227 45.2488 22.2227C45.1988 22.2273 45.1566 22.2477 45.1238 22.2836C45.0895 22.3195 45.0723 22.3633 45.0723 22.4133C45.0723 22.4633 45.0895 22.5055 45.1238 22.543C45.1566 22.5789 45.1988 22.5992 45.2488 22.6039C45.2879 22.6039 45.3223 22.593 45.3551 22.5711C45.3801 22.5523 45.402 22.5305 45.416 22.5023C45.4316 22.4742 45.4379 22.4445 45.4379 22.4133C45.4379 22.382 45.4316 22.3523 45.416 22.3242C45.402 22.2961 45.3801 22.2727 45.3551 22.2555Z" fill="#111111"/>
<path id="Vector_106" d="M46.2004 25.071C46.1473 25.071 46.1035 25.0898 46.066 25.1257C46.0285 25.1632 46.0098 25.2085 46.0098 25.2601C46.0098 25.3132 46.0285 25.357 46.066 25.3945C46.102 25.432 46.1473 25.4507 46.1988 25.4507C46.252 25.4507 46.2973 25.432 46.3348 25.396C46.3723 25.3585 46.391 25.3148 46.391 25.2617C46.391 25.2085 46.3723 25.1648 46.3363 25.1273C46.2988 25.0898 46.2535 25.071 46.2004 25.071Z" fill="#111111"/>
<path id="Vector_107" d="M48.1031 25.071C48.0516 25.071 48.0063 25.0898 47.9688 25.1257C47.9328 25.1632 47.9141 25.2085 47.9141 25.2601C47.9141 25.3132 47.9313 25.357 47.9688 25.3945C48.0063 25.432 48.05 25.4507 48.1031 25.4507C48.1547 25.4507 48.2 25.432 48.2375 25.396C48.275 25.3585 48.2938 25.3148 48.2938 25.2617C48.2953 25.2085 48.2766 25.1648 48.2391 25.1273C48.2016 25.0898 48.1562 25.071 48.1031 25.071Z" fill="#111111"/>
<path id="Vector_108" d="M43.3434 5.13208C43.2918 5.13208 43.2465 5.15083 43.209 5.18833C43.173 5.22427 43.1543 5.26958 43.1543 5.32271C43.1543 5.37427 43.173 5.41958 43.209 5.45708C43.2465 5.49302 43.2918 5.51177 43.3434 5.51177C43.3965 5.51177 43.4418 5.49302 43.4793 5.45708C43.5152 5.41958 43.534 5.37427 43.534 5.32271C43.534 5.26958 43.5152 5.22427 43.4793 5.18833C43.4418 5.15083 43.3965 5.13208 43.3434 5.13208Z" fill="#111111"/>
<path id="Vector_109" d="M44.2971 4.18359C44.2439 4.18359 44.1986 4.20234 44.1611 4.23984C44.1252 4.27734 44.1064 4.32109 44.1064 4.37422C44.1064 4.42578 44.1252 4.47109 44.1611 4.50859C44.1986 4.54609 44.2439 4.56328 44.2971 4.56328C44.3486 4.56328 44.3939 4.54609 44.4314 4.50859C44.4689 4.47109 44.4861 4.42578 44.4861 4.37422C44.4877 4.32109 44.4689 4.27734 44.4314 4.23984C44.3939 4.20234 44.3486 4.18359 44.2971 4.18359Z" fill="#111111"/>
<path id="Vector_110" d="M43.3434 8.93042C43.2762 8.93042 43.223 8.95854 43.1855 9.01479C43.1637 9.04761 43.1543 9.08198 43.1543 9.12104C43.1543 9.14604 43.159 9.17104 43.1684 9.19448C43.2012 9.27104 43.2605 9.31011 43.3434 9.31011C43.4277 9.31011 43.4871 9.27104 43.5199 9.19448C43.5293 9.17104 43.534 9.14604 43.534 9.12104C43.534 9.08198 43.523 9.04761 43.5012 9.01479C43.4637 8.96011 43.4121 8.93198 43.3434 8.93042Z" fill="#111111"/>
<path id="Vector_111" d="M43.3434 7.03198C43.2918 7.03198 43.2465 7.05073 43.209 7.08823C43.173 7.12573 43.1543 7.16948 43.1543 7.22261C43.1543 7.27417 43.173 7.31948 43.209 7.35698C43.2465 7.39292 43.2918 7.41167 43.3434 7.41167C43.3965 7.41167 43.4418 7.39292 43.4793 7.35698C43.5152 7.31948 43.534 7.27417 43.534 7.22261C43.534 7.16948 43.5152 7.12573 43.4793 7.08823C43.4418 7.05073 43.3965 7.03198 43.3434 7.03198Z" fill="#111111"/>
<path id="Vector_112" d="M42.3918 7.98193C42.3402 7.98193 42.2949 8.00068 42.2574 8.03662C42.2199 8.07412 42.2012 8.11943 42.2012 8.171C42.2012 8.22412 42.2199 8.26943 42.2574 8.30537C42.2949 8.34287 42.3402 8.36162 42.3918 8.36162C42.4449 8.36162 42.4902 8.34287 42.5262 8.30537C42.5637 8.26943 42.5824 8.22412 42.5824 8.171C42.5824 8.11943 42.5637 8.07412 42.5262 8.03662C42.4902 8.00068 42.4449 7.98193 42.3918 7.98193Z" fill="#111111"/>
<path id="Vector_113" d="M44.2971 7.98193C44.2439 7.98193 44.1986 8.00068 44.1611 8.03662C44.1252 8.07412 44.1064 8.11943 44.1064 8.171C44.1064 8.22412 44.1252 8.26943 44.1611 8.30537C44.1986 8.34287 44.2439 8.36162 44.2971 8.36162C44.3486 8.36162 44.3939 8.34287 44.4314 8.30537C44.4689 8.26943 44.4861 8.22412 44.4861 8.171C44.4861 8.11943 44.4689 8.07412 44.4314 8.03662C44.3939 8.00068 44.3486 7.98193 44.2971 7.98193Z" fill="#111111"/>
<path id="Vector_114" d="M44.2971 6.08359C44.2439 6.08359 44.1986 6.10077 44.1611 6.13827C44.1252 6.17577 44.1064 6.22109 44.1064 6.27265C44.1064 6.32577 44.1252 6.36952 44.1611 6.40702C44.1986 6.44452 44.2439 6.46327 44.2971 6.46327C44.3486 6.46327 44.3939 6.44452 44.4314 6.40702C44.4689 6.36952 44.4861 6.32577 44.4861 6.27265C44.4877 6.21952 44.4689 6.17577 44.4314 6.13827C44.3939 6.10077 44.3486 6.08202 44.2971 6.08359Z" fill="#111111"/>
<path id="Vector_115" d="M41.4752 8.93525C41.4627 8.93369 41.4502 8.93369 41.4377 8.93525C41.4111 8.93525 41.3861 8.93994 41.3627 8.94932C41.3283 8.96494 41.3002 8.98838 41.2783 9.01963C41.2564 9.05088 41.2471 9.08682 41.2471 9.12432C41.2471 9.15088 41.2518 9.17588 41.2611 9.19932C41.2814 9.24619 41.3158 9.28057 41.3627 9.30088C41.3861 9.31025 41.4111 9.31494 41.4377 9.31494C41.4502 9.3165 41.4627 9.3165 41.4752 9.31494C41.5393 9.30088 41.583 9.26338 41.608 9.20244C41.6189 9.179 41.6236 9.15557 41.6236 9.129C41.6236 9.08994 41.6127 9.05557 41.5908 9.02432C41.5643 8.97744 41.5252 8.94932 41.4752 8.93525Z" fill="#111111"/>
<path id="Vector_116" d="M43.3434 12.729C43.2918 12.729 43.2465 12.7478 43.209 12.7837C43.173 12.8212 43.1543 12.8665 43.1543 12.9181C43.1543 12.9712 43.173 13.0165 43.209 13.0524C43.2465 13.0899 43.2918 13.1087 43.3434 13.1087C43.3965 13.1087 43.4418 13.0899 43.4793 13.0524C43.5152 13.0165 43.534 12.9712 43.534 12.9181C43.534 12.8665 43.5152 12.8212 43.4793 12.7837C43.4418 12.7478 43.3965 12.729 43.3434 12.729Z" fill="#111111"/>
<path id="Vector_117" d="M43.3434 10.8306C43.2918 10.8306 43.2465 10.8493 43.209 10.8853C43.173 10.9228 43.1543 10.9681 43.1543 11.0196C43.1543 11.0728 43.173 11.1165 43.209 11.154C43.2465 11.1915 43.2918 11.2103 43.3434 11.2103C43.3965 11.2103 43.4418 11.1915 43.4793 11.154C43.5152 11.1165 43.534 11.0728 43.534 11.0196C43.534 10.9681 43.5152 10.9228 43.4793 10.8853C43.4418 10.8493 43.3965 10.8306 43.3434 10.8306Z" fill="#111111"/>
<path id="Vector_118" d="M42.3918 11.7788C42.3402 11.7788 42.2949 11.7976 42.2574 11.8351C42.2199 11.8726 42.2012 11.9163 42.2012 11.9694C42.2012 12.021 42.2199 12.0663 42.2574 12.1038C42.2949 12.1397 42.3402 12.1585 42.3918 12.1585C42.4449 12.1585 42.4902 12.1397 42.5262 12.1038C42.5637 12.0663 42.5824 12.021 42.5824 11.9694C42.5824 11.9163 42.5637 11.8726 42.5262 11.8351C42.4902 11.7976 42.4449 11.7788 42.3918 11.7788Z" fill="#111111"/>
<path id="Vector_119" d="M44.2971 11.7788C44.2439 11.7788 44.1986 11.7976 44.1611 11.8351C44.1252 11.8726 44.1064 11.9163 44.1064 11.9694C44.1064 12.021 44.1252 12.0663 44.1611 12.1038C44.1986 12.1397 44.2439 12.1585 44.2971 12.1585C44.3486 12.1585 44.3939 12.1397 44.4314 12.1038C44.4689 12.0663 44.4861 12.021 44.4861 11.9694C44.4861 11.9163 44.4689 11.8726 44.4314 11.8351C44.3939 11.7976 44.3486 11.7788 44.2971 11.7788Z" fill="#111111"/>
<path id="Vector_120" d="M42.3918 9.87891C42.3402 9.87891 42.2949 9.89766 42.2574 9.93516C42.2199 9.97266 42.2012 10.0164 42.2012 10.0695C42.2012 10.1211 42.2199 10.1664 42.2574 10.2039C42.2949 10.2398 42.3402 10.2586 42.3918 10.2586C42.4449 10.2586 42.4902 10.2398 42.5262 10.2039C42.5637 10.1664 42.5824 10.1211 42.5824 10.0695C42.5824 10.0164 42.5637 9.97266 42.5262 9.93516C42.4902 9.89766 42.4449 9.87891 42.3918 9.87891Z" fill="#111111"/>
<path id="Vector_121" d="M44.2971 9.87891C44.2439 9.87891 44.1986 9.89766 44.1611 9.93516C44.1252 9.97266 44.1064 10.0164 44.1064 10.0695C44.1064 10.1211 44.1252 10.1664 44.1611 10.2039C44.1986 10.2398 44.2439 10.2586 44.2971 10.2586C44.3486 10.2586 44.3939 10.2398 44.4314 10.2039C44.4689 10.1664 44.4861 10.1211 44.4861 10.0695C44.4861 10.0164 44.4689 9.97266 44.4314 9.93516C44.3939 9.89766 44.3486 9.87891 44.2971 9.87891Z" fill="#111111"/>
<path id="Vector_122" d="M41.4752 12.7319C41.4627 12.7319 41.4502 12.7319 41.4377 12.7319C41.4111 12.7319 41.3861 12.7382 41.3627 12.7491C41.2861 12.7819 41.2471 12.8397 41.2471 12.9226C41.2471 13.0069 41.2861 13.0647 41.3627 13.0976C41.3861 13.1069 41.4111 13.1116 41.4377 13.1116C41.4502 13.1132 41.4627 13.1132 41.4752 13.1116C41.5189 13.1038 41.5564 13.0819 41.5846 13.046C41.6127 13.0116 41.6268 12.971 41.6268 12.9257C41.6283 12.8804 41.6143 12.8382 41.5861 12.8022C41.558 12.7663 41.5205 12.7429 41.4752 12.7319Z" fill="#111111"/>
<path id="Vector_123" d="M41.4752 10.8337C41.4627 10.8321 41.4502 10.8321 41.4377 10.8337C41.4111 10.8337 41.3861 10.8384 41.3627 10.8493C41.2861 10.8821 41.2471 10.9415 41.2471 11.0243C41.2471 11.1087 41.2861 11.1665 41.3627 11.1993C41.3861 11.2087 41.4111 11.2134 41.4377 11.2134C41.4502 11.2149 41.4627 11.2149 41.4752 11.2134C41.5189 11.204 41.5564 11.1821 41.5846 11.1478C41.6127 11.1134 41.6268 11.0728 41.6268 11.0274C41.6283 10.9821 41.6143 10.9399 41.5861 10.904C41.558 10.8665 41.5205 10.8431 41.4752 10.8337Z" fill="#111111"/>
<path id="Vector_124" d="M43.3433 16.5259C43.3121 16.5259 43.2824 16.5337 43.2543 16.5493C43.2261 16.5649 43.2043 16.5853 43.1855 16.6118C43.1683 16.6384 43.1574 16.6665 43.1543 16.6993C43.1511 16.7306 43.1558 16.7603 43.1683 16.7899C43.2011 16.8665 43.2605 16.9056 43.3433 16.9056C43.4277 16.9056 43.4871 16.8665 43.5199 16.7899C43.5293 16.7665 43.5339 16.7415 43.5339 16.7165C43.5339 16.6774 43.523 16.6431 43.5011 16.6103C43.4636 16.5556 43.4121 16.5274 43.3433 16.5259Z" fill="#111111"/>
<path id="Vector_125" d="M43.3434 14.6257C43.2918 14.6257 43.2465 14.6445 43.209 14.682C43.173 14.7195 43.1543 14.7632 43.1543 14.8164C43.1543 14.8679 43.173 14.9132 43.209 14.9507C43.2465 14.9867 43.2918 15.0054 43.3434 15.0054C43.3965 15.0054 43.4418 14.9867 43.4793 14.9507C43.5152 14.9132 43.534 14.8679 43.534 14.8164C43.534 14.7632 43.5152 14.7195 43.4793 14.682C43.4418 14.6445 43.3965 14.6257 43.3434 14.6257Z" fill="#111111"/>
<path id="Vector_126" d="M42.3918 15.5774C42.3402 15.5774 42.2949 15.5961 42.2574 15.6321C42.2199 15.6696 42.2012 15.7149 42.2012 15.7665C42.2012 15.8196 42.2199 15.8633 42.2574 15.9008C42.2949 15.9383 42.3402 15.9571 42.3918 15.9571C42.4449 15.9571 42.4902 15.9383 42.5262 15.9008C42.5637 15.8633 42.5824 15.8196 42.5824 15.7665C42.5824 15.7149 42.5637 15.6696 42.5262 15.6321C42.4902 15.5961 42.4449 15.5774 42.3918 15.5774Z" fill="#111111"/>
<path id="Vector_127" d="M44.2971 15.5774C44.2439 15.5774 44.1986 15.5961 44.1611 15.6321C44.1252 15.6696 44.1064 15.7149 44.1064 15.7665C44.1064 15.8196 44.1252 15.8633 44.1611 15.9008C44.1986 15.9383 44.2439 15.9571 44.2971 15.9571C44.3486 15.9571 44.3939 15.9383 44.4314 15.9008C44.4689 15.8633 44.4861 15.8196 44.4861 15.7665C44.4861 15.7149 44.4689 15.6696 44.4314 15.6321C44.3939 15.5961 44.3486 15.5774 44.2971 15.5774Z" fill="#111111"/>
<path id="Vector_128" d="M42.3918 13.6772C42.3402 13.6772 42.2949 13.696 42.2574 13.7335C42.2199 13.771 42.2012 13.8147 42.2012 13.8679C42.2012 13.921 42.2199 13.9647 42.2574 14.0022C42.2949 14.0397 42.3402 14.0585 42.3918 14.0585C42.4449 14.0585 42.4902 14.0397 42.5262 14.0022C42.5637 13.9647 42.5824 13.921 42.5824 13.8679C42.5824 13.8147 42.5637 13.771 42.5262 13.7335C42.4902 13.696 42.4449 13.6772 42.3918 13.6772Z" fill="#111111"/>
<path id="Vector_129" d="M44.2971 13.6772C44.2439 13.6772 44.1986 13.696 44.1611 13.7335C44.1252 13.771 44.1064 13.8147 44.1064 13.8679C44.1064 13.921 44.1252 13.9647 44.1611 14.0022C44.1986 14.0397 44.2439 14.0585 44.2971 14.0585C44.3486 14.0585 44.3939 14.0397 44.4314 14.0022C44.4689 13.9647 44.4861 13.921 44.4861 13.8679C44.4861 13.8147 44.4689 13.771 44.4314 13.7335C44.3939 13.696 44.3486 13.6772 44.2971 13.6772Z" fill="#111111"/>
<path id="Vector_130" d="M41.4752 16.5305C41.4627 16.5289 41.4502 16.5289 41.4377 16.5305C41.4111 16.5305 41.3861 16.5352 41.3627 16.5461C41.3283 16.5602 41.3002 16.5836 41.2783 16.6148C41.2564 16.6461 41.2471 16.682 41.2471 16.7195C41.2471 16.7461 41.2518 16.7695 41.2611 16.7945C41.2814 16.8414 41.3158 16.8758 41.3627 16.8961C41.3861 16.9055 41.4111 16.9102 41.4377 16.9102C41.4502 16.9117 41.4627 16.9117 41.4752 16.9102C41.5393 16.8961 41.583 16.8586 41.608 16.7977C41.6189 16.7742 41.6236 16.7492 41.6236 16.7242C41.6236 16.6852 41.6127 16.6508 41.5908 16.618C41.5643 16.5727 41.5252 16.5445 41.4752 16.5305Z" fill="#111111"/>
<path id="Vector_131" d="M41.4752 14.6257C41.4627 14.6241 41.4502 14.6241 41.4377 14.6257C41.4111 14.6257 41.3861 14.6304 41.3627 14.6413C41.2861 14.6741 41.2471 14.7335 41.2471 14.8163C41.2471 14.9007 41.2861 14.9585 41.3627 14.9913C41.3861 15.0007 41.4111 15.0054 41.4377 15.0054C41.4502 15.0069 41.4627 15.0069 41.4752 15.0054C41.5189 14.996 41.5564 14.9741 41.5846 14.9397C41.6127 14.9054 41.6268 14.8647 41.6268 14.8194C41.6283 14.7741 41.6143 14.7319 41.5861 14.696C41.558 14.6585 41.5205 14.6366 41.4752 14.6257Z" fill="#111111"/>
<path id="Vector_132" d="M43.3434 20.3242C43.2918 20.3242 43.2465 20.343 43.209 20.3789C43.173 20.4164 43.1543 20.4617 43.1543 20.5133C43.1543 20.5664 43.173 20.6102 43.209 20.6477C43.2465 20.6852 43.2918 20.7039 43.3434 20.7039C43.3965 20.7039 43.4418 20.6852 43.4793 20.6477C43.5152 20.6102 43.534 20.5664 43.534 20.5133C43.534 20.4617 43.5152 20.4164 43.4793 20.3789C43.4418 20.343 43.3965 20.3242 43.3434 20.3242Z" fill="#111111"/>
<path id="Vector_133" d="M43.3434 18.4258C43.2918 18.4258 43.2465 18.443 43.209 18.4805C43.173 18.518 43.1543 18.5633 43.1543 18.6148C43.1543 18.668 43.173 18.7117 43.209 18.7492C43.2465 18.7867 43.2918 18.8055 43.3434 18.8055C43.3965 18.8055 43.4418 18.7867 43.4793 18.7492C43.5152 18.7117 43.534 18.668 43.534 18.6148C43.534 18.5633 43.5152 18.518 43.4793 18.4805C43.4418 18.443 43.3965 18.4258 43.3434 18.4258Z" fill="#111111"/>
<path id="Vector_134" d="M42.3918 19.3726C42.3402 19.3726 42.2949 19.3913 42.2574 19.4288C42.2199 19.4663 42.2012 19.5101 42.2012 19.5632C42.2012 19.6147 42.2199 19.6601 42.2574 19.6976C42.2949 19.7335 42.3402 19.7522 42.3918 19.7522C42.4449 19.7522 42.4902 19.7335 42.5262 19.6976C42.5637 19.6601 42.5824 19.6147 42.5824 19.5632C42.5824 19.5101 42.5637 19.4663 42.5262 19.4288C42.4902 19.3913 42.4449 19.3726 42.3918 19.3726Z" fill="#111111"/>
<path id="Vector_135" d="M44.2971 19.3726C44.2439 19.3726 44.1986 19.3913 44.1611 19.4288C44.1252 19.4663 44.1064 19.5101 44.1064 19.5632C44.1064 19.6147 44.1252 19.6601 44.1611 19.6976C44.1986 19.7335 44.2439 19.7522 44.2971 19.7522C44.3486 19.7522 44.3939 19.7335 44.4314 19.6976C44.4689 19.6601 44.4861 19.6147 44.4861 19.5632C44.4861 19.5101 44.4689 19.4663 44.4314 19.4288C44.3939 19.3913 44.3486 19.3726 44.2971 19.3726Z" fill="#111111"/>
<path id="Vector_136" d="M42.3918 17.4758C42.3402 17.4758 42.2949 17.4946 42.2574 17.5321C42.2199 17.568 42.2012 17.6133 42.2012 17.6649C42.2012 17.718 42.2199 17.7633 42.2574 17.7993C42.2949 17.8368 42.3402 17.8555 42.3918 17.8555C42.4449 17.8555 42.4902 17.8368 42.5262 17.7993C42.5637 17.7633 42.5824 17.718 42.5824 17.6649C42.5824 17.6133 42.5637 17.568 42.5262 17.5321C42.4902 17.4946 42.4449 17.4758 42.3918 17.4758Z" fill="#111111"/>
<path id="Vector_137" d="M44.2971 17.4758C44.2439 17.4758 44.1986 17.4946 44.1611 17.5321C44.1252 17.568 44.1064 17.6133 44.1064 17.6649C44.1064 17.718 44.1252 17.7633 44.1611 17.7993C44.1986 17.8368 44.2439 17.8555 44.2971 17.8555C44.3486 17.8555 44.3939 17.8368 44.4314 17.7993C44.4689 17.7633 44.4861 17.718 44.4861 17.6649C44.4861 17.6133 44.4689 17.568 44.4314 17.5321C44.3939 17.4946 44.3486 17.4758 44.2971 17.4758Z" fill="#111111"/>
<path id="Vector_138" d="M41.4752 20.3273C41.4627 20.3258 41.4502 20.3258 41.4377 20.3273C41.4111 20.3273 41.3861 20.3336 41.3627 20.343C41.2861 20.3758 41.2471 20.4352 41.2471 20.518C41.2471 20.6023 41.2861 20.6602 41.3627 20.693C41.3861 20.7023 41.4111 20.707 41.4377 20.707C41.4502 20.7086 41.4627 20.7086 41.4752 20.707C41.5189 20.6992 41.5564 20.6758 41.5846 20.6414C41.6127 20.607 41.6268 20.5664 41.6268 20.5211C41.6283 20.4758 41.6143 20.4336 41.5861 20.3977C41.558 20.3602 41.5205 20.3383 41.4752 20.3273Z" fill="#111111"/>
<path id="Vector_139" d="M41.4752 18.4289C41.4627 18.4273 41.4502 18.4273 41.4377 18.4289C41.4111 18.4289 41.3861 18.4336 41.3627 18.4445C41.2861 18.4773 41.2471 18.5352 41.2471 18.6195C41.2471 18.7039 41.2861 18.7617 41.3627 18.7945C41.3861 18.8039 41.4111 18.8086 41.4377 18.8086H41.4752C41.5752 18.7867 41.6252 18.7242 41.6252 18.6227C41.6252 18.5195 41.5752 18.4586 41.4752 18.4352V18.4289Z" fill="#111111"/>
<path id="Vector_140" d="M43.3436 24.1196C43.2764 24.1212 43.2233 24.1493 43.1858 24.204C43.1483 24.2618 43.142 24.3212 43.1686 24.3837C43.2014 24.4603 43.2608 24.4993 43.3436 24.4993C43.428 24.4993 43.4873 24.4603 43.5201 24.3837C43.5295 24.3603 43.5342 24.3353 43.5342 24.3103C43.5342 24.2712 43.5233 24.2368 43.5014 24.204C43.4639 24.1493 43.4123 24.1212 43.3436 24.1196Z" fill="#111111"/>
<path id="Vector_141" d="M43.3436 22.2227C43.2904 22.2227 43.2451 22.2414 43.2076 22.2773C43.1701 22.3148 43.1514 22.3602 43.1514 22.4133C43.1514 22.4664 43.1701 22.5117 43.2076 22.5492C43.2451 22.5867 43.2904 22.6055 43.3436 22.6055C43.3967 22.6055 43.442 22.5867 43.4795 22.5477C43.517 22.5102 43.5357 22.4648 43.5342 22.4133C43.5342 22.3602 43.5154 22.3148 43.4795 22.2789C43.442 22.2414 43.3967 22.2227 43.3436 22.2227Z" fill="#111111"/>
<path id="Vector_142" d="M42.3918 23.1726C42.3402 23.1726 42.2949 23.1898 42.2574 23.2273C42.2199 23.2648 42.2012 23.3085 42.2012 23.3617C42.2012 23.4132 42.2199 23.4585 42.2574 23.496C42.2934 23.5335 42.3387 23.5507 42.3918 23.5523C42.4434 23.5523 42.4887 23.5335 42.5262 23.4976C42.5637 23.4601 42.5824 23.4148 42.5824 23.3632C42.5824 23.3101 42.5652 23.2648 42.5277 23.2273C42.4902 23.1914 42.4449 23.1726 42.3918 23.1726Z" fill="#111111"/>
<path id="Vector_143" d="M44.2971 23.1726C44.2439 23.1726 44.1986 23.1898 44.1627 23.2273C44.1252 23.2648 44.1064 23.3085 44.1064 23.3617C44.1064 23.4132 44.1252 23.4585 44.1611 23.496C44.1986 23.5335 44.2424 23.5507 44.2955 23.5523C44.3486 23.5523 44.3924 23.5335 44.4299 23.4976C44.4674 23.4601 44.4861 23.4148 44.4861 23.3632C44.4877 23.3101 44.4689 23.2648 44.4314 23.2273C44.3939 23.1914 44.3486 23.1726 44.2971 23.1726Z" fill="#111111"/>
<path id="Vector_144" d="M42.3918 21.2727C42.3402 21.2727 42.2949 21.2915 42.2574 21.329C42.2199 21.3665 42.2012 21.4102 42.2012 21.4633C42.2012 21.5149 42.2199 21.5602 42.2574 21.5977C42.2949 21.6352 42.3402 21.6524 42.3918 21.6524C42.4449 21.6524 42.4902 21.6352 42.5262 21.5977C42.5637 21.5602 42.5824 21.5149 42.5824 21.4633C42.5824 21.4102 42.5637 21.3665 42.5262 21.329C42.4902 21.2915 42.4449 21.2727 42.3918 21.2727Z" fill="#111111"/>
<path id="Vector_145" d="M44.2971 21.2727C44.2439 21.2727 44.1986 21.2915 44.1611 21.329C44.1252 21.3665 44.1064 21.4102 44.1064 21.4633C44.1064 21.5149 44.1252 21.5602 44.1611 21.5977C44.1986 21.6352 44.2439 21.6524 44.2971 21.6524C44.3486 21.6524 44.3939 21.6352 44.4314 21.5977C44.4689 21.5602 44.4861 21.5149 44.4861 21.4633C44.4861 21.4102 44.4689 21.3665 44.4314 21.329C44.3939 21.2915 44.3486 21.2727 44.2971 21.2727Z" fill="#111111"/>
<path id="Vector_146" d="M41.4752 24.1196C41.4627 24.118 41.4502 24.118 41.4377 24.1196C41.4048 24.1211 41.3752 24.1274 41.347 24.143C41.3189 24.1586 41.297 24.179 41.2783 24.2055C41.2611 24.2321 41.2502 24.2602 41.247 24.293C41.2439 24.3243 41.2486 24.354 41.2611 24.3836C41.2814 24.4321 41.3158 24.4649 41.3627 24.4852C41.3861 24.4946 41.4111 24.4993 41.4377 24.4993C41.4502 24.5008 41.4627 24.5008 41.4752 24.4993C41.5392 24.4868 41.583 24.4493 41.608 24.3883C41.6189 24.3649 41.6236 24.3399 41.6236 24.3133C41.6236 24.2758 41.6127 24.2399 41.5908 24.2086C41.5642 24.1633 41.5252 24.1336 41.4752 24.1196Z" fill="#111111"/>
<path id="Vector_147" d="M41.4752 22.2272C41.4627 22.2257 41.4502 22.2257 41.4377 22.2272C41.4111 22.2257 41.3861 22.2319 41.3627 22.2429C41.2861 22.2757 41.2471 22.3335 41.2471 22.4163C41.2471 22.5007 41.2861 22.5585 41.3627 22.5913C41.3861 22.6022 41.4111 22.6069 41.4377 22.6069C41.4502 22.6085 41.4627 22.6085 41.4752 22.6069C41.5752 22.5851 41.6252 22.5226 41.6252 22.421C41.6252 22.3194 41.5752 22.2569 41.4752 22.2351V22.2272Z" fill="#111111"/>
<path id="Vector_148" d="M42.3918 25.071C42.3402 25.071 42.2949 25.0898 42.2574 25.1257C42.2199 25.1632 42.2012 25.2085 42.2012 25.2601C42.2012 25.3132 42.2199 25.357 42.2574 25.3945C42.2934 25.432 42.3387 25.4507 42.3918 25.4507C42.4434 25.4507 42.4887 25.432 42.5262 25.396C42.5637 25.3585 42.5824 25.3148 42.5824 25.2617C42.5824 25.2085 42.5652 25.1648 42.5277 25.1273C42.4902 25.0898 42.4449 25.071 42.3918 25.071Z" fill="#111111"/>
<path id="Vector_149" d="M44.2971 25.071C44.2439 25.071 44.1986 25.0898 44.1627 25.1257C44.1252 25.1632 44.1064 25.2085 44.1064 25.2601C44.1064 25.3132 44.1252 25.357 44.1611 25.3945C44.1986 25.432 44.2424 25.4507 44.2955 25.4507C44.3486 25.4507 44.3924 25.432 44.4299 25.396C44.4674 25.3585 44.4861 25.3148 44.4861 25.2617C44.4877 25.2085 44.4689 25.1648 44.4314 25.1273C44.3939 25.0898 44.3486 25.071 44.2971 25.071Z" fill="#111111"/>
<path id="Vector_150" d="M39.5373 12.729C39.4842 12.729 39.4389 12.7478 39.4014 12.7837C39.3654 12.8212 39.3467 12.8665 39.3467 12.9181C39.3467 12.9712 39.3654 13.0165 39.4014 13.0524C39.4389 13.0899 39.4842 13.1087 39.5373 13.1087C39.5889 13.1087 39.6342 13.0899 39.6717 13.0524C39.7092 13.0165 39.7264 12.9712 39.7264 12.9181C39.7264 12.8665 39.7092 12.8212 39.6717 12.7837C39.6342 12.7478 39.5889 12.729 39.5373 12.729Z" fill="#111111"/>
<path id="Vector_151" d="M40.4893 11.7788C40.4362 11.7804 40.3925 11.7991 40.355 11.8366C40.319 11.8741 40.3003 11.9179 40.3018 11.971C40.3018 12.0226 40.3206 12.0679 40.3581 12.1038C40.3956 12.1413 40.4409 12.1585 40.4925 12.1585C40.5456 12.1585 40.5893 12.1397 40.6268 12.1038C40.6643 12.0663 40.6815 12.021 40.6815 11.9694C40.6815 11.9163 40.6628 11.871 40.6253 11.8335C40.5878 11.796 40.5425 11.7788 40.4893 11.7788Z" fill="#111111"/>
<path id="Vector_152" d="M40.4893 9.87891C40.4362 9.88047 40.3925 9.89922 40.355 9.93672C40.319 9.97422 40.3003 10.018 40.3018 10.0711C40.3018 10.1227 40.3206 10.1664 40.3581 10.2039C40.394 10.2398 40.4393 10.2586 40.4925 10.2586C40.544 10.2586 40.5893 10.2398 40.6253 10.2039C40.6628 10.1664 40.6815 10.1227 40.6815 10.0711C40.6831 10.018 40.6643 9.97109 40.6253 9.93359C40.5878 9.89609 40.5425 9.87891 40.4893 9.87891Z" fill="#111111"/>
<path id="Vector_153" d="M39.5378 16.5259C39.505 16.5259 39.4753 16.5337 39.4472 16.5493C39.4191 16.5649 39.3972 16.5853 39.3785 16.6118C39.3613 16.6384 39.3519 16.6665 39.3488 16.6993C39.3457 16.7306 39.3488 16.7603 39.3613 16.7899C39.3941 16.8665 39.4535 16.9056 39.5378 16.9056C39.6207 16.9056 39.68 16.8665 39.7128 16.7899C39.7222 16.7665 39.7285 16.7415 39.7269 16.7165C39.7285 16.6774 39.7175 16.6431 39.6941 16.6103C39.6566 16.5556 39.605 16.5274 39.5378 16.5259Z" fill="#111111"/>
<path id="Vector_154" d="M39.5373 14.6257C39.4842 14.6257 39.4389 14.6445 39.4014 14.682C39.3654 14.7195 39.3467 14.7632 39.3467 14.8164C39.3467 14.8679 39.3654 14.9132 39.4014 14.9507C39.4389 14.9867 39.4842 15.0054 39.5373 15.0054C39.5889 15.0054 39.6342 14.9867 39.6717 14.9507C39.7092 14.9132 39.7264 14.8679 39.7264 14.8164C39.7264 14.7632 39.7092 14.7195 39.6717 14.682C39.6342 14.6445 39.5889 14.6257 39.5373 14.6257Z" fill="#111111"/>
<path id="Vector_155" d="M38.5846 15.5774C38.533 15.5774 38.4877 15.5961 38.4502 15.6321C38.4127 15.6696 38.3955 15.7149 38.3955 15.7665C38.3955 15.8196 38.4127 15.8633 38.4502 15.9008C38.4877 15.9383 38.533 15.9571 38.5846 15.9571C38.6377 15.9571 38.683 15.9383 38.7205 15.9008C38.7564 15.8633 38.7752 15.8196 38.7752 15.7665C38.7752 15.7149 38.7564 15.6696 38.7205 15.6321C38.683 15.5961 38.6377 15.5774 38.5846 15.5774Z" fill="#111111"/>
<path id="Vector_156" d="M40.4895 15.5774C40.4363 15.5774 40.391 15.5961 40.3551 15.6321C40.3176 15.6696 40.2988 15.7149 40.2988 15.7665C40.2988 15.8196 40.3176 15.8633 40.3551 15.9008C40.391 15.9383 40.4363 15.9571 40.4895 15.9571C40.541 15.9571 40.5863 15.9383 40.6238 15.9008C40.6613 15.8633 40.6801 15.8196 40.6801 15.7665C40.6801 15.7149 40.6613 15.6696 40.6238 15.6321C40.5863 15.5961 40.541 15.5774 40.4895 15.5774Z" fill="#111111"/>
<path id="Vector_157" d="M38.5846 13.6772C38.533 13.6772 38.4877 13.696 38.4502 13.7335C38.4127 13.771 38.3955 13.8147 38.3955 13.8679C38.3955 13.921 38.4127 13.9647 38.4502 14.0022C38.4877 14.0397 38.533 14.0585 38.5846 14.0585C38.6377 14.0585 38.683 14.0397 38.7205 14.0022C38.7564 13.9647 38.7752 13.921 38.7752 13.8679C38.7752 13.8147 38.7564 13.771 38.7205 13.7335C38.683 13.696 38.6377 13.6772 38.5846 13.6772Z" fill="#111111"/>
<path id="Vector_158" d="M40.4895 13.6772C40.4363 13.6772 40.391 13.696 40.3551 13.7335C40.3176 13.771 40.2988 13.8147 40.2988 13.8679C40.2988 13.921 40.3176 13.9647 40.3551 14.0022C40.391 14.0397 40.4363 14.0585 40.4895 14.0585C40.541 14.0585 40.5863 14.0397 40.6238 14.0022C40.6613 13.9647 40.6801 13.921 40.6801 13.8679C40.6801 13.8147 40.6613 13.771 40.6238 13.7335C40.5863 13.696 40.541 13.6772 40.4895 13.6772Z" fill="#111111"/>
<path id="Vector_159" d="M37.7386 16.5587C37.7074 16.5368 37.6714 16.5259 37.6324 16.5259C37.6011 16.5259 37.5714 16.5337 37.5433 16.5493C37.5152 16.5649 37.4918 16.5853 37.4746 16.6118C37.4574 16.6384 37.4464 16.6665 37.4433 16.6993C37.4402 16.7306 37.4449 16.7603 37.4574 16.7899C37.4808 16.8446 37.5214 16.8806 37.5777 16.8978C37.6355 16.9149 37.6886 16.9071 37.7386 16.8743C37.7699 16.8524 37.7933 16.8243 37.8089 16.7899C37.8183 16.7665 37.823 16.7415 37.823 16.7165C37.823 16.6774 37.8121 16.6431 37.7902 16.6103C37.7777 16.5899 37.7605 16.5728 37.7386 16.5587Z" fill="#111111"/>
<path id="Vector_160" d="M37.7395 14.6603C37.7082 14.6384 37.6723 14.6274 37.6332 14.6274C37.602 14.6274 37.5723 14.6337 37.5457 14.6478C37.5176 14.6618 37.4942 14.6806 37.4754 14.7056C37.4567 14.7321 37.4457 14.7587 37.441 14.7899C37.4363 14.8212 37.4379 14.8509 37.4473 14.8806C37.4582 14.9103 37.4738 14.9353 37.4957 14.9571C37.5176 14.979 37.5442 14.9946 37.5738 15.004C37.6035 15.0134 37.6332 15.0149 37.6645 15.0103C37.6957 15.004 37.7223 14.9931 37.7473 14.9743C37.7723 14.9556 37.791 14.9321 37.8051 14.904C37.8192 14.8759 37.8254 14.8462 37.8238 14.8149C37.8238 14.7837 37.816 14.754 37.8004 14.7274C37.7863 14.7009 37.7645 14.6774 37.7395 14.6603Z" fill="#111111"/>
<path id="Vector_161" d="M39.5373 20.3242C39.4842 20.3242 39.4389 20.343 39.4014 20.3789C39.3654 20.4164 39.3467 20.4617 39.3467 20.5133C39.3467 20.5664 39.3654 20.6102 39.4014 20.6477C39.4389 20.6852 39.4842 20.7039 39.5373 20.7039C39.5889 20.7039 39.6342 20.6852 39.6717 20.6477C39.7092 20.6102 39.7264 20.5664 39.7264 20.5133C39.7264 20.4617 39.7092 20.4164 39.6717 20.3789C39.6342 20.343 39.5889 20.3242 39.5373 20.3242Z" fill="#111111"/>
<path id="Vector_162" d="M39.5373 18.4258C39.4842 18.4258 39.4389 18.443 39.4014 18.4805C39.3654 18.518 39.3467 18.5633 39.3467 18.6148C39.3467 18.668 39.3654 18.7117 39.4014 18.7492C39.4389 18.7867 39.4842 18.8055 39.5373 18.8055C39.5889 18.8055 39.6342 18.7867 39.6717 18.7492C39.7092 18.7117 39.7264 18.668 39.7264 18.6148C39.7264 18.5633 39.7092 18.518 39.6717 18.4805C39.6342 18.443 39.5889 18.4258 39.5373 18.4258Z" fill="#111111"/>
<path id="Vector_163" d="M38.5846 19.3726C38.533 19.3726 38.4877 19.3913 38.4502 19.4288C38.4127 19.4663 38.3955 19.5101 38.3955 19.5632C38.3955 19.6147 38.4127 19.6601 38.4502 19.6976C38.4877 19.7335 38.533 19.7522 38.5846 19.7522C38.6377 19.7522 38.683 19.7335 38.7205 19.6976C38.7564 19.6601 38.7752 19.6147 38.7752 19.5632C38.7752 19.5101 38.7564 19.4663 38.7205 19.4288C38.683 19.3913 38.6377 19.3726 38.5846 19.3726Z" fill="#111111"/>
<path id="Vector_164" d="M40.4895 19.3726C40.4363 19.3726 40.391 19.3913 40.3551 19.4288C40.3176 19.4663 40.2988 19.5101 40.2988 19.5632C40.2988 19.6147 40.3176 19.6601 40.3551 19.6976C40.391 19.7335 40.4363 19.7522 40.4895 19.7522C40.541 19.7522 40.5863 19.7335 40.6238 19.6976C40.6613 19.6601 40.6801 19.6147 40.6801 19.5632C40.6801 19.5101 40.6613 19.4663 40.6238 19.4288C40.5863 19.3913 40.541 19.3726 40.4895 19.3726Z" fill="#111111"/>
<path id="Vector_165" d="M38.5846 17.4758C38.533 17.4758 38.4877 17.4946 38.4502 17.5321C38.4127 17.568 38.3955 17.6133 38.3955 17.6649C38.3955 17.718 38.4127 17.7633 38.4502 17.7993C38.4877 17.8368 38.533 17.8555 38.5846 17.8555C38.6377 17.8555 38.683 17.8368 38.7205 17.7993C38.7564 17.7633 38.7752 17.718 38.7752 17.6649C38.7752 17.6133 38.7564 17.568 38.7205 17.5321C38.683 17.4946 38.6377 17.4758 38.5846 17.4758Z" fill="#111111"/>
<path id="Vector_166" d="M40.4895 17.4758C40.4363 17.4758 40.391 17.4946 40.3551 17.5321C40.3176 17.568 40.2988 17.6133 40.2988 17.6649C40.2988 17.718 40.3176 17.7633 40.3551 17.7993C40.391 17.8368 40.4363 17.8555 40.4895 17.8555C40.541 17.8555 40.5863 17.8368 40.6238 17.7993C40.6613 17.7633 40.6801 17.718 40.6801 17.6649C40.6801 17.6133 40.6613 17.568 40.6238 17.5321C40.5863 17.4946 40.541 17.4758 40.4895 17.4758Z" fill="#111111"/>
<path id="Vector_167" d="M37.7395 20.357C37.7082 20.3352 37.6723 20.3242 37.6332 20.3242C37.602 20.3242 37.5723 20.3305 37.5457 20.3445C37.5176 20.3586 37.4942 20.3773 37.4754 20.4023C37.4567 20.4273 37.4457 20.4555 37.441 20.4867C37.4363 20.5164 37.4379 20.5477 37.4473 20.5758C37.4582 20.6055 37.4738 20.632 37.4957 20.6539C37.5176 20.6758 37.5442 20.6914 37.5738 20.7008C37.6035 20.7086 37.6332 20.7117 37.6645 20.7055C37.6957 20.7008 37.7223 20.6883 37.7473 20.6695C37.7723 20.6508 37.791 20.6273 37.8051 20.5992C37.8192 20.5711 37.8254 20.543 37.8238 20.5117C37.8238 20.4805 37.816 20.4508 37.8004 20.4242C37.7863 20.3961 37.7645 20.3742 37.7395 20.357Z" fill="#111111"/>
<path id="Vector_168" d="M37.7395 18.4585C37.7082 18.4351 37.6723 18.4242 37.6332 18.4257C37.602 18.4242 37.5723 18.432 37.5457 18.446C37.5176 18.4585 37.4942 18.4789 37.4754 18.5039C37.4567 18.5289 37.4457 18.557 37.441 18.5867C37.4363 18.6179 37.4379 18.6476 37.4473 18.6773C37.4582 18.707 37.4738 18.7335 37.4957 18.7554C37.5176 18.7757 37.5442 18.7914 37.5738 18.8007C37.6035 18.8101 37.6332 18.8132 37.6645 18.807C37.6957 18.8023 37.7223 18.7898 37.7473 18.771C37.7723 18.7523 37.791 18.7289 37.8051 18.7007C37.8192 18.6726 37.8254 18.6429 37.8238 18.6117C37.8238 18.582 37.816 18.5523 37.8004 18.5242C37.7863 18.4976 37.7645 18.4757 37.7395 18.4585Z" fill="#111111"/>
<path id="Vector_169" d="M39.5379 24.1196C39.4691 24.1212 39.416 24.1493 39.3785 24.204C39.341 24.2618 39.3347 24.3212 39.3597 24.3837C39.3941 24.4603 39.4519 24.4993 39.5363 24.4993C39.6191 24.4993 39.6785 24.4603 39.7113 24.3837C39.7222 24.3603 39.7269 24.3353 39.7269 24.3103C39.7269 24.2712 39.716 24.2368 39.6925 24.204C39.6566 24.1493 39.6035 24.1212 39.5379 24.1196Z" fill="#111111"/>
<path id="Vector_170" d="M39.5375 22.2227C39.4844 22.2227 39.4391 22.2414 39.4 22.2773C39.3625 22.3148 39.3438 22.3602 39.3438 22.4133C39.3438 22.4664 39.3625 22.5117 39.4 22.5492C39.4375 22.5867 39.4828 22.6055 39.5359 22.6055C39.5891 22.6055 39.6344 22.5867 39.6719 22.5477C39.7094 22.5102 39.7281 22.4648 39.7266 22.4133C39.7266 22.3602 39.7094 22.3148 39.6719 22.2789C39.6344 22.2414 39.5891 22.2227 39.5375 22.2227Z" fill="#111111"/>
<path id="Vector_171" d="M38.5846 23.1726C38.533 23.1726 38.4877 23.1898 38.4502 23.2273C38.4143 23.2648 38.3955 23.3085 38.3955 23.3617C38.3955 23.4132 38.4127 23.4585 38.4502 23.496C38.4877 23.5335 38.5314 23.5507 38.5846 23.5523C38.6361 23.5523 38.6814 23.5335 38.7189 23.4976C38.7564 23.4601 38.7752 23.4148 38.7752 23.3632C38.7768 23.3101 38.758 23.2648 38.7205 23.2273C38.683 23.1914 38.6377 23.1726 38.5846 23.1726Z" fill="#111111"/>
<path id="Vector_172" d="M40.4895 23.1726C40.4363 23.1726 40.3926 23.1898 40.3551 23.2273C40.3176 23.2648 40.2988 23.3085 40.2988 23.3617C40.2988 23.4132 40.3176 23.4585 40.3535 23.496C40.391 23.5335 40.4363 23.5507 40.4879 23.5523C40.541 23.5523 40.5863 23.5335 40.6238 23.4976C40.6598 23.4601 40.6785 23.4148 40.6801 23.3632C40.6801 23.3101 40.6613 23.2648 40.6238 23.2273C40.5863 23.1914 40.5426 23.1726 40.4895 23.1726Z" fill="#111111"/>
<path id="Vector_173" d="M38.5846 21.2727C38.533 21.2727 38.4877 21.2915 38.4502 21.329C38.4127 21.3665 38.3955 21.4102 38.3955 21.4633C38.3955 21.5149 38.4127 21.5602 38.4502 21.5977C38.4877 21.6352 38.533 21.6524 38.5846 21.6524C38.6377 21.6524 38.683 21.6352 38.7205 21.5977C38.7564 21.5602 38.7752 21.5149 38.7752 21.4633C38.7752 21.4102 38.7564 21.3665 38.7205 21.329C38.683 21.2915 38.6377 21.2727 38.5846 21.2727Z" fill="#111111"/>
<path id="Vector_174" d="M40.4895 21.2727C40.4363 21.2727 40.391 21.2915 40.3551 21.329C40.3176 21.3665 40.2988 21.4102 40.2988 21.4633C40.2988 21.5149 40.3176 21.5602 40.3551 21.5977C40.391 21.6352 40.4363 21.6524 40.4895 21.6524C40.541 21.6524 40.5863 21.6352 40.6238 21.5977C40.6613 21.5602 40.6801 21.5149 40.6801 21.4633C40.6801 21.4102 40.6613 21.3665 40.6238 21.329C40.5863 21.2915 40.541 21.2727 40.4895 21.2727Z" fill="#111111"/>
<path id="Vector_175" d="M37.7389 24.154C37.6951 24.1243 37.6483 24.115 37.5951 24.1243C37.5436 24.1353 37.503 24.1618 37.4748 24.2056C37.4373 24.2634 37.4311 24.3228 37.4576 24.3853C37.4811 24.44 37.5217 24.4759 37.578 24.4931C37.6358 24.5103 37.6889 24.5025 37.7389 24.4697C37.7701 24.4478 37.7936 24.4197 37.8092 24.3853C37.8186 24.3618 37.8233 24.3368 37.8233 24.3118C37.8233 24.2728 37.8123 24.2384 37.7905 24.2056C37.7764 24.1853 37.7592 24.1681 37.7389 24.154Z" fill="#111111"/>
<path id="Vector_176" d="M37.7393 22.2555C37.7064 22.2336 37.6721 22.2227 37.633 22.2227C37.583 22.2273 37.5424 22.2477 37.508 22.2836C37.4752 22.3195 37.458 22.3633 37.458 22.4133C37.458 22.4633 37.4752 22.5055 37.508 22.543C37.5424 22.5789 37.583 22.5992 37.633 22.6039C37.6721 22.6039 37.7064 22.593 37.7393 22.5711C37.7658 22.5523 37.7861 22.5305 37.8002 22.5023C37.8158 22.4742 37.8236 22.4445 37.8236 22.4133C37.8236 22.382 37.8158 22.3523 37.8002 22.3242C37.7861 22.2961 37.7658 22.2727 37.7393 22.2555Z" fill="#111111"/>
<path id="Vector_177" d="M38.5846 25.071C38.533 25.071 38.4877 25.0898 38.4502 25.1257C38.4143 25.1632 38.3955 25.2085 38.3955 25.2601C38.3955 25.3132 38.4127 25.357 38.4502 25.3945C38.4877 25.432 38.5314 25.4507 38.5846 25.4507C38.6361 25.4507 38.6814 25.432 38.7189 25.396C38.7564 25.3585 38.7752 25.3148 38.7752 25.2617C38.7768 25.2085 38.758 25.1648 38.7205 25.1273C38.683 25.0898 38.6377 25.071 38.5846 25.071Z" fill="#111111"/>
<path id="Vector_178" d="M40.4895 25.071C40.4363 25.071 40.3926 25.0898 40.3551 25.1257C40.3176 25.1632 40.2988 25.2085 40.2988 25.2601C40.2988 25.3132 40.3176 25.357 40.3535 25.3945C40.391 25.432 40.4363 25.4507 40.4879 25.4507C40.541 25.4507 40.5863 25.432 40.6238 25.396C40.6598 25.3585 40.6785 25.3148 40.6801 25.2617C40.6801 25.2085 40.6613 25.1648 40.6238 25.1273C40.5863 25.0898 40.5426 25.071 40.4895 25.071Z" fill="#111111"/>
<path id="Vector_179" d="M35.7297 20.3242C35.6766 20.3242 35.6312 20.343 35.5953 20.3789C35.5578 20.4164 35.5391 20.4617 35.5391 20.5133C35.5391 20.5664 35.5578 20.6102 35.5953 20.6477C35.6312 20.6852 35.6766 20.7039 35.7297 20.7039C35.7812 20.7039 35.8266 20.6852 35.8641 20.6477C35.9016 20.6102 35.9203 20.5664 35.9203 20.5133C35.9203 20.4617 35.9016 20.4164 35.8641 20.3789C35.8266 20.343 35.7812 20.3242 35.7297 20.3242Z" fill="#111111"/>
<path id="Vector_180" d="M35.7297 18.4258C35.6766 18.4258 35.6312 18.443 35.5953 18.4805C35.5578 18.518 35.5391 18.5633 35.5391 18.6148C35.5391 18.668 35.5578 18.7117 35.5953 18.7492C35.6312 18.7867 35.6766 18.8055 35.7297 18.8055C35.7812 18.8055 35.8266 18.7867 35.8641 18.7492C35.9016 18.7117 35.9203 18.668 35.9203 18.6148C35.9203 18.5633 35.9016 18.518 35.8641 18.4805C35.8266 18.443 35.7812 18.4258 35.7297 18.4258Z" fill="#111111"/>
<path id="Vector_181" d="M34.7785 19.3726C34.7254 19.3726 34.6801 19.3913 34.6426 19.4288C34.6066 19.4663 34.5879 19.5101 34.5879 19.5632C34.5879 19.6147 34.6066 19.6601 34.6426 19.6976C34.6801 19.7335 34.7254 19.7522 34.7785 19.7522C34.8301 19.7522 34.8754 19.7335 34.9129 19.6976C34.9504 19.6601 34.9676 19.6147 34.9676 19.5632C34.9676 19.5101 34.9504 19.4663 34.9129 19.4288C34.8754 19.3913 34.8301 19.3726 34.7785 19.3726Z" fill="#111111"/>
<path id="Vector_182" d="M36.6809 19.3726C36.6277 19.3726 36.584 19.3913 36.5465 19.4288C36.509 19.4663 36.4902 19.5101 36.4902 19.5632C36.4902 19.6147 36.509 19.6601 36.5465 19.6976C36.584 19.7335 36.6277 19.7522 36.6809 19.7522C36.734 19.7522 36.7777 19.7335 36.8152 19.6976C36.8527 19.6601 36.8715 19.6147 36.8715 19.5632C36.8715 19.5101 36.8527 19.4663 36.8152 19.4288C36.7777 19.3913 36.734 19.3726 36.6809 19.3726Z" fill="#111111"/>
<path id="Vector_183" d="M36.6809 17.4758C36.6277 17.4758 36.584 17.4946 36.5465 17.5321C36.509 17.568 36.4902 17.6133 36.4902 17.6649C36.4902 17.718 36.509 17.7633 36.5465 17.7993C36.584 17.8368 36.6277 17.8555 36.6809 17.8555C36.734 17.8555 36.7777 17.8368 36.8152 17.7993C36.8527 17.7633 36.8715 17.718 36.8715 17.6649C36.8715 17.6133 36.8527 17.568 36.8152 17.5321C36.7777 17.4946 36.734 17.4758 36.6809 17.4758Z" fill="#111111"/>
<path id="Vector_184" d="M35.7292 24.1196C35.6605 24.1212 35.6089 24.1493 35.5699 24.204C35.5324 24.2618 35.5277 24.3212 35.5527 24.3837C35.587 24.4603 35.6449 24.4993 35.7292 24.4993C35.812 24.4993 35.8714 24.4603 35.9042 24.3837C35.9152 24.3603 35.9199 24.3353 35.9199 24.3103C35.9199 24.2712 35.9089 24.2368 35.887 24.204C35.8495 24.1493 35.7964 24.1212 35.7292 24.1196Z" fill="#111111"/>
<path id="Vector_185" d="M35.7299 22.2227C35.6768 22.2227 35.6314 22.2414 35.5939 22.2773C35.5549 22.3148 35.5361 22.3602 35.5361 22.4133C35.5361 22.4664 35.5549 22.5117 35.5924 22.5492C35.6299 22.5867 35.6752 22.6055 35.7283 22.6055C35.7814 22.6055 35.8268 22.5867 35.8643 22.5477C35.9018 22.5102 35.9205 22.4648 35.9205 22.4133C35.9205 22.3602 35.9018 22.3148 35.8643 22.2789C35.8268 22.2414 35.7814 22.2227 35.7299 22.2227Z" fill="#111111"/>
<path id="Vector_186" d="M34.7785 23.1726C34.7254 23.1726 34.6801 23.1898 34.6441 23.2273C34.6066 23.2648 34.5879 23.3085 34.5879 23.3617C34.5879 23.4132 34.6066 23.4585 34.6426 23.496C34.6801 23.5335 34.7238 23.5507 34.777 23.5523C34.8301 23.5523 34.8738 23.5335 34.9113 23.4976C34.9488 23.4601 34.9676 23.4148 34.9676 23.3632C34.9691 23.3101 34.9504 23.2648 34.9129 23.2273C34.8754 23.1914 34.8301 23.1726 34.7785 23.1726Z" fill="#111111"/>
<path id="Vector_187" d="M36.6809 23.1726C36.6277 23.1726 36.584 23.1898 36.5465 23.2273C36.509 23.2648 36.4902 23.3085 36.4902 23.3617C36.4902 23.4132 36.509 23.4585 36.5465 23.496C36.5824 23.5335 36.6277 23.5507 36.6793 23.5523C36.7324 23.5523 36.7777 23.5335 36.8152 23.4976C36.8527 23.4601 36.8715 23.4148 36.8715 23.3632C36.8715 23.3101 36.8527 23.2648 36.8152 23.2273C36.7793 23.1914 36.734 23.1726 36.6809 23.1726Z" fill="#111111"/>
<path id="Vector_188" d="M34.7785 21.2727C34.7254 21.2727 34.6801 21.2915 34.6426 21.329C34.6066 21.3665 34.5879 21.4102 34.5879 21.4633C34.5879 21.5149 34.6066 21.5602 34.6426 21.5977C34.6801 21.6352 34.7254 21.6524 34.7785 21.6524C34.8301 21.6524 34.8754 21.6352 34.9129 21.5977C34.9504 21.5602 34.9676 21.5149 34.9676 21.4633C34.9676 21.4102 34.9504 21.3665 34.9129 21.329C34.8754 21.2915 34.8301 21.2727 34.7785 21.2727Z" fill="#111111"/>
<path id="Vector_189" d="M36.6809 21.2727C36.6277 21.2727 36.584 21.2915 36.5465 21.329C36.509 21.3665 36.4902 21.4102 36.4902 21.4633C36.4902 21.5149 36.509 21.5602 36.5465 21.5977C36.584 21.6352 36.6277 21.6524 36.6809 21.6524C36.734 21.6524 36.7777 21.6352 36.8152 21.5977C36.8527 21.5602 36.8715 21.5149 36.8715 21.4633C36.8715 21.4102 36.8527 21.3665 36.8152 21.329C36.7777 21.2915 36.734 21.2727 36.6809 21.2727Z" fill="#111111"/>
<path id="Vector_190" d="M33.8638 24.1196C33.8513 24.118 33.8388 24.118 33.8248 24.1196C33.7935 24.1211 33.7638 24.1274 33.7357 24.143C33.7076 24.1586 33.6857 24.179 33.667 24.2055C33.6498 24.2321 33.6388 24.2602 33.6357 24.293C33.6326 24.3243 33.6373 24.354 33.6498 24.3836C33.6701 24.4321 33.7045 24.4649 33.7513 24.4852C33.7748 24.4946 33.7998 24.4993 33.8248 24.4993C33.8388 24.5008 33.8513 24.5008 33.8638 24.4993C33.9279 24.4852 33.9716 24.4477 33.9966 24.3883C34.006 24.3649 34.0107 24.3399 34.0107 24.3133C34.0107 24.2758 33.9998 24.2399 33.9779 24.2086C33.9513 24.1633 33.9138 24.1336 33.8638 24.1196Z" fill="#111111"/>
<path id="Vector_191" d="M33.8639 22.2272C33.8514 22.2257 33.8389 22.2257 33.8248 22.2272C33.7998 22.2257 33.7748 22.2319 33.7514 22.2429C33.6748 22.2757 33.6357 22.3335 33.6357 22.4163C33.6357 22.5007 33.6748 22.5585 33.7514 22.5913C33.7748 22.6022 33.7998 22.6069 33.8248 22.6069C33.8389 22.6085 33.8514 22.6085 33.8639 22.6069C33.9639 22.5851 34.0139 22.5226 34.0139 22.421C34.0139 22.3194 33.9639 22.2569 33.8639 22.2351V22.2272Z" fill="#111111"/>
<path id="Vector_192" d="M34.7785 25.071C34.7254 25.071 34.6801 25.0898 34.6441 25.1257C34.6066 25.1632 34.5879 25.2085 34.5879 25.2601C34.5879 25.3132 34.6066 25.357 34.6426 25.3945C34.6801 25.432 34.7238 25.4507 34.777 25.4507C34.8301 25.4507 34.8738 25.432 34.9113 25.396C34.9488 25.3585 34.9676 25.3148 34.9676 25.2617C34.9691 25.2085 34.9504 25.1648 34.9129 25.1273C34.8754 25.0898 34.8301 25.071 34.7785 25.071Z" fill="#111111"/>
<path id="Vector_193" d="M36.6809 25.071C36.6277 25.071 36.584 25.0898 36.5465 25.1257C36.509 25.1632 36.4902 25.2085 36.4902 25.2601C36.4902 25.3132 36.509 25.357 36.5465 25.3945C36.5824 25.432 36.6277 25.4507 36.6793 25.4507C36.7324 25.4507 36.7777 25.432 36.8152 25.396C36.8527 25.3585 36.8715 25.3148 36.8715 25.2617C36.8715 25.2085 36.8527 25.1648 36.8152 25.1273C36.7793 25.0898 36.734 25.071 36.6809 25.071Z" fill="#111111"/>
<path id="Vector_194" d="M32.8732 23.1726C32.8217 23.1726 32.7764 23.1898 32.7389 23.2273C32.7014 23.2648 32.6826 23.3085 32.6826 23.3617C32.6826 23.4132 32.7014 23.4585 32.7389 23.496C32.7748 23.5335 32.8201 23.5507 32.8732 23.5523C32.9248 23.5523 32.9701 23.5335 33.0076 23.4976C33.0451 23.4601 33.0639 23.4148 33.0639 23.3632C33.0639 23.3101 33.0467 23.2648 33.0092 23.2273C32.9717 23.1914 32.9264 23.1726 32.8732 23.1726Z" fill="#111111"/>
<path id="Vector_195" d="M32.8732 25.071C32.8217 25.071 32.7764 25.0898 32.7389 25.1257C32.7014 25.1632 32.6826 25.2085 32.6826 25.2601C32.6826 25.3132 32.7014 25.357 32.7389 25.3945C32.7748 25.432 32.8201 25.4507 32.8732 25.4507C32.9248 25.4507 32.9701 25.432 33.0076 25.396C33.0451 25.3585 33.0639 25.3148 33.0639 25.2617C33.0639 25.2085 33.0467 25.1648 33.0092 25.1273C32.9717 25.0898 32.9264 25.071 32.8732 25.071Z" fill="#111111"/>
</g>
</svg>
