<svg width="31" height="30" viewBox="0 0 31 30" fill="none" xmlns="http://www.w3.org/2000/svg">
<g id="ri:behance-line">
<path id="Vector" d="M9.875 13.75C10.538 13.75 11.1739 13.4866 11.6428 13.0178C12.1116 12.5489 12.375 11.913 12.375 11.25C12.375 10.587 12.1116 9.95107 11.6428 9.48223C11.1739 9.01339 10.538 8.75 9.875 8.75H4.25V13.75H9.875ZM11.125 16.25H4.25V21.25H11.125C11.788 21.25 12.4239 20.9866 12.8928 20.5178C13.3616 20.0489 13.625 19.413 13.625 18.75C13.625 18.087 13.3616 17.4511 12.8928 16.9822C12.4239 16.5134 11.788 16.25 11.125 16.25ZM13.7037 14.465C14.6407 15.0284 15.3671 15.8833 15.7719 16.8988C16.1766 17.9144 16.2374 19.0346 15.9448 20.088C15.6523 21.1414 15.0225 22.0699 14.152 22.7312C13.2815 23.3926 12.2182 23.7505 11.125 23.75H1.75V6.25H9.875C10.8268 6.25011 11.7589 6.52191 12.5616 7.03346C13.3643 7.54501 14.0043 8.27506 14.4064 9.1378C14.8085 10.0005 14.956 10.9601 14.8315 11.9038C14.707 12.8475 14.3158 13.736 13.7037 14.465ZM19.875 7.5H26.75V9.375H19.875V7.5ZM29.25 18.125H19.875V18.4375C19.8747 19.2097 20.1344 19.9594 20.6123 20.566C21.0901 21.1726 21.7583 21.6006 22.5091 21.781C23.2598 21.9615 24.0495 21.884 24.7509 21.5609C25.4522 21.2378 26.0243 20.6879 26.375 20H29.0425C28.6617 21.3853 27.7916 22.5857 26.5935 23.3787C25.3955 24.1717 23.9506 24.5036 22.5265 24.3129C21.1025 24.1222 19.7959 23.4218 18.8487 22.3415C17.9015 21.2612 17.3779 19.8742 17.375 18.4375V16.5625C17.375 14.9878 18.0006 13.4776 19.1141 12.3641C20.2276 11.2506 21.7378 10.625 23.3125 10.625C24.8872 10.625 26.3974 11.2506 27.5109 12.3641C28.6244 13.4776 29.25 14.9878 29.25 16.5625V18.125ZM26.62 15.625C26.4153 14.9056 25.9817 14.2726 25.3848 13.8218C24.788 13.3711 24.0604 13.1272 23.3125 13.1272C22.5646 13.1272 21.837 13.3711 21.2402 13.8218C20.6433 14.2726 20.2097 14.9056 20.005 15.625H26.62Z" fill="#111111"/>
</g>
</svg>
