<svg width="31" height="30" viewBox="0 0 31 30" fill="none" xmlns="http://www.w3.org/2000/svg">
<g id="ri:dribbble-fill">
<path id="Vector" d="M15.75 2.5C8.85 2.5 3.25 8.1 3.25 15C3.25 21.9 8.85 27.5 15.75 27.5C22.6375 27.5 28.25 21.9 28.25 15C28.25 8.1 22.6375 2.5 15.75 2.5ZM24.0062 8.2625C25.5446 10.1366 26.3959 12.4805 26.4188 14.905C26.0675 14.8375 22.5425 14.1187 18.99 14.5662C18.9087 14.39 18.84 14.2 18.76 14.01C18.5388 13.4888 18.3037 12.9736 18.055 12.465C21.9862 10.865 23.7762 8.56 24.0062 8.2625ZM15.75 4.34375C18.4625 4.34375 20.9425 5.36125 22.8275 7.02875C22.6375 7.29875 21.0238 9.455 17.2275 10.8787C15.4788 7.66625 13.54 5.035 13.2413 4.62875C14.0636 4.43651 14.9055 4.34086 15.75 4.34375ZM11.2087 5.3475C12.6393 7.3304 13.9608 9.3897 15.1675 11.5163C10.1775 12.845 5.77125 12.8162 5.2975 12.8162C5.64103 11.2002 6.35326 9.68527 7.37863 8.38974C8.40399 7.09421 9.71478 6.05306 11.2087 5.3475ZM5.06625 15.0125V14.6875C5.52875 14.7 10.7062 14.7688 16.035 13.1687C16.3475 13.765 16.6313 14.375 16.9025 14.985C16.7662 15.0262 16.6175 15.0663 16.4825 15.1075C10.9775 16.8825 8.04875 21.7362 7.805 22.1437C6.0423 20.1868 5.06705 17.6463 5.0675 15.0125H5.06625ZM15.75 25.6838C13.3768 25.6878 11.0708 24.8955 9.20125 23.4338C9.39125 23.04 11.5612 18.8638 17.58 16.7625C17.6075 16.75 17.6212 16.75 17.6475 16.735C18.6629 19.3542 19.426 22.0645 19.9263 24.8288C18.6073 25.3963 17.1859 25.6873 15.75 25.6838ZM21.7013 23.8525C21.5938 23.2025 21.0238 20.0837 19.6262 16.2475C22.9762 15.7188 25.905 16.5862 26.27 16.7087C26.042 18.1501 25.5185 19.5288 24.7323 20.7581C23.946 21.9875 22.9141 23.041 21.7013 23.8525Z" fill="#111111"/>
</g>
</svg>
