<svg width="31" height="30" viewBox="0 0 31 30" fill="none" xmlns="http://www.w3.org/2000/svg">
<g id="ri:instagram-line">
<path id="Vector" d="M15.25 11.25C14.2554 11.25 13.3016 11.6451 12.5983 12.3483C11.8951 13.0516 11.5 14.0054 11.5 15C11.5 15.9946 11.8951 16.9484 12.5983 17.6517C13.3016 18.3549 14.2554 18.75 15.25 18.75C16.2446 18.75 17.1984 18.3549 17.9017 17.6517C18.6049 16.9484 19 15.9946 19 15C19 14.0054 18.6049 13.0516 17.9017 12.3483C17.1984 11.6451 16.2446 11.25 15.25 11.25ZM15.25 8.75C16.9076 8.75 18.4973 9.40848 19.6694 10.5806C20.8415 11.7527 21.5 13.3424 21.5 15C21.5 16.6576 20.8415 18.2473 19.6694 19.4194C18.4973 20.5915 16.9076 21.25 15.25 21.25C13.5924 21.25 12.0027 20.5915 10.8306 19.4194C9.65848 18.2473 9 16.6576 9 15C9 13.3424 9.65848 11.7527 10.8306 10.5806C12.0027 9.40848 13.5924 8.75 15.25 8.75ZM23.375 8.4375C23.375 8.8519 23.2104 9.24933 22.9174 9.54235C22.6243 9.83538 22.2269 10 21.8125 10C21.3981 10 21.0007 9.83538 20.7076 9.54235C20.4146 9.24933 20.25 8.8519 20.25 8.4375C20.25 8.0231 20.4146 7.62567 20.7076 7.33265C21.0007 7.03962 21.3981 6.875 21.8125 6.875C22.2269 6.875 22.6243 7.03962 22.9174 7.33265C23.2104 7.62567 23.375 8.0231 23.375 8.4375ZM15.25 5C12.1575 5 11.6525 5.00875 10.2138 5.0725C9.23375 5.11875 8.57625 5.25 7.96625 5.4875C7.45577 5.67492 6.99427 5.97533 6.61625 6.36625C6.22501 6.74425 5.92419 7.20573 5.73625 7.71625C5.49875 8.32875 5.3675 8.985 5.3225 9.96375C5.2575 11.3438 5.25 11.8263 5.25 15C5.25 18.0925 5.25875 18.5975 5.3225 20.0362C5.36875 21.015 5.5 21.6737 5.73625 22.2825C5.94875 22.8263 6.19875 23.2175 6.61375 23.6325C7.035 24.0525 7.42625 24.3037 7.96375 24.5112C8.58125 24.75 9.23875 24.8825 10.2138 24.9275C11.5938 24.9925 12.0763 25 15.25 25C18.3425 25 18.8475 24.9912 20.2862 24.9275C21.2638 24.8812 21.9225 24.75 22.5325 24.5138C23.0422 24.3254 23.5034 24.0256 23.8825 23.6362C24.3038 23.215 24.555 22.8238 24.7625 22.2863C25 21.67 25.1325 21.0112 25.1775 20.0362C25.2425 18.6562 25.25 18.1737 25.25 15C25.25 11.9075 25.2412 11.4025 25.1775 9.96375C25.1312 8.98625 25 8.32625 24.7625 7.71625C24.5741 7.20625 24.2738 6.74495 23.8837 6.36625C23.5059 5.97481 23.0444 5.67396 22.5337 5.48625C21.9212 5.24875 21.2638 5.1175 20.2862 5.0725C18.9062 5.0075 18.4237 5 15.25 5ZM15.25 2.5C18.6462 2.5 19.07 2.5125 20.4025 2.575C21.7337 2.6375 22.64 2.84625 23.4375 3.15625C24.2625 3.47375 24.9575 3.90375 25.6525 4.5975C26.2881 5.22237 26.7799 5.97824 27.0938 6.8125C27.4025 7.60875 27.6125 8.51625 27.675 9.8475C27.7338 11.18 27.75 11.6038 27.75 15C27.75 18.3962 27.7375 18.82 27.675 20.1525C27.6125 21.4837 27.4025 22.39 27.0938 23.1875C26.7808 24.0222 26.2889 24.7783 25.6525 25.4025C25.0275 26.0379 24.2716 26.5297 23.4375 26.8438C22.6412 27.1525 21.7337 27.3625 20.4025 27.425C19.07 27.4838 18.6462 27.5 15.25 27.5C11.8538 27.5 11.43 27.4875 10.0975 27.425C8.76625 27.3625 7.86 27.1525 7.0625 26.8438C6.22791 26.5306 5.47191 26.0387 4.8475 25.4025C4.21176 24.7777 3.71991 24.0218 3.40625 23.1875C3.09625 22.3912 2.8875 21.4837 2.825 20.1525C2.76625 18.82 2.75 18.3962 2.75 15C2.75 11.6038 2.7625 11.18 2.825 9.8475C2.8875 8.515 3.09625 7.61 3.40625 6.8125C3.71905 5.97772 4.211 5.22165 4.8475 4.5975C5.47209 3.96154 6.22804 3.46966 7.0625 3.15625C7.86 2.84625 8.765 2.6375 10.0975 2.575C11.43 2.51625 11.8538 2.5 15.25 2.5Z" fill="#111111"/>
</g>
</svg>
