<svg width="30" height="30" viewBox="0 0 30 30" fill="none" xmlns="http://www.w3.org/2000/svg">
<g id="ri:twitter-fill">
<path id="Vector" d="M27.7025 7.07015C26.7482 7.49227 25.7362 7.76949 24.7 7.89265C25.7922 7.23944 26.6096 6.21142 27 5.00015C25.975 5.61015 24.8513 6.03765 23.68 6.2689C22.8933 5.42713 21.8505 4.86886 20.7137 4.68088C19.5769 4.49291 18.4099 4.68577 17.3941 5.22947C16.3782 5.77317 15.5705 6.63726 15.0964 7.68739C14.6223 8.73753 14.5084 9.91488 14.7725 11.0364C12.6939 10.9322 10.6604 10.3921 8.80411 9.45098C6.9478 8.50991 5.31016 7.18896 3.9975 5.5739C3.53286 6.37197 3.28869 7.27919 3.29 8.20265C3.29 10.0152 4.2125 11.6164 5.615 12.5539C4.78501 12.5278 3.97329 12.3036 3.2475 11.9002V11.9652C3.24775 13.1723 3.66546 14.3422 4.42981 15.2765C5.19416 16.2108 6.2581 16.852 7.44125 17.0914C6.67077 17.3002 5.86288 17.331 5.07875 17.1814C5.41234 18.2204 6.06251 19.1292 6.93824 19.7803C7.81397 20.4314 8.87141 20.7924 9.9625 20.8127C8.8781 21.6643 7.63647 22.2939 6.3086 22.6654C4.98073 23.0369 3.59266 23.143 2.22375 22.9777C4.61337 24.5144 7.39512 25.3303 10.2363 25.3277C19.8525 25.3277 25.1113 17.3614 25.1113 10.4527C25.1113 10.2277 25.105 10.0002 25.095 9.77765C26.1186 9.03786 27.002 8.12143 27.7038 7.0714L27.7025 7.07015Z" fill="#111111"/>
</g>
</svg>
